<?xml version="1.0" encoding="UTF-8" standalone="no"?>
<!DOCTYPE svg PUBLIC "-//W3C//DTD SVG 1.1//EN"
 "http://www.w3.org/Graphics/SVG/1.1/DTD/svg11.dtd">
<!-- Generated by graphviz version 2.43.0 (0)
 -->
<!-- Title: ilham_full_chen Pages: 1 -->
<svg width="2044pt" height="1725pt"
 viewBox="0.00 0.00 2043.60 1725.00" xmlns="http://www.w3.org/2000/svg" xmlns:xlink="http://www.w3.org/1999/xlink">
<g id="graph0" class="graph" transform="scale(1 1) rotate(0) translate(4 1721)">
<title>ilham_full_chen</title>
<polygon fill="#0d1117" stroke="transparent" points="-4,4 -4,-1721 2039.6,-1721 2039.6,4 -4,4"/>
<g id="clust1" class="cluster">
<title>cluster_corpus</title>
<path fill="#161b22" stroke="#58a6ff" stroke-width="2" d="M461.39,-941C461.39,-941 2015.6,-941 2015.6,-941 2021.6,-941 2027.6,-947 2027.6,-953 2027.6,-953 2027.6,-1577 2027.6,-1577 2027.6,-1583 2021.6,-1589 2015.6,-1589 2015.6,-1589 461.39,-1589 461.39,-1589 455.39,-1589 449.39,-1583 449.39,-1577 449.39,-1577 449.39,-953 449.39,-953 449.39,-947 455.39,-941 461.39,-941"/>
<text text-anchor="middle" x="1238.49" y="-1574.6" font-family="DejaVu Sans Mono Bold" font-size="13.00" fill="#58a6ff">CORPUS &#160;(read&#45;only reference)</text>
</g>
<g id="clust2" class="cluster">
<title>cluster_app</title>
<path fill="#122117" stroke="#3fb950" stroke-width="2" d="M20,-68C20,-68 1624.37,-68 1624.37,-68 1630.37,-68 1636.37,-74 1636.37,-80 1636.37,-80 1636.37,-847 1636.37,-847 1636.37,-853 1630.37,-859 1624.37,-859 1624.37,-859 20,-859 20,-859 14,-859 8,-853 8,-847 8,-847 8,-80 8,-80 8,-74 14,-68 20,-68"/>
<text text-anchor="middle" x="822.18" y="-844.6" font-family="DejaVu Sans Mono Bold" font-size="13.00" fill="#3fb950">APP &#160;(OLTP — runtime writes)</text>
</g>
<!-- collections -->
<g id="node1" class="node">
<title>collections</title>
<polygon fill="#21262d" stroke="#58a6ff" stroke-width="1.5" points="540.39,-1407 457.39,-1407 457.39,-1371 540.39,-1371 540.39,-1407"/>
<text text-anchor="middle" x="498.89" y="-1386.5" font-family="DejaVu Sans Mono" font-size="10.00" fill="#c9d1d9">collections</text>
</g>
<!-- r_coll_chap -->
<g id="node12" class="node">
<title>r_coll_chap</title>
<polygon fill="#342612" stroke="#d29922" stroke-width="1.2" points="736.81,-1365 707.53,-1347 736.81,-1329 766.09,-1347 736.81,-1365"/>
<text text-anchor="middle" x="736.81" y="-1344.5" font-family="DejaVu Sans Mono" font-size="10.00" fill="#c9d1d9">has</text>
</g>
<!-- collections&#45;&#45;r_coll_chap -->
<g id="edge1" class="edge">
<title>collections&#45;&#45;r_coll_chap</title>
<path fill="none" stroke="#8b949e" d="M540.44,-1381.78C590.64,-1372.84 674.31,-1357.95 713.84,-1350.91"/>
<text text-anchor="middle" x="543.44" y="-1374.58" font-family="DejaVu Sans Mono" font-size="9.00" fill="#8b949e">1</text>
</g>
<!-- r_coll_had -->
<g id="node13" class="node">
<title>r_coll_had</title>
<polygon fill="#342612" stroke="#d29922" stroke-width="1.2" points="886.73,-1424 859.73,-1406 886.73,-1388 913.73,-1406 886.73,-1424"/>
<text text-anchor="middle" x="886.73" y="-1403.5" font-family="DejaVu Sans Mono" font-size="10.00" fill="#c9d1d9">in</text>
</g>
<!-- collections&#45;&#45;r_coll_had -->
<g id="edge3" class="edge">
<title>collections&#45;&#45;r_coll_had</title>
<path fill="none" stroke="#8b949e" d="M540.45,-1390.79C620.36,-1394.31 796.02,-1402.05 860.96,-1404.91"/>
<text text-anchor="middle" x="543.45" y="-1393.59" font-family="DejaVu Sans Mono" font-size="9.00" fill="#8b949e">1</text>
</g>
<!-- chapters -->
<g id="node2" class="node">
<title>chapters</title>
<polygon fill="#21262d" stroke="#58a6ff" stroke-width="1.5" points="1069.23,-1365 1004.23,-1365 1004.23,-1329 1069.23,-1329 1069.23,-1365"/>
<text text-anchor="middle" x="1036.73" y="-1344.5" font-family="DejaVu Sans Mono" font-size="10.00" fill="#c9d1d9">chapters</text>
</g>
<!-- r_chap_had -->
<g id="node14" class="node">
<title>r_chap_had</title>
<polygon fill="#342612" stroke="#d29922" stroke-width="1.2" points="1382.26,-1365 1343.01,-1347 1382.26,-1329 1421.52,-1347 1382.26,-1365"/>
<text text-anchor="middle" x="1382.26" y="-1344.5" font-family="DejaVu Sans Mono" font-size="10.00" fill="#c9d1d9">under</text>
</g>
<!-- chapters&#45;&#45;r_chap_had -->
<g id="edge5" class="edge">
<title>chapters&#45;&#45;r_chap_had</title>
<path fill="none" stroke="#8b949e" d="M1069.44,-1347C1132.72,-1347 1274.49,-1347 1342.9,-1347"/>
<text text-anchor="middle" x="1072.44" y="-1339.8" font-family="DejaVu Sans Mono" font-size="9.00" fill="#8b949e">1</text>
</g>
<!-- hadiths -->
<g id="node3" class="node">
<title>hadiths</title>
<polygon fill="#21262d" stroke="#58a6ff" stroke-width="1.5" points="1619.37,-1365 1560.37,-1365 1560.37,-1329 1619.37,-1329 1619.37,-1365"/>
<text text-anchor="middle" x="1589.87" y="-1344.5" font-family="DejaVu Sans Mono" font-size="10.00" fill="#c9d1d9">hadiths</text>
</g>
<!-- rank_levels -->
<g id="node4" class="node">
<title>rank_levels</title>
<polygon fill="#21262d" stroke="#58a6ff" stroke-width="1.5" points="2019.6,-1289 1936.6,-1289 1936.6,-1253 2019.6,-1253 2019.6,-1289"/>
<text text-anchor="middle" x="1978.1" y="-1268.5" font-family="DejaVu Sans Mono" font-size="10.00" fill="#c9d1d9">rank_levels</text>
</g>
<!-- rank_map -->
<g id="node5" class="node">
<title>rank_map</title>
<polygon fill="#21262d" stroke="#58a6ff" stroke-width="1.5" points="1622.37,-1441 1557.37,-1441 1557.37,-1405 1622.37,-1405 1622.37,-1441"/>
<text text-anchor="middle" x="1589.87" y="-1420.5" font-family="DejaVu Sans Mono" font-size="10.00" fill="#c9d1d9">rank_map</text>
</g>
<!-- r_rankmap -->
<g id="node15" class="node">
<title>r_rankmap</title>
<polygon fill="#342612" stroke="#d29922" stroke-width="1.2" points="1782.48,-1403 1733.25,-1385 1782.48,-1367 1831.72,-1385 1782.48,-1403"/>
<text text-anchor="middle" x="1782.48" y="-1382.5" font-family="DejaVu Sans Mono" font-size="10.00" fill="#c9d1d9">maps to</text>
</g>
<!-- rank_map&#45;&#45;r_rankmap -->
<g id="edge7" class="edge">
<title>rank_map&#45;&#45;r_rankmap</title>
<path fill="none" stroke="#8b949e" d="M1622.77,-1416.64C1658.17,-1409.58 1714.92,-1398.27 1750.11,-1391.25"/>
<text text-anchor="middle" x="1625.77" y="-1409.44" font-family="DejaVu Sans Mono" font-size="9.00" fill="#8b949e">N</text>
</g>
<!-- narrators -->
<g id="node6" class="node">
<title>narrators</title>
<polygon fill="#21262d" stroke="#58a6ff" stroke-width="1.5" points="1625.37,-1213 1554.37,-1213 1554.37,-1177 1625.37,-1177 1625.37,-1213"/>
<text text-anchor="middle" x="1589.87" y="-1192.5" font-family="DejaVu Sans Mono" font-size="10.00" fill="#c9d1d9">narrators</text>
</g>
<!-- r_nar_ih -->
<g id="node16" class="node">
<title>r_nar_ih</title>
<polygon fill="#342612" stroke="#d29922" stroke-width="1.2" points="1782.48,-1213 1733.25,-1195 1782.48,-1177 1831.72,-1195 1782.48,-1213"/>
<text text-anchor="middle" x="1782.48" y="-1192.5" font-family="DejaVu Sans Mono" font-size="10.00" fill="#c9d1d9">rank_IH</text>
</g>
<!-- narrators&#45;&#45;r_nar_ih -->
<g id="edge9" class="edge">
<title>narrators&#45;&#45;r_nar_ih</title>
<path fill="none" stroke="#8b949e" d="M1625.39,-1195C1655.53,-1195 1699.61,-1195 1733.24,-1195"/>
<text text-anchor="middle" x="1628.39" y="-1187.8" font-family="DejaVu Sans Mono" font-size="9.00" fill="#8b949e">N</text>
</g>
<!-- r_nar_dh -->
<g id="node17" class="node">
<title>r_nar_dh</title>
<polygon fill="#342612" stroke="#d29922" stroke-width="1.2" points="1782.48,-1289 1733.25,-1271 1782.48,-1253 1831.72,-1271 1782.48,-1289"/>
<text text-anchor="middle" x="1782.48" y="-1268.5" font-family="DejaVu Sans Mono" font-size="10.00" fill="#c9d1d9">rank_Dh</text>
</g>
<!-- narrators&#45;&#45;r_nar_dh -->
<g id="edge11" class="edge">
<title>narrators&#45;&#45;r_nar_dh</title>
<path fill="none" stroke="#8b949e" d="M1625.39,-1208.76C1663.9,-1224.12 1725.15,-1248.54 1758.31,-1261.76"/>
<text text-anchor="middle" x="1628.39" y="-1201.56" font-family="DejaVu Sans Mono" font-size="9.00" fill="#8b949e">N</text>
</g>
<!-- isnad_links -->
<g id="node7" class="node">
<title>isnad_links</title>
<polygon fill="#21262d" stroke="#58a6ff" stroke-width="1.5" points="1078.23,-1213 995.23,-1213 995.23,-1177 1078.23,-1177 1078.23,-1213"/>
<text text-anchor="middle" x="1036.73" y="-1192.5" font-family="DejaVu Sans Mono" font-size="10.00" fill="#c9d1d9">isnad_links</text>
</g>
<!-- isnad_edges -->
<g id="node11" class="node">
<title>isnad_edges</title>
<polygon fill="#1b2430" stroke="#79c0ff" stroke-width="1.2" stroke-dasharray="5,2" points="1438.76,-1137 1325.76,-1137 1325.76,-1101 1438.76,-1101 1438.76,-1137"/>
<text text-anchor="middle" x="1382.26" y="-1122" font-family="DejaVu Sans Mono" font-size="10.00" fill="#79c0ff">isnad_edges</text>
<text text-anchor="middle" x="1382.26" y="-1111" font-family="DejaVu Sans Mono" font-size="10.00" fill="#79c0ff">(VIEW — derived)</text>
</g>
<!-- isnad_links&#45;&#45;isnad_edges -->
<g id="edge25" class="edge">
<title>isnad_links&#45;&#45;isnad_edges</title>
<path fill="none" stroke="#79c0ff" stroke-dasharray="5,2" d="M1078.31,-1184C1100.64,-1178.08 1128.89,-1170.83 1154.23,-1165 1212.44,-1151.62 1279.51,-1138.28 1325.57,-1129.44"/>
<text text-anchor="middle" x="1210.2" y="-1177.8" font-family="DejaVu Sans Mono" font-size="9.00" fill="#79c0ff">self&#45;join</text>
<text text-anchor="middle" x="1210.2" y="-1167.8" font-family="DejaVu Sans Mono" font-size="9.00" fill="#79c0ff">pos ↔ pos+1</text>
</g>
<!-- r_link_had -->
<g id="node18" class="node">
<title>r_link_had</title>
<polygon fill="#342612" stroke="#d29922" stroke-width="1.2" points="1382.26,-1289 1355.26,-1271 1382.26,-1253 1409.26,-1271 1382.26,-1289"/>
<text text-anchor="middle" x="1382.26" y="-1268.5" font-family="DejaVu Sans Mono" font-size="10.00" fill="#c9d1d9">of</text>
</g>
<!-- isnad_links&#45;&#45;r_link_had -->
<g id="edge13" class="edge">
<title>isnad_links&#45;&#45;r_link_had</title>
<path fill="none" stroke="#8b949e" d="M1078.49,-1204.02C1152.6,-1220.41 1306.83,-1254.53 1361.52,-1266.63"/>
<text text-anchor="middle" x="1081.49" y="-1196.82" font-family="DejaVu Sans Mono" font-size="9.00" fill="#8b949e">N</text>
</g>
<!-- r_link_nar -->
<g id="node19" class="node">
<title>r_link_nar</title>
<polygon fill="#342612" stroke="#d29922" stroke-width="1.2" points="1382.26,-1213 1343.01,-1195 1382.26,-1177 1421.52,-1195 1382.26,-1213"/>
<text text-anchor="middle" x="1382.26" y="-1192.5" font-family="DejaVu Sans Mono" font-size="10.00" fill="#c9d1d9">cites</text>
</g>
<!-- isnad_links&#45;&#45;r_link_nar -->
<g id="edge15" class="edge">
<title>isnad_links&#45;&#45;r_link_nar</title>
<path fill="none" stroke="#8b949e" d="M1078.49,-1195C1145.4,-1195 1277.63,-1195 1342.93,-1195"/>
<text text-anchor="middle" x="1081.49" y="-1187.8" font-family="DejaVu Sans Mono" font-size="9.00" fill="#8b949e">N</text>
</g>
<!-- hadith_mentions -->
<g id="node8" class="node">
<title>hadith_mentions</title>
<polygon fill="#21262d" stroke="#58a6ff" stroke-width="1.5" points="1090.23,-1015 983.23,-1015 983.23,-979 1090.23,-979 1090.23,-1015"/>
<text text-anchor="middle" x="1036.73" y="-994.5" font-family="DejaVu Sans Mono" font-size="10.00" fill="#c9d1d9">hadith_mentions</text>
</g>
<!-- r_ment_had -->
<g id="node20" class="node">
<title>r_ment_had</title>
<polygon fill="#342612" stroke="#d29922" stroke-width="1.2" points="1382.26,-1061 1328.04,-1043 1382.26,-1025 1436.49,-1043 1382.26,-1061"/>
<text text-anchor="middle" x="1382.26" y="-1040.5" font-family="DejaVu Sans Mono" font-size="10.00" fill="#c9d1d9">mentions</text>
</g>
<!-- hadith_mentions&#45;&#45;r_ment_had -->
<g id="edge17" class="edge">
<title>hadith_mentions&#45;&#45;r_ment_had</title>
<path fill="none" stroke="#8b949e" d="M1090.28,-1004.04C1160.01,-1013.37 1281.47,-1029.64 1343.08,-1037.89"/>
<text text-anchor="middle" x="1093.28" y="-996.84" font-family="DejaVu Sans Mono" font-size="9.00" fill="#8b949e">N</text>
</g>
<!-- r_ment_nar -->
<g id="node21" class="node">
<title>r_ment_nar</title>
<polygon fill="#342612" stroke="#d29922" stroke-width="1.2" points="1382.26,-985 1338.02,-967 1382.26,-949 1426.51,-967 1382.26,-985"/>
<text text-anchor="middle" x="1382.26" y="-964.5" font-family="DejaVu Sans Mono" font-size="10.00" fill="#c9d1d9">refers</text>
</g>
<!-- hadith_mentions&#45;&#45;r_ment_nar -->
<g id="edge19" class="edge">
<title>hadith_mentions&#45;&#45;r_ment_nar</title>
<path fill="none" stroke="#8b949e" d="M1090.28,-992.41C1160.95,-986.24 1284.75,-975.43 1345.54,-970.12"/>
<text text-anchor="middle" x="1093.28" y="-985.21" font-family="DejaVu Sans Mono" font-size="9.00" fill="#8b949e">N</text>
</g>
<!-- hadith_subjects -->
<g id="node9" class="node">
<title>hadith_subjects</title>
<polygon fill="#21262d" stroke="#58a6ff" stroke-width="1.5" points="1090.23,-1559 983.23,-1559 983.23,-1523 1090.23,-1523 1090.23,-1559"/>
<text text-anchor="middle" x="1036.73" y="-1538.5" font-family="DejaVu Sans Mono" font-size="10.00" fill="#c9d1d9">hadith_subjects</text>
</g>
<!-- r_subj -->
<g id="node22" class="node">
<title>r_subj</title>
<polygon fill="#342612" stroke="#d29922" stroke-width="1.2" points="1382.26,-1559 1338.02,-1541 1382.26,-1523 1426.51,-1541 1382.26,-1559"/>
<text text-anchor="middle" x="1382.26" y="-1538.5" font-family="DejaVu Sans Mono" font-size="10.00" fill="#c9d1d9">tagged</text>
</g>
<!-- hadith_subjects&#45;&#45;r_subj -->
<g id="edge21" class="edge">
<title>hadith_subjects&#45;&#45;r_subj</title>
<path fill="none" stroke="#8b949e" d="M1090.28,-1541C1158.13,-1541 1274.96,-1541 1337.97,-1541"/>
<text text-anchor="middle" x="1093.28" y="-1533.8" font-family="DejaVu Sans Mono" font-size="9.00" fill="#8b949e">N</text>
</g>
<!-- hadith_translations -->
<g id="node10" class="node">
<title>hadith_translations</title>
<polygon fill="#21262d" stroke="#58a6ff" stroke-width="1.5" points="1102.23,-1483 971.23,-1483 971.23,-1447 1102.23,-1447 1102.23,-1483"/>
<text text-anchor="middle" x="1036.73" y="-1462.5" font-family="DejaVu Sans Mono" font-size="10.00" fill="#c9d1d9">hadith_translations</text>
</g>
<!-- r_trans -->
<g id="node23" class="node">
<title>r_trans</title>
<polygon fill="#342612" stroke="#d29922" stroke-width="1.2" points="1382.26,-1483 1318.06,-1465 1382.26,-1447 1446.47,-1465 1382.26,-1483"/>
<text text-anchor="middle" x="1382.26" y="-1462.5" font-family="DejaVu Sans Mono" font-size="10.00" fill="#c9d1d9">translates</text>
</g>
<!-- hadith_translations&#45;&#45;r_trans -->
<g id="edge23" class="edge">
<title>hadith_translations&#45;&#45;r_trans</title>
<path fill="none" stroke="#8b949e" d="M1102.35,-1465C1164.16,-1465 1256.78,-1465 1318.1,-1465"/>
<text text-anchor="middle" x="1105.35" y="-1457.8" font-family="DejaVu Sans Mono" font-size="9.00" fill="#8b949e">N</text>
</g>
<!-- r_coll_chap&#45;&#45;chapters -->
<g id="edge2" class="edge">
<title>r_coll_chap&#45;&#45;chapters</title>
<path fill="none" stroke="#8b949e" d="M766.11,-1347C821.88,-1347 945.66,-1347 1004.06,-1347"/>
<text text-anchor="middle" x="1001.06" y="-1339.8" font-family="DejaVu Sans Mono" font-size="9.00" fill="#8b949e">N</text>
</g>
<!-- r_coll_had&#45;&#45;hadiths -->
<g id="edge4" class="edge">
<title>r_coll_had&#45;&#45;hadiths</title>
<path fill="none" stroke="#8b949e" d="M912.42,-1407.02C990.96,-1409.85 1241.94,-1415.71 1446.37,-1385 1486.62,-1378.95 1531.84,-1365.76 1560.33,-1356.63"/>
<text text-anchor="middle" x="1557.33" y="-1359.43" font-family="DejaVu Sans Mono" font-size="9.00" fill="#8b949e">N</text>
</g>
<!-- r_chap_had&#45;&#45;hadiths -->
<g id="edge6" class="edge">
<title>r_chap_had&#45;&#45;hadiths</title>
<path fill="none" stroke="#8b949e" d="M1421.45,-1347C1461.63,-1347 1523.96,-1347 1560.15,-1347"/>
<text text-anchor="middle" x="1557.15" y="-1339.8" font-family="DejaVu Sans Mono" font-size="9.00" fill="#8b949e">N</text>
</g>
<!-- r_rankmap&#45;&#45;rank_levels -->
<g id="edge8" class="edge">
<title>r_rankmap&#45;&#45;rank_levels</title>
<path fill="none" stroke="#8b949e" d="M1802.05,-1374.07C1835.36,-1354.45 1905.61,-1313.09 1946.26,-1289.16"/>
<text text-anchor="middle" x="1943.26" y="-1291.96" font-family="DejaVu Sans Mono" font-size="9.00" fill="#8b949e">1</text>
</g>
<!-- r_nar_ih&#45;&#45;rank_levels -->
<g id="edge10" class="edge">
<title>r_nar_ih&#45;&#45;rank_levels</title>
<path fill="none" stroke="#8b949e" d="M1806.84,-1204.17C1838.92,-1216.76 1897.12,-1239.61 1936.44,-1255.04"/>
<text text-anchor="middle" x="1933.44" y="-1247.84" font-family="DejaVu Sans Mono" font-size="9.00" fill="#8b949e">1</text>
</g>
<!-- r_nar_dh&#45;&#45;rank_levels -->
<g id="edge12" class="edge">
<title>r_nar_dh&#45;&#45;rank_levels</title>
<path fill="none" stroke="#8b949e" d="M1831.84,-1271C1864.1,-1271 1906.03,-1271 1936.54,-1271"/>
<text text-anchor="middle" x="1933.54" y="-1263.8" font-family="DejaVu Sans Mono" font-size="9.00" fill="#8b949e">1</text>
</g>
<!-- r_link_had&#45;&#45;hadiths -->
<g id="edge14" class="edge">
<title>r_link_had&#45;&#45;hadiths</title>
<path fill="none" stroke="#8b949e" d="M1400.09,-1277.22C1435.19,-1290.19 1516.57,-1320.28 1560.13,-1336.38"/>
<text text-anchor="middle" x="1557.13" y="-1329.18" font-family="DejaVu Sans Mono" font-size="9.00" fill="#8b949e">1</text>
</g>
<!-- r_link_nar&#45;&#45;narrators -->
<g id="edge16" class="edge">
<title>r_link_nar&#45;&#45;narrators</title>
<path fill="none" stroke="#8b949e" d="M1421.45,-1195C1459.54,-1195 1517.54,-1195 1554.3,-1195"/>
<text text-anchor="middle" x="1551.3" y="-1187.8" font-family="DejaVu Sans Mono" font-size="9.00" fill="#8b949e">1</text>
</g>
<!-- r_ment_had&#45;&#45;hadiths -->
<g id="edge18" class="edge">
<title>r_ment_had&#45;&#45;hadiths</title>
<path fill="none" stroke="#8b949e" d="M1406.35,-1053.1C1419.31,-1059.64 1435.09,-1069.14 1446.37,-1081 1520.38,-1158.83 1567.23,-1282.58 1582.96,-1328.8"/>
<text text-anchor="middle" x="1585.96" y="-1321.6" font-family="DejaVu Sans Mono" font-size="9.00" fill="#8b949e">1</text>
</g>
<!-- r_ment_nar&#45;&#45;narrators -->
<g id="edge20" class="edge">
<title>r_ment_nar&#45;&#45;narrators</title>
<path fill="none" stroke="#8b949e" d="M1403.35,-976.54C1416.46,-983.35 1433.46,-993.34 1446.37,-1005 1506.03,-1058.9 1557.48,-1140.93 1578.61,-1176.96"/>
<text text-anchor="middle" x="1575.61" y="-1169.76" font-family="DejaVu Sans Mono" font-size="9.00" fill="#8b949e">1</text>
</g>
<!-- r_subj&#45;&#45;hadiths -->
<g id="edge22" class="edge">
<title>r_subj&#45;&#45;hadiths</title>
<path fill="none" stroke="#8b949e" d="M1402.75,-1531.25C1415.76,-1524.29 1432.89,-1514.19 1446.37,-1503 1500.38,-1458.16 1503.36,-1436.22 1551.37,-1385 1557.45,-1378.51 1564.24,-1371.54 1570.36,-1365.37"/>
<text text-anchor="middle" x="1567.36" y="-1368.17" font-family="DejaVu Sans Mono" font-size="9.00" fill="#8b949e">1</text>
</g>
<!-- r_trans&#45;&#45;hadiths -->
<g id="edge24" class="edge">
<title>r_trans&#45;&#45;hadiths</title>
<path fill="none" stroke="#8b949e" d="M1412.44,-1455.43C1436.57,-1446.94 1471.29,-1433.37 1499.37,-1417 1525.1,-1402 1551.61,-1380.34 1569.03,-1365.1"/>
<text text-anchor="middle" x="1572.03" y="-1367.9" font-family="DejaVu Sans Mono" font-size="9.00" fill="#8b949e">1</text>
</g>
<!-- users -->
<g id="node24" class="node">
<title>users</title>
<polygon fill="#1c3326" stroke="#56d364" stroke-width="2.2" points="525.89,-158 471.89,-158 471.89,-122 525.89,-122 525.89,-158"/>
<text text-anchor="middle" x="498.89" y="-137.5" font-family="DejaVu Sans Mono" font-size="10.00" fill="#e6edf3">users</text>
</g>
<!-- isa_users -->
<g id="node40" class="node">
<title>isa_users</title>
<polygon fill="#3d2c08" stroke="#e3b341" stroke-width="2" points="736.81,-161.5 701.34,-129.25 772.28,-129.25 736.81,-161.5"/>
<text text-anchor="middle" x="736.81" y="-137.8" font-family="DejaVu Sans Mono" font-size="9.00" fill="#e6edf3">ISA</text>
</g>
<!-- users&#45;&#45;isa_users -->
<g id="edge26" class="edge">
<title>users&#45;&#45;isa_users</title>
<path fill="none" stroke="#e3b341" stroke-width="2" d="M526.04,-140C572.59,-140 669.05,-140 713.05,-140"/>
<text text-anchor="middle" x="616.39" y="-142.8" font-family="DejaVu Sans Mono" font-size="9.00" fill="#e3b341">d</text>
</g>
<!-- r_set_owner -->
<g id="node44" class="node">
<title>r_set_owner</title>
<polygon fill="#342612" stroke="#d29922" stroke-width="1.2" points="886.73,-149.5 854.23,-128 886.73,-106.5 919.23,-128 886.73,-149.5"/>
<text text-anchor="middle" x="886.73" y="-125.5" font-family="DejaVu Sans Mono" font-size="10.00" fill="#c9d1d9">owns</text>
</g>
<!-- users&#45;&#45;r_set_owner -->
<g id="edge36" class="edge">
<title>users&#45;&#45;r_set_owner</title>
<path fill="none" stroke="#8b949e" d="M526.26,-131.07C578.89,-114.43 700.64,-81.86 802.23,-99 825.23,-102.88 850.36,-112.38 866.98,-119.45"/>
<text text-anchor="middle" x="529.26" y="-123.87" font-family="DejaVu Sans Mono" font-size="9.00" fill="#8b949e">1</text>
</g>
<!-- students -->
<g id="node25" class="node">
<title>students</title>
<polygon fill="#1c2a22" stroke="#7ee787" stroke-width="1.8" points="1069.23,-546 1004.23,-546 1004.23,-510 1069.23,-510 1069.23,-546"/>
<text text-anchor="middle" x="1036.73" y="-525.5" font-family="DejaVu Sans Mono" font-size="10.00" fill="#c9d1d9">students</text>
</g>
<!-- teachers -->
<g id="node26" class="node">
<title>teachers</title>
<polygon fill="#1c2a22" stroke="#7ee787" stroke-width="1.8" points="1069.23,-306 1004.23,-306 1004.23,-270 1069.23,-270 1069.23,-306"/>
<text text-anchor="middle" x="1036.73" y="-285.5" font-family="DejaVu Sans Mono" font-size="10.00" fill="#c9d1d9">teachers</text>
</g>
<!-- r_teaches -->
<g id="node41" class="node">
<title>r_teaches</title>
<polygon fill="#342612" stroke="#d29922" stroke-width="1.2" points="1382.26,-265.5 1335.75,-244 1382.26,-222.5 1428.77,-244 1382.26,-265.5"/>
<text text-anchor="middle" x="1382.26" y="-241.5" font-family="DejaVu Sans Mono" font-size="10.00" fill="#c9d1d9">teaches</text>
</g>
<!-- teachers&#45;&#45;r_teaches -->
<g id="edge30" class="edge">
<title>teachers&#45;&#45;r_teaches</title>
<path fill="none" stroke="#8b949e" d="M1069.44,-283.94C1133.55,-275.73 1278.23,-257.2 1345.55,-248.57"/>
<text text-anchor="middle" x="1072.44" y="-276.74" font-family="DejaVu Sans Mono" font-size="9.00" fill="#8b949e">1</text>
</g>
<!-- admins -->
<g id="node27" class="node">
<title>admins</title>
<polygon fill="#1c2a22" stroke="#7ee787" stroke-width="1.8" points="1063.73,-230 1009.73,-230 1009.73,-194 1063.73,-194 1063.73,-230"/>
<text text-anchor="middle" x="1036.73" y="-209.5" font-family="DejaVu Sans Mono" font-size="10.00" fill="#c9d1d9">admins</text>
</g>
<!-- circles -->
<g id="node28" class="node">
<title>circles</title>
<polygon fill="#1c2a22" stroke="#3fb950" stroke-width="1.5" points="1619.37,-474 1560.37,-474 1560.37,-438 1619.37,-438 1619.37,-474"/>
<text text-anchor="middle" x="1589.87" y="-453.5" font-family="DejaVu Sans Mono" font-size="10.00" fill="#c9d1d9">circles</text>
</g>
<!-- enrollments -->
<g id="node29" class="node">
<title>enrollments</title>
<polygon fill="#1c2a22" stroke="#3fb950" stroke-width="1.5" points="540.39,-738 457.39,-738 457.39,-702 540.39,-702 540.39,-738"/>
<text text-anchor="middle" x="498.89" y="-717.5" font-family="DejaVu Sans Mono" font-size="10.00" fill="#c9d1d9">enrollments</text>
</g>
<!-- r_enr_circ -->
<g id="node42" class="node">
<title>r_enr_circ</title>
<polygon fill="#342612" stroke="#d29922" stroke-width="1.2" points="886.73,-661.5 854.23,-640 886.73,-618.5 919.23,-640 886.73,-661.5"/>
<text text-anchor="middle" x="886.73" y="-637.5" font-family="DejaVu Sans Mono" font-size="10.00" fill="#c9d1d9">into</text>
</g>
<!-- enrollments&#45;&#45;r_enr_circ -->
<g id="edge32" class="edge">
<title>enrollments&#45;&#45;r_enr_circ</title>
<path fill="none" stroke="#8b949e" d="M540.41,-730.06C600.26,-742.82 714.64,-759.13 802.23,-723 804.5,-722.06 850.34,-675.84 873.11,-652.79"/>
<text text-anchor="middle" x="543.41" y="-722.86" font-family="DejaVu Sans Mono" font-size="9.00" fill="#8b949e">N</text>
</g>
<!-- r_enr_stu -->
<g id="node43" class="node">
<title>r_enr_stu</title>
<polygon fill="#342612" stroke="#d29922" stroke-width="1.2" points="736.81,-702.5 690.3,-681 736.81,-659.5 783.32,-681 736.81,-702.5"/>
<text text-anchor="middle" x="736.81" y="-678.5" font-family="DejaVu Sans Mono" font-size="10.00" fill="#c9d1d9">enrolls</text>
</g>
<!-- enrollments&#45;&#45;r_enr_stu -->
<g id="edge34" class="edge">
<title>enrollments&#45;&#45;r_enr_stu</title>
<path fill="none" stroke="#8b949e" d="M540.44,-713.3C586.16,-705.74 659.65,-693.59 702.26,-686.55"/>
<text text-anchor="middle" x="543.44" y="-706.1" font-family="DejaVu Sans Mono" font-size="9.00" fill="#8b949e">N</text>
</g>
<!-- study_sets -->
<g id="node30" class="node">
<title>study_sets</title>
<polygon fill="#1c2a22" stroke="#3fb950" stroke-width="1.5" points="1628.37,-179 1551.37,-179 1551.37,-143 1628.37,-143 1628.37,-179"/>
<text text-anchor="middle" x="1589.87" y="-158.5" font-family="DejaVu Sans Mono" font-size="10.00" fill="#c9d1d9">study_sets</text>
</g>
<!-- set_items -->
<g id="node31" class="node">
<title>set_items</title>
<polygon fill="#1c2a22" stroke="#3fb950" stroke-width="1.5" points="1072.23,-112 1001.23,-112 1001.23,-76 1072.23,-76 1072.23,-112"/>
<text text-anchor="middle" x="1036.73" y="-91.5" font-family="DejaVu Sans Mono" font-size="10.00" fill="#c9d1d9">set_items</text>
</g>
<!-- r_setitem_set -->
<g id="node45" class="node">
<title>r_setitem_set</title>
<polygon fill="#342612" stroke="#d29922" stroke-width="1.2" points="1382.26,-119.5 1340.71,-98 1382.26,-76.5 1423.82,-98 1382.26,-119.5"/>
<text text-anchor="middle" x="1382.26" y="-95.5" font-family="DejaVu Sans Mono" font-size="10.00" fill="#c9d1d9">in_set</text>
</g>
<!-- set_items&#45;&#45;r_setitem_set -->
<g id="edge38" class="edge">
<title>set_items&#45;&#45;r_setitem_set</title>
<path fill="none" stroke="#8b949e" d="M1072.24,-94.4C1136.39,-95.15 1273.61,-96.75 1341.52,-97.54"/>
<text text-anchor="middle" x="1075.24" y="-87.2" font-family="DejaVu Sans Mono" font-size="9.00" fill="#8b949e">N</text>
</g>
<!-- r_setitem_had -->
<g id="node58" class="node">
<title>r_setitem_had</title>
<polygon fill="#2d1617" stroke="#f85149" stroke-width="1.4" points="1382.26,-36 1343.01,-18 1382.26,0 1421.52,-18 1382.26,-36"/>
<text text-anchor="middle" x="1382.26" y="-15.5" font-family="DejaVu Sans Mono" font-size="10.00" fill="#c9d1d9">picks</text>
</g>
<!-- set_items&#45;&#45;r_setitem_had -->
<g id="edge64" class="edge">
<title>set_items&#45;&#45;r_setitem_had</title>
<path fill="none" stroke="#f85149" d="M1072.24,-86.36C1141.15,-71.12 1294.4,-37.22 1355.44,-23.71"/>
<text text-anchor="middle" x="1075.24" y="-79.16" font-family="DejaVu Sans Mono" font-size="9.00" fill="#ff7b72">N</text>
</g>
<!-- assignments -->
<g id="node32" class="node">
<title>assignments</title>
<polygon fill="#1c2a22" stroke="#3fb950" stroke-width="1.5" points="1078.23,-382 995.23,-382 995.23,-346 1078.23,-346 1078.23,-382"/>
<text text-anchor="middle" x="1036.73" y="-361.5" font-family="DejaVu Sans Mono" font-size="10.00" fill="#c9d1d9">assignments</text>
</g>
<!-- r_asg_circ -->
<g id="node46" class="node">
<title>r_asg_circ</title>
<polygon fill="#342612" stroke="#d29922" stroke-width="1.2" points="1382.26,-431.5 1321.38,-410 1382.26,-388.5 1443.15,-410 1382.26,-431.5"/>
<text text-anchor="middle" x="1382.26" y="-407.5" font-family="DejaVu Sans Mono" font-size="10.00" fill="#c9d1d9">for_circle</text>
</g>
<!-- assignments&#45;&#45;r_asg_circ -->
<g id="edge40" class="edge">
<title>assignments&#45;&#45;r_asg_circ</title>
<path fill="none" stroke="#8b949e" d="M1078.49,-369.46C1143.63,-378.18 1270.65,-395.19 1337.59,-404.15"/>
<text text-anchor="middle" x="1081.49" y="-362.26" font-family="DejaVu Sans Mono" font-size="9.00" fill="#8b949e">N</text>
</g>
<!-- r_asg_set -->
<g id="node47" class="node">
<title>r_asg_set</title>
<polygon fill="#342612" stroke="#d29922" stroke-width="1.2" points="1382.26,-348.5 1335.75,-327 1382.26,-305.5 1428.77,-327 1382.26,-348.5"/>
<text text-anchor="middle" x="1382.26" y="-324.5" font-family="DejaVu Sans Mono" font-size="10.00" fill="#c9d1d9">assigns</text>
</g>
<!-- assignments&#45;&#45;r_asg_set -->
<g id="edge42" class="edge">
<title>assignments&#45;&#45;r_asg_set</title>
<path fill="none" stroke="#8b949e" d="M1078.49,-359.61C1145.85,-352.36 1279.39,-337.97 1344.22,-330.99"/>
<text text-anchor="middle" x="1081.49" y="-352.41" font-family="DejaVu Sans Mono" font-size="9.00" fill="#8b949e">N</text>
</g>
<!-- assignment_targets -->
<g id="node33" class="node">
<title>assignment_targets</title>
<polygon fill="#1c2a22" stroke="#3fb950" stroke-width="1.5" points="561.39,-491 436.39,-491 436.39,-455 561.39,-455 561.39,-491"/>
<text text-anchor="middle" x="498.89" y="-470.5" font-family="DejaVu Sans Mono" font-size="10.00" fill="#c9d1d9">assignment_targets</text>
</g>
<!-- r_tgt_asg -->
<g id="node48" class="node">
<title>r_tgt_asg</title>
<polygon fill="#342612" stroke="#d29922" stroke-width="1.2" points="736.81,-453.5 690.3,-432 736.81,-410.5 783.32,-432 736.81,-453.5"/>
<text text-anchor="middle" x="736.81" y="-429.5" font-family="DejaVu Sans Mono" font-size="10.00" fill="#c9d1d9">targets</text>
</g>
<!-- assignment_targets&#45;&#45;r_tgt_asg -->
<g id="edge44" class="edge">
<title>assignment_targets&#45;&#45;r_tgt_asg</title>
<path fill="none" stroke="#8b949e" d="M561.56,-462.28C606.62,-454.45 665.98,-444.14 702.49,-437.79"/>
<text text-anchor="middle" x="564.56" y="-455.08" font-family="DejaVu Sans Mono" font-size="9.00" fill="#8b949e">N</text>
</g>
<!-- r_tgt_stu -->
<g id="node49" class="node">
<title>r_tgt_stu</title>
<polygon fill="#342612" stroke="#d29922" stroke-width="1.2" points="736.81,-536.5 675.92,-515 736.81,-493.5 797.7,-515 736.81,-536.5"/>
<text text-anchor="middle" x="736.81" y="-512.5" font-family="DejaVu Sans Mono" font-size="10.00" fill="#c9d1d9">to_student</text>
</g>
<!-- assignment_targets&#45;&#45;r_tgt_stu -->
<g id="edge46" class="edge">
<title>assignment_targets&#45;&#45;r_tgt_stu</title>
<path fill="none" stroke="#8b949e" d="M561.56,-483.98C604.02,-491.54 659.19,-501.36 695.96,-507.91"/>
<text text-anchor="middle" x="564.56" y="-476.78" font-family="DejaVu Sans Mono" font-size="9.00" fill="#8b949e">N</text>
</g>
<!-- progress -->
<g id="node34" class="node">
<title>progress</title>
<polygon fill="#1c2a22" stroke="#3fb950" stroke-width="1.5" points="531.39,-827 466.39,-827 466.39,-791 531.39,-791 531.39,-827"/>
<text text-anchor="middle" x="498.89" y="-806.5" font-family="DejaVu Sans Mono" font-size="10.00" fill="#c9d1d9">progress</text>
</g>
<!-- r_prog_stu -->
<g id="node50" class="node">
<title>r_prog_stu</title>
<polygon fill="#342612" stroke="#d29922" stroke-width="1.2" points="736.81,-828.5 695.26,-807 736.81,-785.5 778.36,-807 736.81,-828.5"/>
<text text-anchor="middle" x="736.81" y="-804.5" font-family="DejaVu Sans Mono" font-size="10.00" fill="#c9d1d9">tracks</text>
</g>
<!-- progress&#45;&#45;r_prog_stu -->
<g id="edge48" class="edge">
<title>progress&#45;&#45;r_prog_stu</title>
<path fill="none" stroke="#8b949e" d="M531.7,-808.73C574.22,-808.37 649.55,-807.73 695.84,-807.34"/>
<text text-anchor="middle" x="534.7" y="-801.53" font-family="DejaVu Sans Mono" font-size="9.00" fill="#8b949e">N</text>
</g>
<!-- r_prog_had -->
<g id="node59" class="node">
<title>r_prog_had</title>
<polygon fill="#2d1617" stroke="#f85149" stroke-width="1.4" points="736.81,-906 677.6,-888 736.81,-870 796.02,-888 736.81,-906"/>
<text text-anchor="middle" x="736.81" y="-885.5" font-family="DejaVu Sans Mono" font-size="10.00" fill="#c9d1d9">on_hadith</text>
</g>
<!-- progress&#45;&#45;r_prog_had -->
<g id="edge66" class="edge">
<title>progress&#45;&#45;r_prog_had</title>
<path fill="none" stroke="#f85149" d="M531.7,-819.65C578.12,-835.2 663.64,-863.84 707.8,-878.62"/>
<text text-anchor="middle" x="534.7" y="-812.45" font-family="DejaVu Sans Mono" font-size="9.00" fill="#ff7b72">N</text>
</g>
<!-- review_sessions -->
<g id="node35" class="node">
<title>review_sessions</title>
<polygon fill="#1c2a22" stroke="#3fb950" stroke-width="1.5" points="552.39,-320 445.39,-320 445.39,-284 552.39,-284 552.39,-320"/>
<text text-anchor="middle" x="498.89" y="-299.5" font-family="DejaVu Sans Mono" font-size="10.00" fill="#c9d1d9">review_sessions</text>
</g>
<!-- r_rs_stu -->
<g id="node51" class="node">
<title>r_rs_stu</title>
<polygon fill="#342612" stroke="#d29922" stroke-width="1.2" points="736.81,-370.5 704.31,-349 736.81,-327.5 769.31,-349 736.81,-370.5"/>
<text text-anchor="middle" x="736.81" y="-346.5" font-family="DejaVu Sans Mono" font-size="10.00" fill="#c9d1d9">by</text>
</g>
<!-- review_sessions&#45;&#45;r_rs_stu -->
<g id="edge50" class="edge">
<title>review_sessions&#45;&#45;r_rs_stu</title>
<path fill="none" stroke="#8b949e" d="M552.54,-312.49C602.11,-322.36 674.14,-336.71 711.42,-344.14"/>
<text text-anchor="middle" x="555.54" y="-305.29" font-family="DejaVu Sans Mono" font-size="9.00" fill="#8b949e">N</text>
</g>
<!-- r_rs_rev -->
<g id="node52" class="node">
<title>r_rs_rev</title>
<polygon fill="#342612" stroke="#d29922" stroke-width="1.2" points="736.81,-244.5 671.46,-223 736.81,-201.5 802.16,-223 736.81,-244.5"/>
<text text-anchor="middle" x="736.81" y="-220.5" font-family="DejaVu Sans Mono" font-size="10.00" fill="#c9d1d9">reviewed_by</text>
</g>
<!-- review_sessions&#45;&#45;r_rs_rev -->
<g id="edge52" class="edge">
<title>review_sessions&#45;&#45;r_rs_rev</title>
<path fill="none" stroke="#8b949e" d="M552.54,-284.37C598.85,-268.86 664.77,-246.79 703.63,-233.77"/>
<text text-anchor="middle" x="549.54" y="-277.17" font-family="DejaVu Sans Mono" font-size="9.00" fill="#8b949e">N</text>
</g>
<!-- r_rs_circ -->
<g id="node53" class="node">
<title>r_rs_circ</title>
<polygon fill="#342612" stroke="#d29922" stroke-width="1.2" points="1210.2,-469.5 1154.27,-448 1210.2,-426.5 1266.13,-448 1210.2,-469.5"/>
<text text-anchor="middle" x="1210.2" y="-445.5" font-family="DejaVu Sans Mono" font-size="10.00" fill="#c9d1d9">in_circle</text>
</g>
<!-- review_sessions&#45;&#45;r_rs_circ -->
<g id="edge54" class="edge">
<title>review_sessions&#45;&#45;r_rs_circ</title>
<path fill="none" stroke="#8b949e" d="M552.59,-295.46C613.79,-289.6 717.21,-285.04 802.23,-308 885.21,-330.4 890.47,-372.59 971.23,-402 1036.47,-425.76 1116.47,-438 1165.1,-443.7"/>
<text text-anchor="middle" x="555.59" y="-288.26" font-family="DejaVu Sans Mono" font-size="9.00" fill="#8b949e">N</text>
</g>
<!-- review_items -->
<g id="node36" class="node">
<title>review_items</title>
<polygon fill="#1c2a22" stroke="#3fb950" stroke-width="1.5" points="105,-733 16,-733 16,-697 105,-697 105,-733"/>
<text text-anchor="middle" x="60.5" y="-712.5" font-family="DejaVu Sans Mono" font-size="10.00" fill="#c9d1d9">review_items</text>
</g>
<!-- r_ri_sess -->
<g id="node54" class="node">
<title>r_ri_sess</title>
<polygon fill="#342612" stroke="#d29922" stroke-width="1.2" points="270.69,-637.5 209.81,-616 270.69,-594.5 331.58,-616 270.69,-637.5"/>
<text text-anchor="middle" x="270.69" y="-613.5" font-family="DejaVu Sans Mono" font-size="10.00" fill="#c9d1d9">in_session</text>
</g>
<!-- review_items&#45;&#45;r_ri_sess -->
<g id="edge56" class="edge">
<title>review_items&#45;&#45;r_ri_sess</title>
<path fill="none" stroke="#8b949e" d="M99.69,-696.84C141.59,-676.91 207.71,-645.47 243.91,-628.26"/>
<text text-anchor="middle" x="96.69" y="-689.64" font-family="DejaVu Sans Mono" font-size="9.00" fill="#8b949e">N</text>
</g>
<!-- r_ri_had -->
<g id="node60" class="node">
<title>r_ri_had</title>
<polygon fill="#2d1617" stroke="#f85149" stroke-width="1.4" points="1382.26,-1717 1328.04,-1699 1382.26,-1681 1436.49,-1699 1382.26,-1717"/>
<text text-anchor="middle" x="1382.26" y="-1696.5" font-family="DejaVu Sans Mono" font-size="10.00" fill="#c9d1d9">reviewed</text>
</g>
<!-- review_items&#45;&#45;r_ri_had -->
<g id="edge68" class="edge">
<title>review_items&#45;&#45;r_ri_had</title>
<path fill="none" stroke="#f85149" d="M62.28,-733.23C67.69,-857.16 101.25,-1573.52 157,-1651 189.11,-1695.62 214.72,-1702 269.69,-1702 269.69,-1702 269.69,-1702 1037.73,-1702 1141.51,-1702 1262.92,-1700.61 1330.05,-1699.73"/>
<text text-anchor="middle" x="59.28" y="-736.03" font-family="DejaVu Sans Mono" font-size="9.00" fill="#ff7b72">N</text>
</g>
<!-- student_stats -->
<g id="node37" class="node">
<title>student_stats</title>
<polygon fill="#1c2a22" stroke="#3fb950" stroke-width="1.5" points="546.39,-616 451.39,-616 451.39,-580 546.39,-580 546.39,-616"/>
<text text-anchor="middle" x="498.89" y="-595.5" font-family="DejaVu Sans Mono" font-size="10.00" fill="#c9d1d9">student_stats</text>
</g>
<!-- r_stats -->
<g id="node55" class="node">
<title>r_stats</title>
<polygon fill="#342612" stroke="#d29922" stroke-width="1.2" points="736.81,-619.5 675.92,-598 736.81,-576.5 797.7,-598 736.81,-619.5"/>
<text text-anchor="middle" x="736.81" y="-595.5" font-family="DejaVu Sans Mono" font-size="10.00" fill="#c9d1d9">summarizes</text>
</g>
<!-- student_stats&#45;&#45;r_stats -->
<g id="edge58" class="edge">
<title>student_stats&#45;&#45;r_stats</title>
<path fill="none" stroke="#8b949e" d="M546.5,-598C583.56,-598 635.68,-598 675.85,-598"/>
<text text-anchor="middle" x="549.5" y="-590.8" font-family="DejaVu Sans Mono" font-size="9.00" fill="#8b949e">1</text>
</g>
<!-- notes -->
<g id="node38" class="node">
<title>notes</title>
<polygon fill="#1c2a22" stroke="#3fb950" stroke-width="1.5" points="87.5,-652 33.5,-652 33.5,-616 87.5,-616 87.5,-652"/>
<text text-anchor="middle" x="60.5" y="-631.5" font-family="DejaVu Sans Mono" font-size="10.00" fill="#c9d1d9">notes</text>
</g>
<!-- r_note_usr -->
<g id="node56" class="node">
<title>r_note_usr</title>
<polygon fill="#342612" stroke="#d29922" stroke-width="1.2" points="270.69,-459.5 233.6,-438 270.69,-416.5 307.79,-438 270.69,-459.5"/>
<text text-anchor="middle" x="270.69" y="-435.5" font-family="DejaVu Sans Mono" font-size="10.00" fill="#c9d1d9">wrote</text>
</g>
<!-- notes&#45;&#45;r_note_usr -->
<g id="edge60" class="edge">
<title>notes&#45;&#45;r_note_usr</title>
<path fill="none" stroke="#8b949e" d="M80.71,-615.91C122.29,-576.77 219.75,-485.01 255.89,-450.99"/>
<text text-anchor="middle" x="77.71" y="-608.71" font-family="DejaVu Sans Mono" font-size="9.00" fill="#8b949e">N</text>
</g>
<!-- r_note_had -->
<g id="node61" class="node">
<title>r_note_had</title>
<polygon fill="#2d1617" stroke="#f85149" stroke-width="1.4" points="1382.26,-1637 1343.01,-1619 1382.26,-1601 1421.52,-1619 1382.26,-1637"/>
<text text-anchor="middle" x="1382.26" y="-1616.5" font-family="DejaVu Sans Mono" font-size="10.00" fill="#c9d1d9">about</text>
</g>
<!-- notes&#45;&#45;r_note_had -->
<g id="edge70" class="edge">
<title>notes&#45;&#45;r_note_had</title>
<path fill="none" stroke="#f85149" d="M85.24,-652.38C92.67,-659.32 100.18,-667.78 105,-677 203.62,-865.49 56.97,-1620 269.69,-1620 269.69,-1620 269.69,-1620 1037.73,-1620 1148.81,-1620 1280.1,-1619.47 1343.39,-1619.18"/>
<text text-anchor="middle" x="82.24" y="-655.18" font-family="DejaVu Sans Mono" font-size="9.00" fill="#ff7b72">N</text>
</g>
<!-- audit_log -->
<g id="node39" class="node">
<title>audit_log</title>
<polygon fill="#1c2a22" stroke="#3fb950" stroke-width="1.5" points="96,-158 25,-158 25,-122 96,-122 96,-158"/>
<text text-anchor="middle" x="60.5" y="-137.5" font-family="DejaVu Sans Mono" font-size="10.00" fill="#c9d1d9">audit_log</text>
</g>
<!-- r_audit_usr -->
<g id="node57" class="node">
<title>r_audit_usr</title>
<polygon fill="#342612" stroke="#d29922" stroke-width="1.2" points="270.69,-161.5 209.81,-140 270.69,-118.5 331.58,-140 270.69,-161.5"/>
<text text-anchor="middle" x="270.69" y="-137.5" font-family="DejaVu Sans Mono" font-size="10.00" fill="#c9d1d9">changed_by</text>
</g>
<!-- audit_log&#45;&#45;r_audit_usr -->
<g id="edge62" class="edge">
<title>audit_log&#45;&#45;r_audit_usr</title>
<path fill="none" stroke="#8b949e" d="M96.35,-140C127.25,-140 173.07,-140 209.83,-140"/>
<text text-anchor="middle" x="99.35" y="-132.8" font-family="DejaVu Sans Mono" font-size="9.00" fill="#8b949e">N</text>
</g>
<!-- isa_users&#45;&#45;students -->
<g id="edge27" class="edge">
<title>isa_users&#45;&#45;students</title>
<path fill="none" stroke="#e3b341" stroke-width="2" d="M752.56,-147.39C766.45,-154.83 787.29,-167.3 802.23,-182 911.21,-289.26 999.17,-454.76 1026.73,-509.63"/>
</g>
<!-- isa_users&#45;&#45;teachers -->
<g id="edge28" class="edge">
<title>isa_users&#45;&#45;teachers</title>
<path fill="none" stroke="#e3b341" stroke-width="2" d="M752.58,-147.34C798.61,-170.2 940.14,-240.51 1003.95,-272.21"/>
</g>
<!-- isa_users&#45;&#45;admins -->
<g id="edge29" class="edge">
<title>isa_users&#45;&#45;admins</title>
<path fill="none" stroke="#e3b341" stroke-width="2" d="M756,-144.4C806.78,-156.67 950.27,-191.35 1009.58,-205.68"/>
</g>
<!-- r_teaches&#45;&#45;circles -->
<g id="edge31" class="edge">
<title>r_teaches&#45;&#45;circles</title>
<path fill="none" stroke="#8b949e" d="M1403.94,-255.68C1416.8,-263.44 1433.33,-274.33 1446.37,-286 1501.02,-334.94 1553.24,-405.18 1576.39,-437.92"/>
<text text-anchor="middle" x="1573.39" y="-430.72" font-family="DejaVu Sans Mono" font-size="9.00" fill="#8b949e">N</text>
</g>
<!-- r_enr_circ&#45;&#45;circles -->
<g id="edge33" class="edge">
<title>r_enr_circ&#45;&#45;circles</title>
<path fill="none" stroke="#8b949e" d="M910.66,-633.98C1014.98,-606.61 1444.62,-493.85 1560.15,-463.54"/>
<text text-anchor="middle" x="1557.15" y="-466.34" font-family="DejaVu Sans Mono" font-size="9.00" fill="#8b949e">1</text>
</g>
<!-- r_enr_stu&#45;&#45;students -->
<g id="edge35" class="edge">
<title>r_enr_stu&#45;&#45;students</title>
<path fill="none" stroke="#8b949e" d="M757.28,-668.9C780.15,-654.85 819.41,-631.27 854.23,-613 905.84,-585.92 967.61,-557.89 1004.16,-541.74"/>
<text text-anchor="middle" x="1001.16" y="-544.54" font-family="DejaVu Sans Mono" font-size="9.00" fill="#8b949e">1</text>
</g>
<!-- r_set_owner&#45;&#45;study_sets -->
<g id="edge37" class="edge">
<title>r_set_owner&#45;&#45;study_sets</title>
<path fill="none" stroke="#8b949e" d="M917.1,-129.41C933.1,-130.18 953.26,-131.15 971.23,-132 1191.05,-142.43 1454.87,-154.75 1551.27,-159.25"/>
<text text-anchor="middle" x="1548.27" y="-162.05" font-family="DejaVu Sans Mono" font-size="9.00" fill="#8b949e">N</text>
</g>
<!-- r_setitem_set&#45;&#45;study_sets -->
<g id="edge39" class="edge">
<title>r_setitem_set&#45;&#45;study_sets</title>
<path fill="none" stroke="#8b949e" d="M1408.89,-105.85C1444.63,-116.8 1509.69,-136.74 1551.02,-149.4"/>
<text text-anchor="middle" x="1548.02" y="-142.2" font-family="DejaVu Sans Mono" font-size="9.00" fill="#8b949e">1</text>
</g>
<!-- r_asg_circ&#45;&#45;circles -->
<g id="edge41" class="edge">
<title>r_asg_circ&#45;&#45;circles</title>
<path fill="none" stroke="#8b949e" d="M1420.02,-418.22C1460.22,-427.22 1523.77,-441.44 1560.37,-449.62"/>
<text text-anchor="middle" x="1557.37" y="-442.42" font-family="DejaVu Sans Mono" font-size="9.00" fill="#8b949e">1</text>
</g>
<!-- r_asg_set&#45;&#45;study_sets -->
<g id="edge43" class="edge">
<title>r_asg_set&#45;&#45;study_sets</title>
<path fill="none" stroke="#8b949e" d="M1403.37,-314.97C1416.02,-307.15 1432.51,-296.49 1446.37,-286 1492.8,-250.84 1543.15,-204.54 1569.8,-179.32"/>
<text text-anchor="middle" x="1566.8" y="-182.12" font-family="DejaVu Sans Mono" font-size="9.00" fill="#8b949e">1</text>
</g>
<!-- r_tgt_asg&#45;&#45;assignments -->
<g id="edge45" class="edge">
<title>r_tgt_asg&#45;&#45;assignments</title>
<path fill="none" stroke="#8b949e" d="M768.29,-425.04C822.27,-412.72 934.67,-387.07 995.14,-373.26"/>
<text text-anchor="middle" x="992.14" y="-366.06" font-family="DejaVu Sans Mono" font-size="9.00" fill="#8b949e">1</text>
</g>
<!-- r_tgt_stu&#45;&#45;students -->
<g id="edge47" class="edge">
<title>r_tgt_stu&#45;&#45;students</title>
<path fill="none" stroke="#8b949e" d="M791.42,-517.34C853.4,-520.04 953.39,-524.41 1004.08,-526.62"/>
<text text-anchor="middle" x="1001.08" y="-519.42" font-family="DejaVu Sans Mono" font-size="9.00" fill="#8b949e">1</text>
</g>
<!-- r_prog_stu&#45;&#45;students -->
<g id="edge49" class="edge">
<title>r_prog_stu&#45;&#45;students</title>
<path fill="none" stroke="#8b949e" d="M757.57,-796.22C792.61,-776.52 866.86,-732.1 919.23,-682 964.53,-638.66 1005.82,-576.47 1024.78,-546.09"/>
<text text-anchor="middle" x="1021.78" y="-548.89" font-family="DejaVu Sans Mono" font-size="9.00" fill="#8b949e">1</text>
</g>
<!-- r_rs_stu&#45;&#45;students -->
<g id="edge51" class="edge">
<title>r_rs_stu&#45;&#45;students</title>
<path fill="none" stroke="#8b949e" d="M754.68,-359.14C803.18,-388.28 943.47,-472.57 1005.56,-509.87"/>
<text text-anchor="middle" x="1002.56" y="-502.67" font-family="DejaVu Sans Mono" font-size="9.00" fill="#8b949e">1</text>
</g>
<!-- r_rs_rev&#45;&#45;teachers -->
<g id="edge53" class="edge">
<title>r_rs_rev&#45;&#45;teachers</title>
<path fill="none" stroke="#8b949e" d="M776.76,-231.5C836.38,-244.51 949.12,-269.1 1004.05,-281.09"/>
<text text-anchor="middle" x="993.05" y="-273.89" font-family="DejaVu Sans Mono" font-size="9.00" fill="#8b949e">0..1</text>
</g>
<!-- r_rs_circ&#45;&#45;circles -->
<g id="edge55" class="edge">
<title>r_rs_circ&#45;&#45;circles</title>
<path fill="none" stroke="#8b949e" d="M1260.72,-450.09C1278.79,-450.78 1299.4,-451.51 1318.16,-452 1406.26,-454.3 1510.53,-455.38 1560.02,-455.79"/>
<text text-anchor="middle" x="1557.02" y="-458.59" font-family="DejaVu Sans Mono" font-size="9.00" fill="#8b949e">1</text>
</g>
<!-- r_ri_sess&#45;&#45;review_sessions -->
<g id="edge57" class="edge">
<title>r_ri_sess&#45;&#45;review_sessions</title>
<path fill="none" stroke="#8b949e" d="M283.85,-599.12C322.85,-544.98 444.58,-376 484.83,-320.13"/>
<text text-anchor="middle" x="481.83" y="-322.93" font-family="DejaVu Sans Mono" font-size="9.00" fill="#8b949e">1</text>
</g>
<!-- r_stats&#45;&#45;students -->
<g id="edge59" class="edge">
<title>r_stats&#45;&#45;students</title>
<path fill="none" stroke="#8b949e" d="M774.04,-589.49C832.82,-575.68 947.97,-548.62 1003.83,-535.5"/>
<text text-anchor="middle" x="1000.83" y="-528.3" font-family="DejaVu Sans Mono" font-size="9.00" fill="#8b949e">1</text>
</g>
<!-- r_note_usr&#45;&#45;users -->
<g id="edge61" class="edge">
<title>r_note_usr&#45;&#45;users</title>
<path fill="none" stroke="#8b949e" d="M282.91,-423.22C320.62,-373.54 442.75,-212.64 484.08,-158.2"/>
<text text-anchor="middle" x="481.08" y="-161" font-family="DejaVu Sans Mono" font-size="9.00" fill="#8b949e">1</text>
</g>
<!-- r_audit_usr&#45;&#45;users -->
<g id="edge63" class="edge">
<title>r_audit_usr&#45;&#45;users</title>
<path fill="none" stroke="#8b949e" d="M331.42,-140C376.97,-140 437.5,-140 471.61,-140"/>
<text text-anchor="middle" x="460.61" y="-132.8" font-family="DejaVu Sans Mono" font-size="9.00" fill="#8b949e">0..1</text>
</g>
<!-- r_setitem_had&#45;&#45;hadiths -->
<g id="edge65" class="edge">
<title>r_setitem_had&#45;&#45;hadiths</title>
<path fill="none" stroke="#f85149" d="M1404.88,-25.78C1419.18,-32.14 1436.98,-42.61 1446.37,-58 1582.82,-281.84 1498.4,-976.26 1551.37,-1233 1558.52,-1267.69 1572.71,-1306.58 1581.44,-1328.79"/>
<text text-anchor="middle" x="1578.44" y="-1321.59" font-family="DejaVu Sans Mono" font-size="9.00" fill="#ff7b72">1</text>
</g>
<!-- r_prog_had&#45;&#45;hadiths -->
<g id="edge67" class="edge">
<title>r_prog_had&#45;&#45;hadiths</title>
<path fill="none" stroke="#f85149" d="M783.7,-884.25C923.72,-873.77 1342.27,-849.86 1446.37,-929 1450.63,-932.24 1556.3,-1249.13 1582.85,-1328.92"/>
<text text-anchor="middle" x="1579.85" y="-1321.72" font-family="DejaVu Sans Mono" font-size="9.00" fill="#ff7b72">1</text>
</g>
<!-- r_ri_had&#45;&#45;hadiths -->
<g id="edge69" class="edge">
<title>r_ri_had&#45;&#45;hadiths</title>
<path fill="none" stroke="#f85149" d="M1404.94,-1688.31C1418.2,-1680.94 1434.78,-1670.12 1446.37,-1657 1532.16,-1559.89 1484.61,-1496.07 1551.37,-1385 1555.66,-1377.85 1561.57,-1371.03 1567.43,-1365.19"/>
<text text-anchor="middle" x="1564.43" y="-1367.99" font-family="DejaVu Sans Mono" font-size="9.00" fill="#ff7b72">1</text>
</g>
<!-- r_note_had&#45;&#45;hadiths -->
<g id="edge71" class="edge">
<title>r_note_had&#45;&#45;hadiths</title>
<path fill="none" stroke="#f85149" d="M1411.13,-1614.2C1423.09,-1610.98 1436.54,-1605.68 1446.37,-1597 1525.19,-1527.42 1490.33,-1470.62 1551.37,-1385 1556.32,-1378.06 1562.55,-1371.2 1568.51,-1365.26"/>
<text text-anchor="middle" x="1565.51" y="-1358.06" font-family="DejaVu Sans Mono" font-size="9.00" fill="#ff7b72">1</text>
</g>
</g>
</svg>
