<?xml version="1.0" encoding="UTF-8" standalone="no"?>
<!DOCTYPE svg PUBLIC "-//W3C//DTD SVG 1.1//EN"
 "http://www.w3.org/Graphics/SVG/1.1/DTD/svg11.dtd">
<!-- Generated by graphviz version 16.1.0 (0)
 -->
<!-- Title: ERD_Biblio Pages: 1 -->
<svg width="890pt" height="1337pt"
 viewBox="0.00 0.00 890.00 1337.00" xmlns="http://www.w3.org/2000/svg" xmlns:xlink="http://www.w3.org/1999/xlink">
<g id="graph0" class="graph" transform="scale(1 1) rotate(0) translate(4 1332.52)">
<title>ERD_Biblio</title>
<polygon fill="#0d1117" stroke="none" points="-4,4 -4,-1332.52 886.11,-1332.52 886.11,4 -4,4"/>
<!-- Collection -->
<g id="node1" class="node">
<title>Collection</title>
<polygon fill="#21262d" stroke="#58a6ff" stroke-width="1.8" points="529.83,-1164.05 446.33,-1164.05 446.33,-1128.05 529.83,-1128.05 529.83,-1164.05"/>
<text xml:space="preserve" text-anchor="middle" x="488.08" y="-1142.35" font-family="DejaVu Sans Mono" font-size="11.00" fill="#e6edf3">Collection</text>
</g>
<!-- Contains_CollCh -->
<g id="node6" class="node">
<title>Contains_CollCh</title>
<polygon fill="#342612" stroke="#d29922" stroke-width="1.4" points="342.13,-1051.23 286.75,-1033.23 342.13,-1015.23 397.51,-1033.23 342.13,-1051.23"/>
<text xml:space="preserve" text-anchor="middle" x="342.13" y="-1030.1" font-family="DejaVu Sans Mono" font-size="10.00" fill="#e6edf3">Contains</text>
</g>
<!-- Collection&#45;&gt;Contains_CollCh -->
<g id="edge25" class="edge">
<title>Collection&#45;&gt;Contains_CollCh</title>
<path fill="none" stroke="#8b949e" stroke-width="1.4" d="M453.65,-1119.43C423.81,-1096.37 381.9,-1063.97 358.9,-1046.19"/>
<polygon fill="#8b949e" stroke="#8b949e" stroke-width="1.4" points="450.92,-1122.19 461.98,-1125.87 455.63,-1116.1 450.92,-1122.19"/>
</g>
<!-- CollectedIn -->
<g id="node10" class="node">
<title>CollectedIn</title>
<polygon fill="#342612" stroke="#d29922" stroke-width="1.4" points="590.57,-1016.05 514.42,-998.05 590.57,-980.05 666.71,-998.05 590.57,-1016.05"/>
<text xml:space="preserve" text-anchor="middle" x="590.57" y="-994.93" font-family="DejaVu Sans Mono" font-size="10.00" fill="#e6edf3">Collected In</text>
</g>
<!-- Collection&#45;&gt;CollectedIn -->
<g id="edge27" class="edge">
<title>Collection&#45;&gt;CollectedIn</title>
<path fill="none" stroke="#8b949e" stroke-width="1.4" d="M508.37,-1116.76C529.73,-1085.9 562.59,-1038.45 579.57,-1013.94"/>
<polygon fill="#8b949e" stroke="#8b949e" stroke-width="1.4" points="505.37,-1114.33 502.27,-1125.56 511.7,-1118.71 505.37,-1114.33"/>
</g>
<!-- collection_id -->
<g id="node12" class="node">
<title>collection_id</title>
<ellipse fill="#161b22" stroke="#6e7681" cx="341.86" cy="-1258.86" rx="49.85" ry="18"/>
<text xml:space="preserve" text-anchor="start" x="307.73" y="-1256.93" font-family="DejaVu Sans Mono" text-decoration="underline" font-size="9.00" fill="#8b949e">collection_id</text>
</g>
<!-- Collection&#45;&gt;collection_id -->
<g id="edge1" class="edge">
<title>Collection&#45;&gt;collection_id</title>
<path fill="none" stroke="#e3b341" stroke-width="1.4" d="M463.61,-1164.93C435.48,-1186.63 389.77,-1221.9 363.08,-1242.48"/>
</g>
<!-- slug -->
<g id="node13" class="node">
<title>slug</title>
<ellipse fill="#161b22" stroke="#6e7681" cx="641.99" cy="-1253.17" rx="27" ry="18"/>
<text xml:space="preserve" text-anchor="middle" x="641.99" y="-1250.25" font-family="DejaVu Sans Mono" font-size="9.00" fill="#8b949e">slug</text>
</g>
<!-- Collection&#45;&gt;slug -->
<g id="edge2" class="edge">
<title>Collection&#45;&gt;slug</title>
<path fill="none" stroke="#484f58" stroke-dasharray="1,5" d="M514.89,-1164.71C545.9,-1186.29 596.14,-1221.26 623.23,-1240.12"/>
</g>
<!-- title_ar -->
<g id="node14" class="node">
<title>title_ar</title>
<ellipse fill="#161b22" stroke="#6e7681" cx="553.73" cy="-1305.98" rx="34.32" ry="18"/>
<text xml:space="preserve" text-anchor="middle" x="553.73" y="-1303.06" font-family="DejaVu Sans Mono" font-size="9.00" fill="#8b949e">title_ar</text>
</g>
<!-- Collection&#45;&gt;title_ar -->
<g id="edge3" class="edge">
<title>Collection&#45;&gt;title_ar</title>
<path fill="none" stroke="#484f58" stroke-dasharray="1,5" d="M495.74,-1164.71C508.46,-1195.69 533.77,-1257.36 546.32,-1287.93"/>
</g>
<!-- title_en -->
<g id="node15" class="node">
<title>title_en</title>
<ellipse fill="#161b22" stroke="#6e7681" cx="442.08" cy="-1310.52" rx="34.32" ry="18"/>
<text xml:space="preserve" text-anchor="middle" x="442.08" y="-1307.59" font-family="DejaVu Sans Mono" font-size="9.00" fill="#8b949e">title_en</text>
</g>
<!-- Collection&#45;&gt;title_en -->
<g id="edge4" class="edge">
<title>Collection&#45;&gt;title_en</title>
<path fill="none" stroke="#484f58" stroke-dasharray="1,5" d="M482.81,-1164.92C473.88,-1196.81 455.94,-1260.97 447.15,-1292.37"/>
</g>
<!-- Kitab -->
<g id="node2" class="node">
<title>Kitab</title>
<polygon fill="#21262d" stroke="#58a6ff" stroke-width="1.8" points="319.98,-868.31 265.98,-868.31 265.98,-832.31 319.98,-832.31 319.98,-868.31"/>
<text xml:space="preserve" text-anchor="middle" x="292.98" y="-846.61" font-family="DejaVu Sans Mono" font-size="11.00" fill="#e6edf3">Kitab</text>
</g>
<!-- Kitab&#45;&gt;Contains_CollCh -->
<g id="edge26" class="edge">
<title>Kitab&#45;&gt;Contains_CollCh</title>
<path fill="none" stroke="#8b949e" stroke-width="1.4" d="M299.02,-868.93C308.61,-904.63 329.26,-981.47 338.48,-1015.8"/>
<path fill="none" stroke="#8b949e" stroke-width="1.4" d="M297.09,-869.45C306.68,-905.14 327.33,-981.99 336.55,-1016.31"/>
</g>
<!-- Divides -->
<g id="node7" class="node">
<title>Divides</title>
<polygon fill="#342612" stroke="#d29922" stroke-width="1.4" points="298.98,-679.62 248.79,-661.62 298.98,-643.62 349.17,-661.62 298.98,-679.62"/>
<text xml:space="preserve" text-anchor="middle" x="298.98" y="-658.49" font-family="DejaVu Sans Mono" font-size="10.00" fill="#e6edf3">Divides</text>
</g>
<!-- Kitab&#45;&gt;Divides -->
<g id="edge29" class="edge">
<title>Kitab&#45;&gt;Divides</title>
<path fill="none" stroke="#8b949e" stroke-width="1.4" d="M293.99,-818.46C295.25,-778.74 297.37,-712.16 298.39,-680.04"/>
<polygon fill="#8b949e" stroke="#8b949e" stroke-width="1.4" points="290.14,-818.29 293.64,-829.41 297.84,-818.53 290.14,-818.29"/>
</g>
<!-- FiledIn -->
<g id="node9" class="node">
<title>FiledIn</title>
<polygon fill="#342612" stroke="#d29922" stroke-width="1.4" points="467.58,-850.73 412.2,-832.73 467.58,-814.73 522.96,-832.73 467.58,-850.73"/>
<text xml:space="preserve" text-anchor="middle" x="467.58" y="-829.61" font-family="DejaVu Sans Mono" font-size="10.00" fill="#e6edf3">Filed In</text>
</g>
<!-- Kitab&#45;&gt;FiledIn -->
<g id="edge33" class="edge">
<title>Kitab&#45;&gt;FiledIn</title>
<path fill="none" stroke="#8b949e" stroke-width="1.4" d="M333.53,-846.22C360.55,-843.51 396.04,-839.93 423.71,-837.15"/>
<polygon fill="#8b949e" stroke="#8b949e" stroke-width="1.4" points="333.31,-842.38 322.75,-847.31 334.08,-850.04 333.31,-842.38"/>
</g>
<!-- kitab_id -->
<g id="node16" class="node">
<title>kitab_id</title>
<ellipse fill="#161b22" stroke="#6e7681" cx="104.27" cy="-849.02" rx="34.32" ry="18"/>
<text xml:space="preserve" text-anchor="start" x="83.27" y="-847.1" font-family="DejaVu Sans Mono" text-decoration="underline" font-size="9.00" fill="#8b949e">kitab_id</text>
</g>
<!-- Kitab&#45;&gt;kitab_id -->
<g id="edge5" class="edge">
<title>Kitab&#45;&gt;kitab_id</title>
<path fill="none" stroke="#e3b341" stroke-width="1.4" d="M265.13,-850.12C231.61,-849.89 175.29,-849.5 138.97,-849.26"/>
</g>
<!-- kitab_num -->
<g id="node17" class="node">
<title>kitab_num</title>
<ellipse fill="#161b22" stroke="#6e7681" cx="147.39" cy="-780.8" rx="37.42" ry="18"/>
<text xml:space="preserve" text-anchor="middle" x="147.39" y="-777.88" font-family="DejaVu Sans Mono" font-size="9.00" fill="#8b949e">kitab_num</text>
</g>
<!-- Kitab&#45;&gt;kitab_num -->
<g id="edge6" class="edge">
<title>Kitab&#45;&gt;kitab_num</title>
<path fill="none" stroke="#484f58" stroke-dasharray="1,5" d="M265.25,-837.07C239.02,-824.54 199.91,-805.87 174.03,-793.52"/>
</g>
<!-- k_title_en -->
<g id="node18" class="node">
<title>k_title_en</title>
<ellipse fill="#161b22" stroke="#6e7681" cx="195.99" cy="-984.17" rx="34.32" ry="18"/>
<text xml:space="preserve" text-anchor="middle" x="195.99" y="-981.25" font-family="DejaVu Sans Mono" font-size="9.00" fill="#8b949e">title_en</text>
</g>
<!-- Kitab&#45;&gt;k_title_en -->
<g id="edge7" class="edge">
<title>Kitab&#45;&gt;k_title_en</title>
<path fill="none" stroke="#484f58" stroke-dasharray="1,5" d="M279.29,-869.2C260.38,-895.29 226.57,-941.96 208.38,-967.07"/>
</g>
<!-- k_title_ar -->
<g id="node19" class="node">
<title>k_title_ar</title>
<ellipse fill="#161b22" stroke="#6e7681" cx="129.29" cy="-932.13" rx="34.32" ry="18"/>
<text xml:space="preserve" text-anchor="middle" x="129.29" y="-929.21" font-family="DejaVu Sans Mono" font-size="9.00" fill="#8b949e">title_ar</text>
</g>
<!-- Kitab&#45;&gt;k_title_ar -->
<g id="edge8" class="edge">
<title>Kitab&#45;&gt;k_title_ar</title>
<path fill="none" stroke="#484f58" stroke-dasharray="1,5" d="M265.21,-864.19C234.2,-879.69 184.44,-904.56 154.51,-919.53"/>
</g>
<!-- Surah -->
<g id="node3" class="node">
<title>Surah</title>
<polygon fill="#21262d" stroke="#58a6ff" stroke-width="1.8" points="248.5,-195.57 194.5,-195.57 194.5,-159.57 248.5,-159.57 248.5,-195.57"/>
<text xml:space="preserve" text-anchor="middle" x="221.5" y="-173.87" font-family="DejaVu Sans Mono" font-size="11.00" fill="#e6edf3">Surah</text>
</g>
<!-- Groups -->
<g id="node8" class="node">
<title>Groups</title>
<polygon fill="#342612" stroke="#d29922" stroke-width="1.4" points="308.14,-348.34 263.14,-330.34 308.14,-312.34 353.13,-330.34 308.14,-348.34"/>
<text xml:space="preserve" text-anchor="middle" x="308.14" y="-327.21" font-family="DejaVu Sans Mono" font-size="10.00" fill="#e6edf3">Groups</text>
</g>
<!-- Surah&#45;&gt;Groups -->
<g id="edge31" class="edge">
<title>Surah&#45;&gt;Groups</title>
<path fill="none" stroke="#8b949e" stroke-width="1.4" d="M238.37,-207.32C256.71,-239.66 285.3,-290.07 299.52,-315.13"/>
<polygon fill="none" stroke="#8b949e" stroke-width="1.4" points="241.95,-205.82 233.17,-198.15 235.25,-209.62 241.95,-205.82"/>
</g>
<!-- surah_num -->
<g id="node20" class="node">
<title>surah_num</title>
<ellipse fill="#161b22" stroke="#6e7681" cx="37.42" cy="-163.15" rx="37.42" ry="18"/>
<text xml:space="preserve" text-anchor="start" x="13.8" y="-161.22" font-family="DejaVu Sans Mono" text-decoration="underline" font-size="9.00" fill="#8b949e">surah_num</text>
</g>
<!-- Surah&#45;&gt;surah_num -->
<g id="edge9" class="edge">
<title>Surah&#45;&gt;surah_num</title>
<path fill="none" stroke="#e3b341" stroke-width="1.4" d="M193.94,-175.41C162.25,-172.93 110.06,-168.84 74.74,-166.07"/>
</g>
<!-- s_title_en -->
<g id="node21" class="node">
<title>s_title_en</title>
<ellipse fill="#161b22" stroke="#6e7681" cx="145.18" cy="-39.78" rx="34.32" ry="18"/>
<text xml:space="preserve" text-anchor="middle" x="145.18" y="-36.86" font-family="DejaVu Sans Mono" font-size="9.00" fill="#8b949e">title_en</text>
</g>
<!-- Surah&#45;&gt;s_title_en -->
<g id="edge10" class="edge">
<title>Surah&#45;&gt;s_title_en</title>
<path fill="none" stroke="#484f58" stroke-dasharray="1,5" d="M211.05,-158.7C196.19,-131.87 169.17,-83.08 154.78,-57.12"/>
</g>
<!-- s_title_ar -->
<g id="node22" class="node">
<title>s_title_ar</title>
<ellipse fill="#161b22" stroke="#6e7681" cx="314.47" cy="-18" rx="34.32" ry="18"/>
<text xml:space="preserve" text-anchor="middle" x="314.47" y="-15.07" font-family="DejaVu Sans Mono" font-size="9.00" fill="#8b949e">title_ar</text>
</g>
<!-- Surah&#45;&gt;s_title_ar -->
<g id="edge11" class="edge">
<title>Surah&#45;&gt;s_title_ar</title>
<path fill="none" stroke="#484f58" stroke-dasharray="1,5" d="M232.35,-158.95C250.45,-127.88 286.59,-65.86 304.26,-35.53"/>
</g>
<!-- Bab -->
<g id="node4" class="node">
<title>Bab</title>
<polygon fill="#21262d" stroke="#58a6ff" stroke-width="1.8" points="435.1,-522.85 381.1,-522.85 381.1,-486.85 435.1,-486.85 435.1,-522.85"/>
<text xml:space="preserve" text-anchor="middle" x="408.1" y="-501.15" font-family="DejaVu Sans Mono" font-size="11.00" fill="#e6edf3">Bab</text>
</g>
<!-- Bab&#45;&gt;Divides -->
<g id="edge30" class="edge">
<title>Bab&#45;&gt;Divides</title>
<path fill="none" stroke="#8b949e" stroke-width="1.4" d="M395.97,-524.02C374.07,-555.49 330.13,-618.61 310.13,-647.34"/>
<path fill="none" stroke="#8b949e" stroke-width="1.4" d="M394.33,-522.88C372.42,-554.35 328.49,-617.47 308.49,-646.2"/>
</g>
<!-- Bab&#45;&gt;Groups -->
<g id="edge32" class="edge">
<title>Bab&#45;&gt;Groups</title>
<path fill="none" stroke="#8b949e" stroke-width="1.4" d="M397.4,-486.18C377.45,-451.36 334.97,-377.18 316.74,-345.35"/>
</g>
<!-- ClassifiedUnder -->
<g id="node11" class="node">
<title>ClassifiedUnder</title>
<polygon fill="#342612" stroke="#d29922" stroke-width="1.4" points="529.94,-649.05 433.03,-631.05 529.94,-613.05 626.86,-631.05 529.94,-649.05"/>
<text xml:space="preserve" text-anchor="middle" x="529.94" y="-627.92" font-family="DejaVu Sans Mono" font-size="10.00" fill="#e6edf3">Classified Under</text>
</g>
<!-- Bab&#45;&gt;ClassifiedUnder -->
<g id="edge35" class="edge">
<title>Bab&#45;&gt;ClassifiedUnder</title>
<path fill="none" stroke="#8b949e" stroke-width="1.4" d="M435.14,-532.86C459.6,-558.2 494.75,-594.6 514.66,-615.22"/>
<polygon fill="none" stroke="#8b949e" stroke-width="1.4" points="438.22,-530.51 427.81,-525.27 432.68,-535.86 438.22,-530.51"/>
</g>
<!-- bab_id -->
<g id="node23" class="node">
<title>bab_id</title>
<ellipse fill="#161b22" stroke="#6e7681" cx="287.86" cy="-447.41" rx="28.11" ry="18"/>
<text xml:space="preserve" text-anchor="start" x="272.11" y="-445.49" font-family="DejaVu Sans Mono" text-decoration="underline" font-size="9.00" fill="#8b949e">bab_id</text>
</g>
<!-- Bab&#45;&gt;bab_id -->
<g id="edge12" class="edge">
<title>Bab&#45;&gt;bab_id</title>
<path fill="none" stroke="#e3b341" stroke-width="1.4" d="M380.21,-491.53C359.12,-481.45 330.52,-467.79 310.76,-458.35"/>
</g>
<!-- bab_seq -->
<g id="node24" class="node">
<title>bab_seq</title>
<ellipse fill="#161b22" stroke="#6e7681" cx="558" cy="-421.84" rx="27" ry="18"/>
<text xml:space="preserve" text-anchor="middle" x="558" y="-418.91" font-family="DejaVu Sans Mono" font-size="9.00" fill="#8b949e">seq</text>
</g>
<!-- Bab&#45;&gt;bab_seq -->
<g id="edge13" class="edge">
<title>Bab&#45;&gt;bab_seq</title>
<path fill="none" stroke="#484f58" stroke-dasharray="1,5" d="M435.94,-489.43C465.24,-473.21 510.68,-448.04 537.06,-433.43"/>
</g>
<!-- bab_num -->
<g id="node25" class="node">
<title>bab_num</title>
<ellipse fill="#161b22" stroke="#6e7681" cx="225.82" cy="-501.82" rx="31.21" ry="18"/>
<text xml:space="preserve" text-anchor="middle" x="225.82" y="-498.9" font-family="DejaVu Sans Mono" font-size="9.00" fill="#8b949e">bab_num</text>
</g>
<!-- Bab&#45;&gt;bab_num -->
<g id="edge14" class="edge">
<title>Bab&#45;&gt;bab_num</title>
<path fill="none" stroke="#484f58" stroke-dasharray="1,5" d="M380.41,-504.39C347.35,-503.84 292.16,-502.93 257.44,-502.35"/>
</g>
<!-- b_title_en -->
<g id="node26" class="node">
<title>b_title_en</title>
<ellipse fill="#161b22" stroke="#6e7681" cx="442.27" cy="-360.39" rx="34.32" ry="18"/>
<text xml:space="preserve" text-anchor="middle" x="442.27" y="-357.46" font-family="DejaVu Sans Mono" font-size="9.00" fill="#8b949e">title_en</text>
</g>
<!-- Bab&#45;&gt;b_title_en -->
<g id="edge15" class="edge">
<title>Bab&#45;&gt;b_title_en</title>
<path fill="none" stroke="#484f58" stroke-dasharray="1,5" d="M412.56,-485.97C419.18,-457.97 431.52,-405.83 438.01,-378.37"/>
</g>
<!-- b_title_ar -->
<g id="node27" class="node">
<title>b_title_ar</title>
<ellipse fill="#161b22" stroke="#6e7681" cx="533.84" cy="-351.37" rx="34.32" ry="18"/>
<text xml:space="preserve" text-anchor="middle" x="533.84" y="-348.44" font-family="DejaVu Sans Mono" font-size="9.00" fill="#8b949e">title_ar</text>
</g>
<!-- Bab&#45;&gt;b_title_ar -->
<g id="edge16" class="edge">
<title>Bab&#45;&gt;b_title_ar</title>
<path fill="none" stroke="#484f58" stroke-dasharray="1,5" d="M423.51,-486.03C448.3,-455.77 496.62,-396.79 520.22,-367.99"/>
</g>
<!-- Hadith -->
<g id="node5" class="node">
<title>Hadith</title>
<polygon fill="#21262d" stroke="#58a6ff" stroke-width="1.8" points="674.39,-813.28 617.89,-813.28 617.89,-777.28 674.39,-777.28 674.39,-813.28"/>
<text xml:space="preserve" text-anchor="middle" x="646.14" y="-791.58" font-family="DejaVu Sans Mono" font-size="11.00" fill="#e6edf3">Hadith</text>
</g>
<!-- Hadith&#45;&gt;FiledIn -->
<g id="edge34" class="edge">
<title>Hadith&#45;&gt;FiledIn</title>
<path fill="none" stroke="#8b949e" stroke-width="1.4" d="M617.26,-802.36C585.93,-808.93 536.1,-819.38 502.68,-826.39"/>
<path fill="none" stroke="#8b949e" stroke-width="1.4" d="M616.85,-800.4C585.52,-806.97 535.69,-817.43 502.27,-824.44"/>
</g>
<!-- Hadith&#45;&gt;CollectedIn -->
<g id="edge28" class="edge">
<title>Hadith&#45;&gt;CollectedIn</title>
<path fill="none" stroke="#8b949e" stroke-width="1.4" d="M651.35,-813.66C654.84,-832.14 658.42,-861.06 653.02,-885.79 644.52,-923.93 619.12,-962.31 603.68,-983.06"/>
<path fill="none" stroke="#8b949e" stroke-width="1.4" d="M649.38,-814.03C652.86,-832.38 656.44,-861.3 651.07,-885.35 642.85,-922.83 617.46,-961.2 602.07,-981.86"/>
</g>
<!-- Hadith&#45;&gt;ClassifiedUnder -->
<g id="edge36" class="edge">
<title>Hadith&#45;&gt;ClassifiedUnder</title>
<path fill="none" stroke="#8b949e" stroke-width="1.4" d="M632.81,-776.44C609.8,-743.92 563.02,-677.8 541.39,-647.22"/>
</g>
<!-- hadith_id -->
<g id="node28" class="node">
<title>hadith_id</title>
<ellipse fill="#161b22" stroke="#6e7681" cx="608.83" cy="-885.57" rx="37.42" ry="18"/>
<text xml:space="preserve" text-anchor="start" x="585.2" y="-883.65" font-family="DejaVu Sans Mono" text-decoration="underline" font-size="9.00" fill="#8b949e">hadith_id</text>
</g>
<!-- Hadith&#45;&gt;hadith_id -->
<g id="edge17" class="edge">
<title>Hadith&#45;&gt;hadith_id</title>
<path fill="none" stroke="#e3b341" stroke-width="1.4" d="M638.41,-813.99C631.92,-829.69 622.71,-851.98 616.3,-867.5"/>
</g>
<!-- hadith_num -->
<g id="node29" class="node">
<title>hadith_num</title>
<ellipse fill="#161b22" stroke="#6e7681" cx="774.47" cy="-648.39" rx="40.53" ry="18"/>
<text xml:space="preserve" text-anchor="middle" x="774.47" y="-645.46" font-family="DejaVu Sans Mono" font-size="9.00" fill="#8b949e">hadith_num</text>
</g>
<!-- Hadith&#45;&gt;hadith_num -->
<g id="edge18" class="edge">
<title>Hadith&#45;&gt;hadith_num</title>
<path fill="none" stroke="#484f58" stroke-dasharray="1,5" d="M662.4,-776.68C687.49,-747.96 735.28,-693.25 759.54,-665.48"/>
</g>
<!-- text_plain -->
<g id="node30" class="node">
<title>text_plain</title>
<ellipse fill="#161b22" stroke="#6e7681" cx="820.88" cy="-704.81" rx="40.53" ry="18"/>
<text xml:space="preserve" text-anchor="middle" x="820.88" y="-701.89" font-family="DejaVu Sans Mono" font-size="9.00" fill="#8b949e">text_plain</text>
</g>
<!-- Hadith&#45;&gt;text_plain -->
<g id="edge19" class="edge">
<title>Hadith&#45;&gt;text_plain</title>
<path fill="none" stroke="#484f58" stroke-dasharray="1,5" d="M675,-780.34C708.05,-763.23 761.79,-735.41 794,-718.73"/>
</g>
<!-- text_diac -->
<g id="node31" class="node">
<title>text_diac</title>
<ellipse fill="#161b22" stroke="#6e7681" cx="806.85" cy="-915.67" rx="37.42" ry="18"/>
<text xml:space="preserve" text-anchor="middle" x="806.85" y="-912.75" font-family="DejaVu Sans Mono" font-size="9.00" fill="#8b949e">text_diac</text>
</g>
<!-- Hadith&#45;&gt;text_diac -->
<g id="edge20" class="edge">
<title>Hadith&#45;&gt;text_diac</title>
<path fill="none" stroke="#484f58" stroke-dasharray="1,5" d="M671.25,-814.09C703.04,-837.9 757.16,-878.45 786.5,-900.43"/>
</g>
<!-- matn_plain -->
<g id="node32" class="node">
<title>matn_plain</title>
<ellipse fill="#161b22" stroke="#6e7681" cx="830.81" cy="-847.25" rx="40.53" ry="18"/>
<text xml:space="preserve" text-anchor="middle" x="830.81" y="-844.32" font-family="DejaVu Sans Mono" font-size="9.00" fill="#8b949e">matn_plain</text>
</g>
<!-- Hadith&#45;&gt;matn_plain -->
<g id="edge21" class="edge">
<title>Hadith&#45;&gt;matn_plain</title>
<path fill="none" stroke="#484f58" stroke-dasharray="1,5" d="M675,-803.4C707.76,-812.62 761.2,-827.66 796.18,-837.51"/>
</g>
<!-- matn_diac -->
<g id="node33" class="node">
<title>matn_diac</title>
<ellipse fill="#161b22" stroke="#6e7681" cx="680.42" cy="-677.9" rx="37.42" ry="18"/>
<text xml:space="preserve" text-anchor="middle" x="680.42" y="-674.97" font-family="DejaVu Sans Mono" font-size="9.00" fill="#8b949e">matn_diac</text>
</g>
<!-- Hadith&#45;&gt;matn_diac -->
<g id="edge22" class="edge">
<title>Hadith&#45;&gt;matn_diac</title>
<path fill="none" stroke="#484f58" stroke-dasharray="1,5" d="M651.65,-776.42C658.12,-754.26 668.79,-717.74 675.16,-695.94"/>
</g>
<!-- sanad_count -->
<g id="node34" class="node">
<title>sanad_count</title>
<ellipse fill="#161b22" stroke="#6e7681" cx="709.7" cy="-933.67" rx="43.64" ry="18"/>
<text xml:space="preserve" text-anchor="middle" x="709.7" y="-930.75" font-family="DejaVu Sans Mono" font-size="9.00" fill="#8b949e">sanad_count</text>
</g>
<!-- Hadith&#45;&gt;sanad_count -->
<g id="edge23" class="edge">
<title>Hadith&#45;&gt;sanad_count</title>
<path fill="none" stroke="#484f58" stroke-dasharray="1,5" d="M654.71,-813.94C666.98,-840.65 689.39,-889.45 701.46,-915.74"/>
</g>
<!-- chain_strength -->
<g id="node35" class="node">
<title>chain_strength</title>
<ellipse fill="#161b22" stroke="#6e7681" stroke-dasharray="5,2" cx="829.16" cy="-776.84" rx="52.96" ry="18"/>
<text xml:space="preserve" text-anchor="middle" x="829.16" y="-773.92" font-family="DejaVu Sans Mono" font-size="9.00" fill="#8b949e">chain_strength</text>
</g>
<!-- Hadith&#45;&gt;chain_strength -->
<g id="edge24" class="edge">
<title>Hadith&#45;&gt;chain_strength</title>
<path fill="none" stroke="#484f58" stroke-dasharray="1,5" d="M675.14,-792.36C702.76,-789.58 744.93,-785.33 778.16,-781.98"/>
</g>
</g>
</svg>
