<?xml version="1.0" encoding="UTF-8" standalone="no"?>
<!DOCTYPE svg PUBLIC "-//W3C//DTD SVG 1.1//EN"
 "http://www.w3.org/Graphics/SVG/1.1/DTD/svg11.dtd">
<!-- Generated by graphviz version 16.1.0 (0)
 -->
<!-- Title: ERD_Biblio Pages: 1 -->
<svg width="1113pt" height="724pt"
 viewBox="0.00 0.00 1113.00 724.00" xmlns="http://www.w3.org/2000/svg" xmlns:xlink="http://www.w3.org/1999/xlink">
<g id="graph0" class="graph" transform="scale(1 1) rotate(0) translate(4 720.06)">
<title>ERD_Biblio</title>
<polygon fill="#0d1117" stroke="none" points="-4,4 -4,-720.06 1109.19,-720.06 1109.19,4 -4,4"/>
<!-- Collection -->
<g id="node1" class="node">
<title>Collection</title>
<polygon fill="#21262d" stroke="#58a6ff" stroke-width="1.8" points="208.71,-546.86 125.21,-546.86 125.21,-510.86 208.71,-510.86 208.71,-546.86"/>
<text xml:space="preserve" text-anchor="middle" x="166.96" y="-525.16" font-family="DejaVu Sans Mono" font-size="11.00" fill="#e6edf3">Collection</text>
</g>
<!-- Contains_CollCh -->
<g id="node6" class="node">
<title>Contains_CollCh</title>
<polygon fill="#342612" stroke="#d29922" stroke-width="1.4" points="285.74,-632.59 230.36,-614.59 285.74,-596.59 341.12,-614.59 285.74,-632.59"/>
<text xml:space="preserve" text-anchor="middle" x="285.74" y="-611.46" font-family="DejaVu Sans Mono" font-size="10.00" fill="#e6edf3">Contains</text>
</g>
<!-- Collection&#45;&gt;Contains_CollCh -->
<g id="edge25" class="edge">
<title>Collection&#45;&gt;Contains_CollCh</title>
<path fill="none" stroke="#8b949e" stroke-width="1.4" d="M203.46,-555.2C224.97,-570.73 251.21,-589.67 268.18,-601.92"/>
<polygon fill="#8b949e" stroke="#8b949e" stroke-width="1.4" points="205.92,-552.23 194.75,-548.91 201.41,-558.47 205.92,-552.23"/>
</g>
<!-- CollectedIn -->
<g id="node10" class="node">
<title>CollectedIn</title>
<polygon fill="#342612" stroke="#d29922" stroke-width="1.4" points="208.02,-382.48 131.87,-364.48 208.02,-346.48 284.17,-364.48 208.02,-382.48"/>
<text xml:space="preserve" text-anchor="middle" x="208.02" y="-361.35" font-family="DejaVu Sans Mono" font-size="10.00" fill="#e6edf3">Collected In</text>
</g>
<!-- Collection&#45;&gt;CollectedIn -->
<g id="edge27" class="edge">
<title>Collection&#45;&gt;CollectedIn</title>
<path fill="none" stroke="#8b949e" stroke-width="1.4" d="M174.79,-497.5C183.35,-463.26 196.73,-409.66 203.61,-382.12"/>
<polygon fill="#8b949e" stroke="#8b949e" stroke-width="1.4" points="171.12,-496.34 172.19,-507.95 178.59,-498.21 171.12,-496.34"/>
</g>
<!-- collection_id -->
<g id="node12" class="node">
<title>collection_id</title>
<ellipse fill="#161b22" stroke="#6e7681" cx="91.02" cy="-448.53" rx="49.85" ry="18"/>
<text xml:space="preserve" text-anchor="start" x="56.9" y="-446.61" font-family="DejaVu Sans Mono" text-decoration="underline" font-size="9.00" fill="#8b949e">collection_id</text>
</g>
<!-- Collection&#45;&gt;collection_id -->
<g id="edge1" class="edge">
<title>Collection&#45;&gt;collection_id</title>
<path fill="none" stroke="#e3b341" stroke-width="1.4" d="M149.35,-510.23C136.73,-496.88 119.85,-479.03 107.5,-465.96"/>
</g>
<!-- slug -->
<g id="node13" class="node">
<title>slug</title>
<ellipse fill="#161b22" stroke="#6e7681" cx="186.66" cy="-639.05" rx="27" ry="18"/>
<text xml:space="preserve" text-anchor="middle" x="186.66" y="-636.12" font-family="DejaVu Sans Mono" font-size="9.00" fill="#8b949e">slug</text>
</g>
<!-- Collection&#45;&gt;slug -->
<g id="edge2" class="edge">
<title>Collection&#45;&gt;slug</title>
<path fill="none" stroke="#484f58" stroke-dasharray="1,5" d="M170.3,-547.55C173.97,-568.06 179.81,-600.75 183.43,-621"/>
</g>
<!-- title_ar -->
<g id="node14" class="node">
<title>title_ar</title>
<ellipse fill="#161b22" stroke="#6e7681" cx="34.32" cy="-538.92" rx="34.32" ry="18"/>
<text xml:space="preserve" text-anchor="middle" x="34.32" y="-535.99" font-family="DejaVu Sans Mono" font-size="9.00" fill="#8b949e">title_ar</text>
</g>
<!-- Collection&#45;&gt;title_ar -->
<g id="edge3" class="edge">
<title>Collection&#45;&gt;title_ar</title>
<path fill="none" stroke="#484f58" stroke-dasharray="1,5" d="M124.63,-532.07C106.58,-533.44 85.8,-535.01 68.72,-536.31"/>
</g>
<!-- title_en -->
<g id="node15" class="node">
<title>title_en</title>
<ellipse fill="#161b22" stroke="#6e7681" cx="88.7" cy="-643.7" rx="34.32" ry="18"/>
<text xml:space="preserve" text-anchor="middle" x="88.7" y="-640.78" font-family="DejaVu Sans Mono" font-size="9.00" fill="#8b949e">title_en</text>
</g>
<!-- Collection&#45;&gt;title_en -->
<g id="edge4" class="edge">
<title>Collection&#45;&gt;title_en</title>
<path fill="none" stroke="#484f58" stroke-dasharray="1,5" d="M154.21,-547.57C139.32,-569.43 114.86,-605.31 100.42,-626.5"/>
</g>
<!-- Kitab -->
<g id="node2" class="node">
<title>Kitab</title>
<polygon fill="#21262d" stroke="#58a6ff" stroke-width="1.8" points="494.35,-575.67 440.35,-575.67 440.35,-539.67 494.35,-539.67 494.35,-575.67"/>
<text xml:space="preserve" text-anchor="middle" x="467.35" y="-553.97" font-family="DejaVu Sans Mono" font-size="11.00" fill="#e6edf3">Kitab</text>
</g>
<!-- Kitab&#45;&gt;Contains_CollCh -->
<g id="edge26" class="edge">
<title>Kitab&#45;&gt;Contains_CollCh</title>
<path fill="none" stroke="#8b949e" stroke-width="1.4" d="M440.07,-567.27C406.33,-577.84 349.48,-595.66 315.08,-606.44"/>
<path fill="none" stroke="#8b949e" stroke-width="1.4" d="M439.47,-565.36C405.73,-575.93 348.88,-593.75 314.49,-604.53"/>
</g>
<!-- Divides -->
<g id="node7" class="node">
<title>Divides</title>
<polygon fill="#342612" stroke="#d29922" stroke-width="1.4" points="608.83,-460.87 558.64,-442.87 608.83,-424.87 659.02,-442.87 608.83,-460.87"/>
<text xml:space="preserve" text-anchor="middle" x="608.83" y="-439.75" font-family="DejaVu Sans Mono" font-size="10.00" fill="#e6edf3">Divides</text>
</g>
<!-- Kitab&#45;&gt;Divides -->
<g id="edge29" class="edge">
<title>Kitab&#45;&gt;Divides</title>
<path fill="none" stroke="#8b949e" stroke-width="1.4" d="M500.5,-530.77C529.55,-507.19 570.53,-473.95 592.83,-455.85"/>
<polygon fill="#8b949e" stroke="#8b949e" stroke-width="1.4" points="498.16,-527.71 492.04,-537.63 503.01,-533.69 498.16,-527.71"/>
</g>
<!-- FiledIn -->
<g id="node9" class="node">
<title>FiledIn</title>
<polygon fill="#342612" stroke="#d29922" stroke-width="1.4" points="391.06,-402.16 335.68,-384.16 391.06,-366.16 446.44,-384.16 391.06,-402.16"/>
<text xml:space="preserve" text-anchor="middle" x="391.06" y="-381.04" font-family="DejaVu Sans Mono" font-size="10.00" fill="#e6edf3">Filed In</text>
</g>
<!-- Kitab&#45;&gt;FiledIn -->
<g id="edge33" class="edge">
<title>Kitab&#45;&gt;FiledIn</title>
<path fill="none" stroke="#8b949e" stroke-width="1.4" d="M453.76,-526.77C437.52,-489.81 410.92,-429.34 398.23,-400.48"/>
<polygon fill="#8b949e" stroke="#8b949e" stroke-width="1.4" points="450.24,-528.31 458.19,-536.83 457.28,-525.21 450.24,-528.31"/>
</g>
<!-- kitab_id -->
<g id="node16" class="node">
<title>kitab_id</title>
<ellipse fill="#161b22" stroke="#6e7681" cx="391.54" cy="-621.55" rx="34.32" ry="18"/>
<text xml:space="preserve" text-anchor="start" x="370.54" y="-619.63" font-family="DejaVu Sans Mono" text-decoration="underline" font-size="9.00" fill="#8b949e">kitab_id</text>
</g>
<!-- Kitab&#45;&gt;kitab_id -->
<g id="edge5" class="edge">
<title>Kitab&#45;&gt;kitab_id</title>
<path fill="none" stroke="#e3b341" stroke-width="1.4" d="M445.01,-576.49C433.83,-585.91 420.47,-597.18 409.89,-606.09"/>
</g>
<!-- kitab_num -->
<g id="node17" class="node">
<title>kitab_num</title>
<ellipse fill="#161b22" stroke="#6e7681" cx="578.41" cy="-568.73" rx="37.42" ry="18"/>
<text xml:space="preserve" text-anchor="middle" x="578.41" y="-565.8" font-family="DejaVu Sans Mono" font-size="9.00" fill="#8b949e">kitab_num</text>
</g>
<!-- Kitab&#45;&gt;kitab_num -->
<g id="edge6" class="edge">
<title>Kitab&#45;&gt;kitab_num</title>
<path fill="none" stroke="#484f58" stroke-dasharray="1,5" d="M495.09,-560.43C509.09,-561.82 526.28,-563.54 541.4,-565.04"/>
</g>
<!-- k_title_en -->
<g id="node18" class="node">
<title>k_title_en</title>
<ellipse fill="#161b22" stroke="#6e7681" cx="446.32" cy="-698.06" rx="34.32" ry="18"/>
<text xml:space="preserve" text-anchor="middle" x="446.32" y="-695.13" font-family="DejaVu Sans Mono" font-size="9.00" fill="#8b949e">title_en</text>
</g>
<!-- Kitab&#45;&gt;k_title_en -->
<g id="edge7" class="edge">
<title>Kitab&#45;&gt;k_title_en</title>
<path fill="none" stroke="#484f58" stroke-dasharray="1,5" d="M464.56,-576.31C460.51,-603.31 453.07,-652.99 449.06,-679.78"/>
</g>
<!-- k_title_ar -->
<g id="node19" class="node">
<title>k_title_ar</title>
<ellipse fill="#161b22" stroke="#6e7681" cx="555.23" cy="-676.46" rx="34.32" ry="18"/>
<text xml:space="preserve" text-anchor="middle" x="555.23" y="-673.53" font-family="DejaVu Sans Mono" font-size="9.00" fill="#8b949e">title_ar</text>
</g>
<!-- Kitab&#45;&gt;k_title_ar -->
<g id="edge8" class="edge">
<title>Kitab&#45;&gt;k_title_ar</title>
<path fill="none" stroke="#484f58" stroke-dasharray="1,5" d="M481.27,-576.49C498.12,-599.26 526.23,-637.26 542.51,-659.27"/>
</g>
<!-- Surah -->
<g id="node3" class="node">
<title>Surah</title>
<polygon fill="#21262d" stroke="#58a6ff" stroke-width="1.8" points="973.74,-507.16 919.74,-507.16 919.74,-471.16 973.74,-471.16 973.74,-507.16"/>
<text xml:space="preserve" text-anchor="middle" x="946.74" y="-485.46" font-family="DejaVu Sans Mono" font-size="11.00" fill="#e6edf3">Surah</text>
</g>
<!-- Groups -->
<g id="node8" class="node">
<title>Groups</title>
<polygon fill="#342612" stroke="#d29922" stroke-width="1.4" points="825.34,-442.17 780.35,-424.17 825.34,-406.17 870.34,-424.17 825.34,-442.17"/>
<text xml:space="preserve" text-anchor="middle" x="825.34" y="-421.04" font-family="DejaVu Sans Mono" font-size="10.00" fill="#e6edf3">Groups</text>
</g>
<!-- Surah&#45;&gt;Groups -->
<g id="edge31" class="edge">
<title>Surah&#45;&gt;Groups</title>
<path fill="none" stroke="#8b949e" stroke-width="1.4" d="M907.48,-468.14C886.65,-456.99 861.95,-443.77 845.12,-434.75"/>
<polygon fill="none" stroke="#8b949e" stroke-width="1.4" points="905.51,-471.45 917.03,-473.25 909.14,-464.67 905.51,-471.45"/>
</g>
<!-- surah_num -->
<g id="node20" class="node">
<title>surah_num</title>
<ellipse fill="#161b22" stroke="#6e7681" cx="1018.18" cy="-386.67" rx="37.42" ry="18"/>
<text xml:space="preserve" text-anchor="start" x="994.55" y="-384.75" font-family="DejaVu Sans Mono" text-decoration="underline" font-size="9.00" fill="#8b949e">surah_num</text>
</g>
<!-- Surah&#45;&gt;surah_num -->
<g id="edge9" class="edge">
<title>Surah&#45;&gt;surah_num</title>
<path fill="none" stroke="#e3b341" stroke-width="1.4" d="M959.85,-470.36C973.06,-451.41 993.28,-422.39 1006.11,-403.98"/>
</g>
<!-- s_title_en -->
<g id="node21" class="node">
<title>s_title_en</title>
<ellipse fill="#161b22" stroke="#6e7681" cx="1070.88" cy="-512.68" rx="34.32" ry="18"/>
<text xml:space="preserve" text-anchor="middle" x="1070.88" y="-509.75" font-family="DejaVu Sans Mono" font-size="9.00" fill="#8b949e">title_en</text>
</g>
<!-- Surah&#45;&gt;s_title_en -->
<g id="edge10" class="edge">
<title>Surah&#45;&gt;s_title_en</title>
<path fill="none" stroke="#484f58" stroke-dasharray="1,5" d="M974.6,-494.44C993.47,-498.01 1018.48,-502.75 1038.28,-506.5"/>
</g>
<!-- s_title_ar -->
<g id="node22" class="node">
<title>s_title_ar</title>
<ellipse fill="#161b22" stroke="#6e7681" cx="961.59" cy="-599.7" rx="34.32" ry="18"/>
<text xml:space="preserve" text-anchor="middle" x="961.59" y="-596.78" font-family="DejaVu Sans Mono" font-size="9.00" fill="#8b949e">title_ar</text>
</g>
<!-- Surah&#45;&gt;s_title_ar -->
<g id="edge11" class="edge">
<title>Surah&#45;&gt;s_title_ar</title>
<path fill="none" stroke="#484f58" stroke-dasharray="1,5" d="M949.26,-507.92C952.02,-528.49 956.43,-561.28 959.15,-581.6"/>
</g>
<!-- Bab -->
<g id="node4" class="node">
<title>Bab</title>
<polygon fill="#21262d" stroke="#58a6ff" stroke-width="1.8" points="715.25,-312.67 661.25,-312.67 661.25,-276.67 715.25,-276.67 715.25,-312.67"/>
<text xml:space="preserve" text-anchor="middle" x="688.25" y="-290.97" font-family="DejaVu Sans Mono" font-size="11.00" fill="#e6edf3">Bab</text>
</g>
<!-- Bab&#45;&gt;Divides -->
<g id="edge30" class="edge">
<title>Bab&#45;&gt;Divides</title>
<path fill="none" stroke="#8b949e" stroke-width="1.4" d="M679.07,-313.92C663.21,-343.51 632.69,-400.47 618,-427.87"/>
<path fill="none" stroke="#8b949e" stroke-width="1.4" d="M677.31,-312.97C661.45,-342.57 630.92,-399.53 616.24,-426.93"/>
</g>
<!-- Bab&#45;&gt;Groups -->
<g id="edge32" class="edge">
<title>Bab&#45;&gt;Groups</title>
<path fill="none" stroke="#8b949e" stroke-width="1.4" d="M708.18,-313.5C736.4,-340.16 787.27,-388.21 811.62,-411.21"/>
</g>
<!-- ClassifiedUnder -->
<g id="node11" class="node">
<title>ClassifiedUnder</title>
<polygon fill="#342612" stroke="#d29922" stroke-width="1.4" points="521.18,-271.92 424.27,-253.92 521.18,-235.92 618.1,-253.92 521.18,-271.92"/>
<text xml:space="preserve" text-anchor="middle" x="521.18" y="-250.79" font-family="DejaVu Sans Mono" font-size="10.00" fill="#e6edf3">Classified Under</text>
</g>
<!-- Bab&#45;&gt;ClassifiedUnder -->
<g id="edge35" class="edge">
<title>Bab&#45;&gt;ClassifiedUnder</title>
<path fill="none" stroke="#8b949e" stroke-width="1.4" d="M648.2,-284.9C622.96,-278.75 590.36,-270.79 564.51,-264.49"/>
<polygon fill="none" stroke="#8b949e" stroke-width="1.4" points="647,-288.57 658.6,-287.44 648.83,-281.09 647,-288.57"/>
</g>
<!-- bab_id -->
<g id="node23" class="node">
<title>bab_id</title>
<ellipse fill="#161b22" stroke="#6e7681" cx="635.29" cy="-156.9" rx="28.11" ry="18"/>
<text xml:space="preserve" text-anchor="start" x="619.54" y="-154.98" font-family="DejaVu Sans Mono" text-decoration="underline" font-size="9.00" fill="#8b949e">bab_id</text>
</g>
<!-- Bab&#45;&gt;bab_id -->
<g id="edge12" class="edge">
<title>Bab&#45;&gt;bab_id</title>
<path fill="none" stroke="#e3b341" stroke-width="1.4" d="M680.99,-275.81C670.74,-249.13 652.14,-200.73 642.12,-174.67"/>
</g>
<!-- bab_seq -->
<g id="node24" class="node">
<title>bab_seq</title>
<ellipse fill="#161b22" stroke="#6e7681" cx="791.11" cy="-179.87" rx="27" ry="18"/>
<text xml:space="preserve" text-anchor="middle" x="791.11" y="-176.95" font-family="DejaVu Sans Mono" font-size="9.00" fill="#8b949e">seq</text>
</g>
<!-- Bab&#45;&gt;bab_seq -->
<g id="edge13" class="edge">
<title>Bab&#45;&gt;bab_seq</title>
<path fill="none" stroke="#484f58" stroke-dasharray="1,5" d="M703.48,-276.02C713.07,-264.43 725.78,-249.31 737.46,-236.28 750.26,-221.98 765.37,-206.19 776.28,-194.96"/>
</g>
<!-- bab_num -->
<g id="node25" class="node">
<title>bab_num</title>
<ellipse fill="#161b22" stroke="#6e7681" cx="713.1" cy="-114.42" rx="31.21" ry="18"/>
<text xml:space="preserve" text-anchor="middle" x="713.1" y="-111.49" font-family="DejaVu Sans Mono" font-size="9.00" fill="#8b949e">bab_num</text>
</g>
<!-- Bab&#45;&gt;bab_num -->
<g id="edge14" class="edge">
<title>Bab&#45;&gt;bab_num</title>
<path fill="none" stroke="#484f58" stroke-dasharray="1,5" d="M690.81,-276.06C695.6,-241.34 705.83,-167.1 710.58,-132.66"/>
</g>
<!-- b_title_en -->
<g id="node26" class="node">
<title>b_title_en</title>
<ellipse fill="#161b22" stroke="#6e7681" cx="765.64" cy="-251.97" rx="34.32" ry="18"/>
<text xml:space="preserve" text-anchor="middle" x="765.64" y="-249.04" font-family="DejaVu Sans Mono" font-size="9.00" fill="#8b949e">title_en</text>
</g>
<!-- Bab&#45;&gt;b_title_en -->
<g id="edge15" class="edge">
<title>Bab&#45;&gt;b_title_en</title>
<path fill="none" stroke="#484f58" stroke-dasharray="1,5" d="M715.75,-279.5C724.18,-274.85 733.38,-269.77 741.56,-265.25"/>
</g>
<!-- b_title_ar -->
<g id="node27" class="node">
<title>b_title_ar</title>
<ellipse fill="#161b22" stroke="#6e7681" cx="885.53" cy="-258.61" rx="34.32" ry="18"/>
<text xml:space="preserve" text-anchor="middle" x="885.53" y="-255.68" font-family="DejaVu Sans Mono" font-size="9.00" fill="#8b949e">title_ar</text>
</g>
<!-- Bab&#45;&gt;b_title_ar -->
<g id="edge16" class="edge">
<title>Bab&#45;&gt;b_title_ar</title>
<path fill="none" stroke="#484f58" stroke-dasharray="1,5" d="M716.09,-289.58C752.1,-283 814.7,-271.56 852.9,-264.57"/>
</g>
<!-- Hadith -->
<g id="node5" class="node">
<title>Hadith</title>
<polygon fill="#21262d" stroke="#58a6ff" stroke-width="1.8" points="363.96,-210.86 307.46,-210.86 307.46,-174.86 363.96,-174.86 363.96,-210.86"/>
<text xml:space="preserve" text-anchor="middle" x="335.71" y="-189.16" font-family="DejaVu Sans Mono" font-size="11.00" fill="#e6edf3">Hadith</text>
</g>
<!-- Hadith&#45;&gt;FiledIn -->
<g id="edge34" class="edge">
<title>Hadith&#45;&gt;FiledIn</title>
<path fill="none" stroke="#8b949e" stroke-width="1.4" d="M342.08,-211.27C352.82,-248.41 376.71,-330.98 387.07,-366.78"/>
<path fill="none" stroke="#8b949e" stroke-width="1.4" d="M340.16,-211.83C350.9,-248.97 374.79,-331.54 385.15,-367.34"/>
</g>
<!-- Hadith&#45;&gt;CollectedIn -->
<g id="edge28" class="edge">
<title>Hadith&#45;&gt;CollectedIn</title>
<path fill="none" stroke="#8b949e" stroke-width="1.4" d="M322.6,-212.15C297.27,-246.2 244.03,-317.75 220.47,-349.42"/>
<path fill="none" stroke="#8b949e" stroke-width="1.4" d="M321,-210.96C295.66,-245.01 242.42,-316.56 218.86,-348.23"/>
</g>
<!-- Hadith&#45;&gt;ClassifiedUnder -->
<g id="edge36" class="edge">
<title>Hadith&#45;&gt;ClassifiedUnder</title>
<path fill="none" stroke="#8b949e" stroke-width="1.4" d="M364.69,-202.4C397.19,-213.1 449.94,-230.46 485.09,-242.03"/>
</g>
<!-- hadith_id -->
<g id="node28" class="node">
<title>hadith_id</title>
<ellipse fill="#161b22" stroke="#6e7681" cx="404.29" cy="-18" rx="37.42" ry="18"/>
<text xml:space="preserve" text-anchor="start" x="380.67" y="-16.07" font-family="DejaVu Sans Mono" text-decoration="underline" font-size="9.00" fill="#8b949e">hadith_id</text>
</g>
<!-- Hadith&#45;&gt;hadith_id -->
<g id="edge17" class="edge">
<title>Hadith&#45;&gt;hadith_id</title>
<path fill="none" stroke="#e3b341" stroke-width="1.4" d="M343.05,-174.15C356.32,-140.32 384.13,-69.4 397.21,-36.05"/>
</g>
<!-- hadith_num -->
<g id="node29" class="node">
<title>hadith_num</title>
<ellipse fill="#161b22" stroke="#6e7681" cx="467.39" cy="-91.21" rx="40.53" ry="18"/>
<text xml:space="preserve" text-anchor="middle" x="467.39" y="-88.28" font-family="DejaVu Sans Mono" font-size="9.00" fill="#8b949e">hadith_num</text>
</g>
<!-- Hadith&#45;&gt;hadith_num -->
<g id="edge18" class="edge">
<title>Hadith&#45;&gt;hadith_num</title>
<path fill="none" stroke="#484f58" stroke-dasharray="1,5" d="M360.17,-173.98C385.16,-154.69 423.53,-125.07 446.95,-106.99"/>
</g>
<!-- text_plain -->
<g id="node30" class="node">
<title>text_plain</title>
<ellipse fill="#161b22" stroke="#6e7681" cx="424.54" cy="-183.91" rx="40.53" ry="18"/>
<text xml:space="preserve" text-anchor="middle" x="424.54" y="-180.98" font-family="DejaVu Sans Mono" font-size="9.00" fill="#8b949e">text_plain</text>
</g>
<!-- Hadith&#45;&gt;text_plain -->
<g id="edge19" class="edge">
<title>Hadith&#45;&gt;text_plain</title>
<path fill="none" stroke="#484f58" stroke-dasharray="1,5" d="M364.79,-189.93C371.17,-189.29 378.02,-188.6 384.74,-187.92"/>
</g>
<!-- text_diac -->
<g id="node31" class="node">
<title>text_diac</title>
<ellipse fill="#161b22" stroke="#6e7681" cx="310.37" cy="-27.85" rx="37.42" ry="18"/>
<text xml:space="preserve" text-anchor="middle" x="310.37" y="-24.93" font-family="DejaVu Sans Mono" font-size="9.00" fill="#8b949e">text_diac</text>
</g>
<!-- Hadith&#45;&gt;text_diac -->
<g id="edge20" class="edge">
<title>Hadith&#45;&gt;text_diac</title>
<path fill="none" stroke="#484f58" stroke-dasharray="1,5" d="M332.85,-174.25C327.96,-142.39 318.04,-77.78 313.18,-46.14"/>
</g>
<!-- matn_plain -->
<g id="node32" class="node">
<title>matn_plain</title>
<ellipse fill="#161b22" stroke="#6e7681" cx="236.82" cy="-80.88" rx="40.53" ry="18"/>
<text xml:space="preserve" text-anchor="middle" x="236.82" y="-77.96" font-family="DejaVu Sans Mono" font-size="9.00" fill="#8b949e">matn_plain</text>
</g>
<!-- Hadith&#45;&gt;matn_plain -->
<g id="edge21" class="edge">
<title>Hadith&#45;&gt;matn_plain</title>
<path fill="none" stroke="#484f58" stroke-dasharray="1,5" d="M319.16,-174.12C300.35,-152.83 269.93,-118.38 251.8,-97.85"/>
</g>
<!-- matn_diac -->
<g id="node33" class="node">
<title>matn_diac</title>
<ellipse fill="#161b22" stroke="#6e7681" cx="191.77" cy="-262.11" rx="37.42" ry="18"/>
<text xml:space="preserve" text-anchor="middle" x="191.77" y="-259.19" font-family="DejaVu Sans Mono" font-size="9.00" fill="#8b949e">matn_diac</text>
</g>
<!-- Hadith&#45;&gt;matn_diac -->
<g id="edge22" class="edge">
<title>Hadith&#45;&gt;matn_diac</title>
<path fill="none" stroke="#484f58" stroke-dasharray="1,5" d="M306.58,-206.88C280.79,-219.29 243.45,-237.25 218.43,-249.29"/>
</g>
<!-- sanad_count -->
<g id="node34" class="node">
<title>sanad_count</title>
<ellipse fill="#161b22" stroke="#6e7681" cx="247.74" cy="-178.38" rx="43.64" ry="18"/>
<text xml:space="preserve" text-anchor="middle" x="247.74" y="-175.46" font-family="DejaVu Sans Mono" font-size="9.00" fill="#8b949e">sanad_count</text>
</g>
<!-- Hadith&#45;&gt;sanad_count -->
<g id="edge23" class="edge">
<title>Hadith&#45;&gt;sanad_count</title>
<path fill="none" stroke="#484f58" stroke-dasharray="1,5" d="M306.9,-188.12C301.09,-187.16 294.88,-186.14 288.74,-185.13"/>
</g>
<!-- chain_strength -->
<g id="node35" class="node">
<title>chain_strength</title>
<ellipse fill="#161b22" stroke="#6e7681" stroke-dasharray="5,2" cx="135.04" cy="-149.35" rx="52.96" ry="18"/>
<text xml:space="preserve" text-anchor="middle" x="135.04" y="-146.42" font-family="DejaVu Sans Mono" font-size="9.00" fill="#8b949e">chain_strength</text>
</g>
<!-- Hadith&#45;&gt;chain_strength -->
<g id="edge24" class="edge">
<title>Hadith&#45;&gt;chain_strength</title>
<path fill="none" stroke="#484f58" stroke-dasharray="1,5" d="M307.04,-174.11C299.48,-169.83 291.16,-165.66 283.05,-162.69 252.89,-151.64 217.06,-148.18 188.21,-147.55"/>
</g>
</g>
</svg>
