<?xml version="1.0" encoding="UTF-8" standalone="no"?>
<!DOCTYPE svg PUBLIC "-//W3C//DTD SVG 1.1//EN"
 "http://www.w3.org/Graphics/SVG/1.1/DTD/svg11.dtd">
<!-- Generated by graphviz version 15.1.0 (0)
 -->
<!-- Title: ERD_Corpus Pages: 1 -->
<svg width="1693pt" height="1759pt"
 viewBox="0.00 0.00 1693.00 1759.00" xmlns="http://www.w3.org/2000/svg" xmlns:xlink="http://www.w3.org/1999/xlink">
<g id="graph0" class="graph" transform="scale(1 1) rotate(0) translate(4 1755.27)">
<title>ERD_Corpus</title>
<polygon fill="#0d1117" stroke="none" points="-4,4 -4,-1755.27 1689.42,-1755.27 1689.42,4 -4,4"/>
<!-- Collection -->
<g id="node1" class="node">
<title>Collection</title>
<polygon fill="#21262d" stroke="#58a6ff" stroke-width="1.8" points="669.78,-216.77 586.28,-216.77 586.28,-180.77 669.78,-180.77 669.78,-216.77"/>
<text xml:space="preserve" text-anchor="middle" x="628.03" y="-195.07" font-family="DejaVu Sans Mono" font-size="11.00" fill="#e6edf3">Collection</text>
</g>
<!-- Contains_CollCh -->
<g id="node8" class="node">
<title>Contains_CollCh</title>
<polygon fill="#342612" stroke="#d29922" stroke-width="1.4" points="806.91,-125.42 751.53,-107.42 806.91,-89.42 862.29,-107.42 806.91,-125.42"/>
<text xml:space="preserve" text-anchor="middle" x="806.91" y="-104.3" font-family="DejaVu Sans Mono" font-size="10.00" fill="#e6edf3">Contains</text>
</g>
<!-- Collection&#45;&gt;Contains_CollCh -->
<g id="edge42" class="edge">
<title>Collection&#45;&gt;Contains_CollCh</title>
<path fill="none" stroke="#8b949e" stroke-width="1.4" d="M676.17,-174.19C711.45,-156.17 757.74,-132.53 784.71,-118.76"/>
<polygon fill="#8b949e" stroke="#8b949e" stroke-width="1.4" points="674.6,-170.67 666.55,-179.1 678.1,-177.53 674.6,-170.67"/>
</g>
<!-- CollectedIn -->
<g id="node9" class="node">
<title>CollectedIn</title>
<polygon fill="#342612" stroke="#d29922" stroke-width="1.4" points="650.87,-411 574.72,-393 650.87,-375 727.02,-393 650.87,-411"/>
<text xml:space="preserve" text-anchor="middle" x="650.87" y="-389.87" font-family="DejaVu Sans Mono" font-size="10.00" fill="#e6edf3">Collected In</text>
</g>
<!-- Collection&#45;&gt;CollectedIn -->
<g id="edge44" class="edge">
<title>Collection&#45;&gt;CollectedIn</title>
<path fill="none" stroke="#8b949e" stroke-width="1.4" d="M631.75,-230.36C636.58,-271.49 644.87,-342.01 648.75,-374.99"/>
<polygon fill="#8b949e" stroke="#8b949e" stroke-width="1.4" points="635.58,-229.98 630.47,-219.5 627.93,-230.87 635.58,-229.98"/>
</g>
<!-- coll_id -->
<g id="node16" class="node">
<title>coll_id</title>
<ellipse fill="#161b22" stroke="#6e7681" cx="578.32" cy="-28.39" rx="49.85" ry="18"/>
<text xml:space="preserve" text-anchor="start" x="544.19" y="-26.47" font-family="DejaVu Sans Mono" text-decoration="underline" font-size="9.00" fill="#8b949e">collection_id</text>
</g>
<!-- Collection&#45;&gt;coll_id -->
<g id="edge1" class="edge">
<title>Collection&#45;&gt;coll_id</title>
<path fill="none" stroke="#e3b341" stroke-width="1.4" d="M622.52,-179.89C612.89,-146.88 593.12,-79.11 583.63,-46.59"/>
</g>
<!-- coll_slug -->
<g id="node17" class="node">
<title>coll_slug</title>
<ellipse fill="#161b22" stroke="#6e7681" cx="694.27" cy="-18" rx="27" ry="18"/>
<text xml:space="preserve" text-anchor="middle" x="694.27" y="-15.07" font-family="DejaVu Sans Mono" font-size="9.00" fill="#8b949e">slug</text>
</g>
<!-- Collection&#45;&gt;coll_slug -->
<g id="edge2" class="edge">
<title>Collection&#45;&gt;coll_slug</title>
<path fill="none" stroke="#484f58" stroke-dasharray="1,5" d="M634.87,-180.11C647.7,-145.11 675.2,-70.06 687.77,-35.76"/>
</g>
<!-- coll_title_ar -->
<g id="node18" class="node">
<title>coll_title_ar</title>
<ellipse fill="#161b22" stroke="#6e7681" cx="422.6" cy="-174.78" rx="34.32" ry="18"/>
<text xml:space="preserve" text-anchor="middle" x="422.6" y="-171.85" font-family="DejaVu Sans Mono" font-size="9.00" fill="#8b949e">title_ar</text>
</g>
<!-- Collection&#45;&gt;coll_title_ar -->
<g id="edge3" class="edge">
<title>Collection&#45;&gt;coll_title_ar</title>
<path fill="none" stroke="#484f58" stroke-dasharray="1,5" d="M585.47,-193.8C547.15,-189.33 491.6,-182.84 456.3,-178.72"/>
</g>
<!-- coll_title_en -->
<g id="node19" class="node">
<title>coll_title_en</title>
<ellipse fill="#161b22" stroke="#6e7681" cx="475.94" cy="-88.68" rx="34.32" ry="18"/>
<text xml:space="preserve" text-anchor="middle" x="475.94" y="-85.75" font-family="DejaVu Sans Mono" font-size="9.00" fill="#8b949e">title_en</text>
</g>
<!-- Collection&#45;&gt;coll_title_en -->
<g id="edge4" class="edge">
<title>Collection&#45;&gt;coll_title_en</title>
<path fill="none" stroke="#484f58" stroke-dasharray="1,5" d="M602.23,-180.1C572.4,-158.5 523.89,-123.39 496.49,-103.55"/>
</g>
<!-- Chapter -->
<g id="node2" class="node">
<title>Chapter</title>
<polygon fill="#21262d" stroke="#58a6ff" stroke-width="1.8" points="965.02,-262.13 901.77,-262.13 901.77,-226.13 965.02,-226.13 965.02,-262.13"/>
<text xml:space="preserve" text-anchor="middle" x="933.39" y="-240.43" font-family="DejaVu Sans Mono" font-size="11.00" fill="#e6edf3">Chapter</text>
</g>
<!-- Chapter&#45;&gt;Contains_CollCh -->
<g id="edge43" class="edge">
<title>Chapter&#45;&gt;Contains_CollCh</title>
<path fill="none" stroke="#8b949e" stroke-width="1.4" d="M915.34,-226.09C889.76,-198.45 842.45,-147.31 819.44,-122.44"/>
<path fill="none" stroke="#8b949e" stroke-width="1.4" d="M916.81,-224.73C891.23,-197.09 843.92,-145.95 820.9,-121.08"/>
</g>
<!-- ClassifiedUnder -->
<g id="node10" class="node">
<title>ClassifiedUnder</title>
<polygon fill="#342612" stroke="#d29922" stroke-width="1.4" points="849.34,-443.22 752.42,-425.22 849.34,-407.22 946.25,-425.22 849.34,-443.22"/>
<text xml:space="preserve" text-anchor="middle" x="849.34" y="-422.1" font-family="DejaVu Sans Mono" font-size="10.00" fill="#e6edf3">Classified Under</text>
</g>
<!-- Chapter&#45;&gt;ClassifiedUnder -->
<g id="edge46" class="edge">
<title>Chapter&#45;&gt;ClassifiedUnder</title>
<path fill="none" stroke="#8b949e" stroke-width="1.4" d="M919.4,-274.27C901.6,-312.62 871.46,-377.56 857.23,-408.22"/>
<polygon fill="none" stroke="#8b949e" stroke-width="1.4" points="922.68,-276.35 923.82,-264.75 915.7,-273.11 922.68,-276.35"/>
</g>
<!-- chap_id -->
<g id="node20" class="node">
<title>chap_id</title>
<ellipse fill="#161b22" stroke="#6e7681" cx="1021.97" cy="-76.84" rx="40.53" ry="18"/>
<text xml:space="preserve" text-anchor="start" x="995.72" y="-74.92" font-family="DejaVu Sans Mono" text-decoration="underline" font-size="9.00" fill="#8b949e">chapter_id</text>
</g>
<!-- Chapter&#45;&gt;chap_id -->
<g id="edge5" class="edge">
<title>Chapter&#45;&gt;chap_id</title>
<path fill="none" stroke="#e3b341" stroke-width="1.4" d="M943.38,-225.27C960.62,-192.71 995.72,-126.42 1012.55,-94.63"/>
</g>
<!-- chap_title_ar -->
<g id="node21" class="node">
<title>chap_title_ar</title>
<ellipse fill="#161b22" stroke="#6e7681" cx="1112.91" cy="-170.16" rx="34.32" ry="18"/>
<text xml:space="preserve" text-anchor="middle" x="1112.91" y="-167.23" font-family="DejaVu Sans Mono" font-size="9.00" fill="#8b949e">title_ar</text>
</g>
<!-- Chapter&#45;&gt;chap_title_ar -->
<g id="edge6" class="edge">
<title>Chapter&#45;&gt;chap_title_ar</title>
<path fill="none" stroke="#484f58" stroke-dasharray="1,5" d="M965.9,-230.74C1000.15,-216.62 1053.5,-194.64 1085.63,-181.4"/>
</g>
<!-- Hadith -->
<g id="node3" class="node">
<title>Hadith</title>
<polygon fill="#21262d" stroke="#58a6ff" stroke-width="1.8" points="729.71,-626.81 673.21,-626.81 673.21,-590.81 729.71,-590.81 729.71,-626.81"/>
<text xml:space="preserve" text-anchor="middle" x="701.46" y="-605.11" font-family="DejaVu Sans Mono" font-size="11.00" fill="#e6edf3">Hadith</text>
</g>
<!-- Hadith&#45;&gt;CollectedIn -->
<g id="edge45" class="edge">
<title>Hadith&#45;&gt;CollectedIn</title>
<path fill="none" stroke="#8b949e" stroke-width="1.4" d="M699.28,-590.35C697.64,-568.72 694.02,-531.91 686.87,-501.14 679.26,-468.27 665.33,-431.21 656.93,-410.25"/>
<path fill="none" stroke="#8b949e" stroke-width="1.4" d="M701.28,-590.2C699.63,-568.52 696.01,-531.71 688.82,-500.69 681.13,-467.57 667.2,-430.5 658.79,-409.5"/>
</g>
<!-- Hadith&#45;&gt;ClassifiedUnder -->
<g id="edge47" class="edge">
<title>Hadith&#45;&gt;ClassifiedUnder</title>
<path fill="none" stroke="#8b949e" stroke-width="1.4" d="M726.06,-590.11C750.73,-570.26 788.39,-536.82 812.21,-500.71 824.68,-481.82 835.66,-458.13 842.38,-442.38"/>
</g>
<!-- HasChainPosition -->
<g id="node11" class="node">
<title>HasChainPosition</title>
<polygon fill="#342612" stroke="#d29922" stroke-width="1.4" points="839.02,-812.74 769.02,-779.24 839.02,-745.74 909.02,-779.24 839.02,-812.74"/>
<polygon fill="none" stroke="#d29922" stroke-width="1.4" points="839.02,-817.17 759.75,-779.24 839.02,-741.3 918.28,-779.24 839.02,-817.17"/>
<text xml:space="preserve" text-anchor="middle" x="839.02" y="-782.49" font-family="DejaVu Sans Mono" font-size="10.00" fill="#e6edf3">Has Chain</text>
<text xml:space="preserve" text-anchor="middle" x="839.02" y="-769.74" font-family="DejaVu Sans Mono" font-size="10.00" fill="#e6edf3">Position</text>
</g>
<!-- Hadith&#45;&gt;HasChainPosition -->
<g id="edge48" class="edge">
<title>Hadith&#45;&gt;HasChainPosition</title>
<path fill="none" stroke="#8b949e" stroke-width="1.4" d="M724.78,-637.7C750.44,-669.49 791.39,-720.23 816.66,-751.54"/>
<polygon fill="#8b949e" stroke="#8b949e" stroke-width="1.4" points="727.94,-635.49 718.04,-629.35 721.95,-640.32 727.94,-635.49"/>
</g>
<!-- TranslatedAs -->
<g id="node15" class="node">
<title>TranslatedAs</title>
<polygon fill="#342612" stroke="#d29922" stroke-width="1.4" points="400.7,-698.5 319.36,-680.5 400.7,-662.5 482.04,-680.5 400.7,-698.5"/>
<polygon fill="none" stroke="#d29922" stroke-width="1.4" points="400.7,-702.6 300.85,-680.5 400.7,-658.41 500.55,-680.5 400.7,-702.6"/>
<text xml:space="preserve" text-anchor="middle" x="400.7" y="-677.38" font-family="DejaVu Sans Mono" font-size="10.00" fill="#e6edf3">Translated As</text>
</g>
<!-- Hadith&#45;&gt;TranslatedAs -->
<g id="edge56" class="edge">
<title>Hadith&#45;&gt;TranslatedAs</title>
<path fill="none" stroke="#8b949e" stroke-width="1.4" d="M660.59,-627.67C639.69,-636.79 613.67,-647.34 589.65,-654.8 554.87,-665.6 515.1,-671.86 481.04,-675.5"/>
<polygon fill="#8b949e" stroke="#8b949e" stroke-width="1.4" points="662.13,-631.2 670.62,-623.23 659.01,-624.17 662.13,-631.2"/>
</g>
<!-- h_id -->
<g id="node22" class="node">
<title>h_id</title>
<ellipse fill="#161b22" stroke="#6e7681" cx="558.71" cy="-638.73" rx="37.42" ry="18"/>
<text xml:space="preserve" text-anchor="start" x="535.08" y="-636.8" font-family="DejaVu Sans Mono" text-decoration="underline" font-size="9.00" fill="#8b949e">hadith_id</text>
</g>
<!-- Hadith&#45;&gt;h_id -->
<g id="edge7" class="edge">
<title>Hadith&#45;&gt;h_id</title>
<path fill="none" stroke="#e3b341" stroke-width="1.4" d="M672.57,-614.86C649.68,-619.66 617.62,-626.38 593.35,-631.47"/>
</g>
<!-- h_num -->
<g id="node23" class="node">
<title>h_num</title>
<ellipse fill="#161b22" stroke="#6e7681" cx="765.09" cy="-500.71" rx="40.53" ry="18"/>
<text xml:space="preserve" text-anchor="middle" x="765.09" y="-497.79" font-family="DejaVu Sans Mono" font-size="9.00" fill="#8b949e">hadith_num</text>
</g>
<!-- Hadith&#45;&gt;h_num -->
<g id="edge8" class="edge">
<title>Hadith&#45;&gt;h_num</title>
<path fill="none" stroke="#484f58" stroke-dasharray="1,5" d="M712.55,-589.98C724.44,-569.78 743.18,-537.95 754.77,-518.25"/>
</g>
<!-- h_text_plain -->
<g id="node24" class="node">
<title>h_text_plain</title>
<ellipse fill="#161b22" stroke="#6e7681" cx="806.01" cy="-623.57" rx="40.53" ry="18"/>
<text xml:space="preserve" text-anchor="middle" x="806.01" y="-620.65" font-family="DejaVu Sans Mono" font-size="9.00" fill="#8b949e">text_plain</text>
</g>
<!-- Hadith&#45;&gt;h_text_plain -->
<g id="edge9" class="edge">
<title>Hadith&#45;&gt;h_text_plain</title>
<path fill="none" stroke="#484f58" stroke-dasharray="1,5" d="M730.59,-612.92C741.82,-614.51 754.85,-616.35 766.88,-618.05"/>
</g>
<!-- h_text_diac -->
<g id="node25" class="node">
<title>h_text_diac</title>
<ellipse fill="#161b22" stroke="#6e7681" cx="656.56" cy="-744.7" rx="37.42" ry="18"/>
<text xml:space="preserve" text-anchor="middle" x="656.56" y="-741.77" font-family="DejaVu Sans Mono" font-size="9.00" fill="#8b949e">text_diac</text>
</g>
<!-- Hadith&#45;&gt;h_text_diac -->
<g id="edge10" class="edge">
<title>Hadith&#45;&gt;h_text_diac</title>
<path fill="none" stroke="#484f58" stroke-dasharray="1,5" d="M695.22,-627.7C686.54,-653.96 670.95,-701.13 662.46,-726.83"/>
</g>
<!-- h_matn_plain -->
<g id="node26" class="node">
<title>h_matn_plain</title>
<ellipse fill="#161b22" stroke="#6e7681" cx="640.73" cy="-500.91" rx="40.53" ry="18"/>
<text xml:space="preserve" text-anchor="middle" x="640.73" y="-497.99" font-family="DejaVu Sans Mono" font-size="9.00" fill="#8b949e">matn_plain</text>
</g>
<!-- Hadith&#45;&gt;h_matn_plain -->
<g id="edge11" class="edge">
<title>Hadith&#45;&gt;h_matn_plain</title>
<path fill="none" stroke="#484f58" stroke-dasharray="1,5" d="M690.88,-590.01C679.6,-569.97 661.86,-538.46 650.78,-518.77"/>
</g>
<!-- h_matn_diac -->
<g id="node27" class="node">
<title>h_matn_diac</title>
<ellipse fill="#161b22" stroke="#6e7681" cx="863.05" cy="-544.78" rx="37.42" ry="18"/>
<text xml:space="preserve" text-anchor="middle" x="863.05" y="-541.85" font-family="DejaVu Sans Mono" font-size="9.00" fill="#8b949e">matn_diac</text>
</g>
<!-- Hadith&#45;&gt;h_matn_diac -->
<g id="edge12" class="edge">
<title>Hadith&#45;&gt;h_matn_diac</title>
<path fill="none" stroke="#484f58" stroke-dasharray="1,5" d="M730.35,-597.36C759.58,-585.78 804.53,-567.97 833.87,-556.34"/>
</g>
<!-- h_sanad_count -->
<g id="node28" class="node">
<title>h_sanad_count</title>
<ellipse fill="#161b22" stroke="#6e7681" cx="555.41" cy="-740.61" rx="43.64" ry="18"/>
<text xml:space="preserve" text-anchor="middle" x="555.41" y="-737.69" font-family="DejaVu Sans Mono" font-size="9.00" fill="#8b949e">sanad_count</text>
</g>
<!-- Hadith&#45;&gt;h_sanad_count -->
<g id="edge13" class="edge">
<title>Hadith&#45;&gt;h_sanad_count</title>
<path fill="none" stroke="#484f58" stroke-dasharray="1,5" d="M680.54,-627.69C651.98,-653.46 601.25,-699.24 573.98,-723.85"/>
</g>
<!-- h_chain_str -->
<g id="node29" class="node">
<title>h_chain_str</title>
<ellipse fill="#161b22" stroke="#6e7681" stroke-dasharray="5,2" cx="527.14" cy="-546.06" rx="52.96" ry="18"/>
<text xml:space="preserve" text-anchor="middle" x="527.14" y="-543.13" font-family="DejaVu Sans Mono" font-size="9.00" fill="#8b949e">chain_strength</text>
</g>
<!-- Hadith&#45;&gt;h_chain_str -->
<g id="edge14" class="edge">
<title>Hadith&#45;&gt;h_chain_str</title>
<path fill="none" stroke="#484f58" stroke-dasharray="1,5" d="M672.68,-598.45C642.99,-587.76 596.58,-571.05 564.18,-559.39"/>
</g>
<!-- Narrator -->
<g id="node4" class="node">
<title>Narrator</title>
<polygon fill="#21262d" stroke="#58a6ff" stroke-width="1.8" points="1093.42,-1387.9 1023.42,-1387.9 1023.42,-1351.9 1093.42,-1351.9 1093.42,-1387.9"/>
<text xml:space="preserve" text-anchor="middle" x="1058.42" y="-1366.2" font-family="DejaVu Sans Mono" font-size="11.00" fill="#e6edf3">Narrator</text>
</g>
<!-- NarratedBy -->
<g id="node12" class="node">
<title>NarratedBy</title>
<polygon fill="#342612" stroke="#d29922" stroke-width="1.4" points="1007.78,-1146.14 936.82,-1128.14 1007.78,-1110.14 1078.73,-1128.14 1007.78,-1146.14"/>
<text xml:space="preserve" text-anchor="middle" x="1007.78" y="-1125.02" font-family="DejaVu Sans Mono" font-size="10.00" fill="#e6edf3">Narrated By</text>
</g>
<!-- Narrator&#45;&gt;NarratedBy -->
<g id="edge51" class="edge">
<title>Narrator&#45;&gt;NarratedBy</title>
<path fill="none" stroke="#8b949e" stroke-width="1.4" d="M1051.84,-1338.5C1041.06,-1287.04 1019.99,-1186.42 1011.47,-1145.79"/>
<polygon fill="none" stroke="#8b949e" stroke-width="1.4" points="1048.07,-1339.28 1054.1,-1349.26 1055.61,-1337.7 1048.07,-1339.28"/>
</g>
<!-- GradedIH -->
<g id="node13" class="node">
<title>GradedIH</title>
<polygon fill="#342612" stroke="#d29922" stroke-width="1.4" points="1314.55,-1428.27 1232.55,-1394.77 1314.55,-1361.27 1396.55,-1394.77 1314.55,-1428.27"/>
<text xml:space="preserve" text-anchor="middle" x="1314.55" y="-1398.02" font-family="DejaVu Sans Mono" font-size="10.00" fill="#e6edf3">Graded</text>
<text xml:space="preserve" text-anchor="middle" x="1314.55" y="-1385.27" font-family="DejaVu Sans Mono" font-size="10.00" fill="#e6edf3">(Ibn Hajar)</text>
</g>
<!-- Narrator&#45;&gt;GradedIH -->
<g id="edge52" class="edge">
<title>Narrator&#45;&gt;GradedIH</title>
<path fill="none" stroke="#8b949e" stroke-width="1.4" d="M1094.3,-1373.46C1118.08,-1375.82 1149.97,-1378.96 1178.14,-1381.7 1200.52,-1383.88 1224.96,-1386.23 1246.9,-1388.33"/>
</g>
<!-- GradedDh -->
<g id="node14" class="node">
<title>GradedDh</title>
<polygon fill="#342612" stroke="#d29922" stroke-width="1.4" points="1275.05,-1515.35 1187.05,-1481.85 1275.05,-1448.35 1363.05,-1481.85 1275.05,-1515.35"/>
<text xml:space="preserve" text-anchor="middle" x="1275.05" y="-1485.1" font-family="DejaVu Sans Mono" font-size="10.00" fill="#e6edf3">Graded</text>
<text xml:space="preserve" text-anchor="middle" x="1275.05" y="-1472.35" font-family="DejaVu Sans Mono" font-size="10.00" fill="#e6edf3">(al&#45;Dhahabi)</text>
</g>
<!-- Narrator&#45;&gt;GradedDh -->
<g id="edge54" class="edge">
<title>Narrator&#45;&gt;GradedDh</title>
<path fill="none" stroke="#8b949e" stroke-width="1.4" d="M1094.19,-1388.39C1133.61,-1408.76 1196.75,-1441.39 1237.04,-1462.21"/>
</g>
<!-- n_id -->
<g id="node30" class="node">
<title>n_id</title>
<ellipse fill="#161b22" stroke="#6e7681" cx="1176.4" cy="-1241.68" rx="43.64" ry="18"/>
<text xml:space="preserve" text-anchor="start" x="1147.52" y="-1239.75" font-family="DejaVu Sans Mono" text-decoration="underline" font-size="9.00" fill="#8b949e">narrator_id</text>
</g>
<!-- Narrator&#45;&gt;n_id -->
<g id="edge15" class="edge">
<title>Narrator&#45;&gt;n_id</title>
<path fill="none" stroke="#e3b341" stroke-width="1.4" d="M1075.58,-1351.26C1098.46,-1326.39 1138.63,-1282.72 1160.73,-1258.71"/>
</g>
<!-- n_display -->
<g id="node31" class="node">
<title>n_display</title>
<ellipse fill="#161b22" stroke="#6e7681" cx="1036.7" cy="-1507.15" rx="46.74" ry="18"/>
<text xml:space="preserve" text-anchor="middle" x="1036.7" y="-1504.22" font-family="DejaVu Sans Mono" font-size="9.00" fill="#8b949e">display_name</text>
</g>
<!-- Narrator&#45;&gt;n_display -->
<g id="edge16" class="edge">
<title>Narrator&#45;&gt;n_display</title>
<path fill="none" stroke="#484f58" stroke-dasharray="1,5" d="M1055.45,-1388.7C1051.27,-1415.13 1043.7,-1462.95 1039.57,-1489.02"/>
</g>
<!-- n_name -->
<g id="node32" class="node">
<title>n_name</title>
<ellipse fill="#161b22" stroke="#6e7681" cx="1267.07" cy="-1292.97" rx="27" ry="18"/>
<text xml:space="preserve" text-anchor="middle" x="1267.07" y="-1290.04" font-family="DejaVu Sans Mono" font-size="9.00" fill="#8b949e">name</text>
</g>
<!-- Narrator&#45;&gt;n_name -->
<g id="edge17" class="edge">
<title>Narrator&#45;&gt;n_name</title>
<path fill="none" stroke="#484f58" stroke-dasharray="1,5" d="M1094.29,-1356.68C1136.82,-1341 1206.52,-1315.3 1243.04,-1301.83"/>
</g>
<!-- n_name_norm -->
<g id="node33" class="node">
<title>n_name_norm</title>
<ellipse fill="#161b22" stroke="#6e7681" stroke-dasharray="5,2" cx="942.42" cy="-1287.31" rx="37.42" ry="18"/>
<text xml:space="preserve" text-anchor="middle" x="942.42" y="-1284.38" font-family="DejaVu Sans Mono" font-size="9.00" fill="#8b949e">name_norm</text>
</g>
<!-- Narrator&#45;&gt;n_name_norm -->
<g id="edge18" class="edge">
<title>Narrator&#45;&gt;n_name_norm</title>
<path fill="none" stroke="#484f58" stroke-dasharray="1,5" d="M1032.1,-1351.16C1011.38,-1336.41 982.87,-1316.11 963.6,-1302.39"/>
</g>
<!-- n_name_en -->
<g id="node34" class="node">
<title>n_name_en</title>
<ellipse fill="#161b22" stroke="#6e7681" cx="904.14" cy="-1476.18" rx="31.21" ry="18"/>
<text xml:space="preserve" text-anchor="middle" x="904.14" y="-1473.26" font-family="DejaVu Sans Mono" font-size="9.00" fill="#8b949e">name_en</text>
</g>
<!-- Narrator&#45;&gt;n_name_en -->
<g id="edge19" class="edge">
<title>Narrator&#45;&gt;n_name_en</title>
<path fill="none" stroke="#484f58" stroke-dasharray="1,5" d="M1031.19,-1388.66C1000.57,-1409.75 951.56,-1443.52 924.22,-1462.35"/>
</g>
<!-- n_kunya -->
<g id="node35" class="node">
<title>n_kunya</title>
<ellipse fill="#161b22" stroke="#6e7681" cx="1139.94" cy="-1515.29" rx="27" ry="18"/>
<text xml:space="preserve" text-anchor="middle" x="1139.94" y="-1512.37" font-family="DejaVu Sans Mono" font-size="9.00" fill="#8b949e">kunya</text>
</g>
<!-- Narrator&#45;&gt;n_kunya -->
<g id="edge20" class="edge">
<title>Narrator&#45;&gt;n_kunya</title>
<path fill="none" stroke="#484f58" stroke-dasharray="1,5" d="M1068.91,-1388.61C1084.82,-1416.99 1114.83,-1470.51 1130.25,-1498.01"/>
</g>
<!-- n_lineage -->
<g id="node36" class="node">
<title>n_lineage</title>
<ellipse fill="#161b22" stroke="#6e7681" cx="1081.47" cy="-1252.51" rx="31.21" ry="18"/>
<text xml:space="preserve" text-anchor="middle" x="1081.47" y="-1249.58" font-family="DejaVu Sans Mono" font-size="9.00" fill="#8b949e">lineage</text>
</g>
<!-- Narrator&#45;&gt;n_lineage -->
<g id="edge21" class="edge">
<title>Narrator&#45;&gt;n_lineage</title>
<path fill="none" stroke="#484f58" stroke-dasharray="1,5" d="M1062.13,-1351.04C1066.48,-1328.87 1073.65,-1292.36 1077.93,-1270.55"/>
</g>
<!-- n_relation -->
<g id="node37" class="node">
<title>n_relation</title>
<ellipse fill="#161b22" stroke="#6e7681" cx="1178.14" cy="-1358.97" rx="34.32" ry="18"/>
<text xml:space="preserve" text-anchor="middle" x="1178.14" y="-1356.05" font-family="DejaVu Sans Mono" font-size="9.00" fill="#8b949e">relation</text>
</g>
<!-- Narrator&#45;&gt;n_relation -->
<g id="edge22" class="edge">
<title>Narrator&#45;&gt;n_relation</title>
<path fill="none" stroke="#484f58" stroke-dasharray="1,5" d="M1094.02,-1366.65C1109.87,-1365.2 1128.46,-1363.51 1144.12,-1362.08"/>
</g>
<!-- n_tabaqa -->
<g id="node38" class="node">
<title>n_tabaqa</title>
<ellipse fill="#161b22" stroke="#6e7681" cx="1126.1" cy="-1576.29" rx="40.53" ry="18"/>
<text xml:space="preserve" text-anchor="middle" x="1126.1" y="-1573.36" font-family="DejaVu Sans Mono" font-size="9.00" fill="#8b949e">tabaqa_raw</text>
</g>
<!-- Narrator&#45;&gt;n_tabaqa -->
<g id="edge23" class="edge">
<title>Narrator&#45;&gt;n_tabaqa</title>
<path fill="none" stroke="#484f58" stroke-dasharray="1,5" d="M1064.55,-1388.58C1077.47,-1427.97 1107.36,-1519.13 1120.14,-1558.09"/>
</g>
<!-- n_school -->
<g id="node39" class="node">
<title>n_school</title>
<ellipse fill="#161b22" stroke="#6e7681" cx="824.64" cy="-1441.62" rx="28.11" ry="18"/>
<text xml:space="preserve" text-anchor="middle" x="824.64" y="-1438.7" font-family="DejaVu Sans Mono" font-size="9.00" fill="#8b949e">school</text>
</g>
<!-- Narrator&#45;&gt;n_school -->
<g id="edge24" class="edge">
<title>Narrator&#45;&gt;n_school</title>
<path fill="none" stroke="#484f58" stroke-dasharray="1,5" d="M1022.57,-1383.74C1010.79,-1388.11 997.58,-1392.83 985.36,-1396.77 938.49,-1411.91 883,-1426.72 851,-1434.96"/>
</g>
<!-- n_rank_ih_raw -->
<g id="node40" class="node">
<title>n_rank_ih_raw</title>
<ellipse fill="#161b22" stroke="#6e7681" cx="804.08" cy="-1338.88" rx="65.38" ry="18"/>
<text xml:space="preserve" text-anchor="middle" x="804.08" y="-1335.96" font-family="DejaVu Sans Mono" font-size="9.00" fill="#8b949e">rank_ibn_hajar_raw</text>
</g>
<!-- Narrator&#45;&gt;n_rank_ih_raw -->
<g id="edge25" class="edge">
<title>Narrator&#45;&gt;n_rank_ih_raw</title>
<path fill="none" stroke="#484f58" stroke-dasharray="1,5" d="M1022.79,-1365.56C981.77,-1360.55 913.73,-1352.25 864.42,-1346.24"/>
</g>
<!-- n_rank_dh_raw -->
<g id="node41" class="node">
<title>n_rank_dh_raw</title>
<ellipse fill="#161b22" stroke="#6e7681" cx="1006.29" cy="-1588.38" rx="59.17" ry="18"/>
<text xml:space="preserve" text-anchor="middle" x="1006.29" y="-1585.46" font-family="DejaVu Sans Mono" font-size="9.00" fill="#8b949e">rank_dhahabi_raw</text>
</g>
<!-- Narrator&#45;&gt;n_rank_dh_raw -->
<g id="edge26" class="edge">
<title>Narrator&#45;&gt;n_rank_dh_raw</title>
<path fill="none" stroke="#484f58" stroke-dasharray="1,5" d="M1041.75,-1388.65C1021.13,-1413.61 988.11,-1460.11 982.86,-1507.15 980.37,-1529.47 989.22,-1554.13 996.75,-1570.35"/>
</g>
<!-- n_dod -->
<g id="node42" class="node">
<title>n_dod</title>
<ellipse fill="#161b22" stroke="#6e7681" cx="877.16" cy="-1541.95" rx="49.85" ry="18"/>
<text xml:space="preserve" text-anchor="middle" x="877.16" y="-1539.03" font-family="DejaVu Sans Mono" font-size="9.00" fill="#8b949e">date_of_death</text>
</g>
<!-- Narrator&#45;&gt;n_dod -->
<g id="edge27" class="edge">
<title>Narrator&#45;&gt;n_dod</title>
<path fill="none" stroke="#484f58" stroke-dasharray="1,5" d="M1038.95,-1388.62C1013.9,-1412.69 969,-1455.72 930.33,-1492.26 918.75,-1503.19 905.69,-1515.4 895.41,-1524.98"/>
</g>
<!-- n_is_ph -->
<g id="node43" class="node">
<title>n_is_ph</title>
<ellipse fill="#161b22" stroke="#6e7681" cx="942.53" cy="-1380.7" rx="52.96" ry="18"/>
<text xml:space="preserve" text-anchor="middle" x="942.53" y="-1377.78" font-family="DejaVu Sans Mono" font-size="9.00" fill="#8b949e">is_placeholder</text>
</g>
<!-- Narrator&#45;&gt;n_is_ph -->
<g id="edge28" class="edge">
<title>Narrator&#45;&gt;n_is_ph</title>
<path fill="none" stroke="#484f58" stroke-dasharray="1,5" d="M1022.71,-1373.23C1013.66,-1374.07 1003.76,-1375 994.11,-1375.9"/>
</g>
<!-- RankLevel -->
<g id="node5" class="node">
<title>RankLevel</title>
<polygon fill="#21262d" stroke="#58a6ff" stroke-width="1.8" points="1512.08,-1536.68 1435.33,-1536.68 1435.33,-1500.68 1512.08,-1500.68 1512.08,-1536.68"/>
<text xml:space="preserve" text-anchor="middle" x="1473.7" y="-1514.98" font-family="DejaVu Sans Mono" font-size="11.00" fill="#e6edf3">RankLevel</text>
</g>
<!-- RankLevel&#45;&gt;GradedIH -->
<g id="edge53" class="edge">
<title>RankLevel&#45;&gt;GradedIH</title>
<path fill="none" stroke="#8b949e" stroke-width="1.4" d="M1439.54,-1492.08C1410.85,-1469.74 1370.32,-1438.19 1343.27,-1417.13"/>
<polygon fill="none" stroke="#8b949e" stroke-width="1.4" points="1436.81,-1494.84 1447.86,-1498.56 1441.55,-1488.76 1436.81,-1494.84"/>
</g>
<!-- RankLevel&#45;&gt;GradedDh -->
<g id="edge55" class="edge">
<title>RankLevel&#45;&gt;GradedDh</title>
<path fill="none" stroke="#8b949e" stroke-width="1.4" d="M1421.6,-1509.02C1395.14,-1504.12 1362.87,-1498.13 1335.35,-1493.03"/>
<polygon fill="none" stroke="#8b949e" stroke-width="1.4" points="1420.85,-1512.8 1432.37,-1511.02 1422.26,-1505.23 1420.85,-1512.8"/>
</g>
<!-- rl_code -->
<g id="node44" class="node">
<title>rl_code</title>
<ellipse fill="#161b22" stroke="#6e7681" cx="1474.76" cy="-1733.27" rx="37.42" ry="18"/>
<text xml:space="preserve" text-anchor="start" x="1451.14" y="-1731.34" font-family="DejaVu Sans Mono" text-decoration="underline" font-size="9.00" fill="#8b949e">rank_code</text>
</g>
<!-- RankLevel&#45;&gt;rl_code -->
<g id="edge29" class="edge">
<title>RankLevel&#45;&gt;rl_code</title>
<path fill="none" stroke="#e3b341" stroke-width="1.4" d="M1473.8,-1537.35C1474,-1578.03 1474.47,-1674.29 1474.67,-1714.8"/>
</g>
<!-- rl_label -->
<g id="node45" class="node">
<title>rl_label</title>
<ellipse fill="#161b22" stroke="#6e7681" cx="1583.39" cy="-1660.35" rx="34.32" ry="18"/>
<text xml:space="preserve" text-anchor="middle" x="1583.39" y="-1657.42" font-family="DejaVu Sans Mono" font-size="9.00" fill="#8b949e">label_ar</text>
</g>
<!-- RankLevel&#45;&gt;rl_label -->
<g id="edge30" class="edge">
<title>RankLevel&#45;&gt;rl_label</title>
<path fill="none" stroke="#484f58" stroke-dasharray="1,5" d="M1488.27,-1537.49C1509.83,-1565.34 1549.9,-1617.1 1570.47,-1643.66"/>
</g>
<!-- rl_ord -->
<g id="node46" class="node">
<title>rl_ord</title>
<ellipse fill="#161b22" stroke="#6e7681" cx="1654.21" cy="-1412.83" rx="31.21" ry="18"/>
<text xml:space="preserve" text-anchor="middle" x="1654.21" y="-1409.9" font-family="DejaVu Sans Mono" font-size="9.00" fill="#8b949e">ordinal</text>
</g>
<!-- RankLevel&#45;&gt;rl_ord -->
<g id="edge31" class="edge">
<title>RankLevel&#45;&gt;rl_ord</title>
<path fill="none" stroke="#484f58" stroke-dasharray="1,5" d="M1505.56,-1500C1541.89,-1478.69 1600.36,-1444.41 1632.05,-1425.82"/>
</g>
<!-- rl_weight -->
<g id="node47" class="node">
<title>rl_weight</title>
<ellipse fill="#161b22" stroke="#6e7681" cx="1654.55" cy="-1532.42" rx="28.11" ry="18"/>
<text xml:space="preserve" text-anchor="middle" x="1654.55" y="-1529.5" font-family="DejaVu Sans Mono" font-size="9.00" fill="#8b949e">weight</text>
</g>
<!-- RankLevel&#45;&gt;rl_weight -->
<g id="edge32" class="edge">
<title>RankLevel&#45;&gt;rl_weight</title>
<path fill="none" stroke="#484f58" stroke-dasharray="1,5" d="M1512.94,-1521.66C1547.12,-1524.26 1595.85,-1527.96 1626.31,-1530.28"/>
</g>
<!-- IsnadLink -->
<g id="node6" class="node">
<title>IsnadLink</title>
<polygon fill="#1f2937" stroke="#79c0ff" stroke-width="1.8" points="1036.91,-934.48 960.16,-934.48 960.16,-898.48 1036.91,-898.48 1036.91,-934.48"/>
<polygon fill="none" stroke="#79c0ff" stroke-width="1.8" points="1040.91,-938.48 956.16,-938.48 956.16,-894.48 1040.91,-894.48 1040.91,-938.48"/>
<text xml:space="preserve" text-anchor="middle" x="998.54" y="-912.78" font-family="DejaVu Sans Mono" font-size="11.00" fill="#e6edf3">IsnadLink</text>
</g>
<!-- IsnadLink&#45;&gt;HasChainPosition -->
<g id="edge49" class="edge">
<title>IsnadLink&#45;&gt;HasChainPosition</title>
<path fill="none" stroke="#8b949e" stroke-width="1.4" d="M971.54,-894.57C942.78,-869.83 896.87,-830.33 867.18,-804.78"/>
<path fill="none" stroke="#8b949e" stroke-width="1.4" d="M972.85,-893.06C944.09,-868.31 898.18,-828.82 868.48,-803.27"/>
</g>
<!-- IsnadLink&#45;&gt;NarratedBy -->
<g id="edge50" class="edge">
<title>IsnadLink&#45;&gt;NarratedBy</title>
<path fill="none" stroke="#8b949e" stroke-width="1.4" d="M999.53,-939.13C1001.36,-981.25 1005.28,-1070.88 1006.97,-1109.64"/>
</g>
<!-- il_sanad -->
<g id="node48" class="node">
<title>il_sanad</title>
<ellipse fill="#161b22" stroke="#6e7681" cx="1065.55" cy="-800.33" rx="34.32" ry="18"/>
<text xml:space="preserve" text-anchor="start" x="1044.55" y="-798.4" font-family="DejaVu Sans Mono" text-decoration="underline" font-size="9.00" fill="#8b949e">sanad_no</text>
</g>
<!-- IsnadLink&#45;&gt;il_sanad -->
<g id="edge33" class="edge">
<title>IsnadLink&#45;&gt;il_sanad</title>
<path fill="none" stroke="#e3b341" stroke-width="1.4" stroke-dasharray="5,2" d="M1011.62,-893.81C1024.41,-871.62 1043.64,-838.3 1055.35,-818.01"/>
</g>
<!-- il_pos -->
<g id="node49" class="node">
<title>il_pos</title>
<ellipse fill="#161b22" stroke="#6e7681" cx="1239.39" cy="-822.88" rx="34.32" ry="18"/>
<text xml:space="preserve" text-anchor="start" x="1218.39" y="-820.96" font-family="DejaVu Sans Mono" text-decoration="underline" font-size="9.00" fill="#8b949e">position</text>
</g>
<!-- IsnadLink&#45;&gt;il_pos -->
<g id="edge34" class="edge">
<title>IsnadLink&#45;&gt;il_pos</title>
<path fill="none" stroke="#e3b341" stroke-width="1.4" stroke-dasharray="5,2" d="M1041.6,-899.74C1090.71,-880.66 1169.6,-850 1211.36,-833.77"/>
</g>
<!-- il_raw -->
<g id="node50" class="node">
<title>il_raw</title>
<ellipse fill="#161b22" stroke="#6e7681" cx="1157.83" cy="-766.88" rx="34.32" ry="18"/>
<text xml:space="preserve" text-anchor="middle" x="1157.83" y="-763.96" font-family="DejaVu Sans Mono" font-size="9.00" fill="#8b949e">raw_name</text>
</g>
<!-- IsnadLink&#45;&gt;il_raw -->
<g id="edge35" class="edge">
<title>IsnadLink&#45;&gt;il_raw</title>
<path fill="none" stroke="#484f58" stroke-dasharray="1,5" d="M1022.73,-893.76C1055.28,-863.19 1112.37,-809.58 1140.77,-782.9"/>
</g>
<!-- il_trans -->
<g id="node51" class="node">
<title>il_trans</title>
<ellipse fill="#161b22" stroke="#6e7681" cx="855.99" cy="-975.1" rx="62.28" ry="18"/>
<text xml:space="preserve" text-anchor="middle" x="855.99" y="-972.18" font-family="DejaVu Sans Mono" font-size="9.00" fill="#8b949e">transmission_word</text>
</g>
<!-- IsnadLink&#45;&gt;il_trans -->
<g id="edge36" class="edge">
<title>IsnadLink&#45;&gt;il_trans</title>
<path fill="none" stroke="#484f58" stroke-dasharray="1,5" d="M955.38,-934.23C935.22,-942.52 911.49,-952.28 892.27,-960.18"/>
</g>
<!-- il_comp -->
<g id="node52" class="node">
<title>il_comp</title>
<ellipse fill="#161b22" stroke="#6e7681" cx="1221.79" cy="-898.51" rx="43.64" ry="18"/>
<text xml:space="preserve" text-anchor="middle" x="1221.79" y="-895.58" font-family="DejaVu Sans Mono" font-size="9.00" fill="#8b949e">is_compiler</text>
</g>
<!-- IsnadLink&#45;&gt;il_comp -->
<g id="edge37" class="edge">
<title>IsnadLink&#45;&gt;il_comp</title>
<path fill="none" stroke="#484f58" stroke-dasharray="1,5" d="M1041.66,-907.28C1055.26,-904.4 1070.35,-901.24 1084.2,-898.39 1084.49,-898.33 1137.83,-898.39 1178,-898.45"/>
</g>
<!-- il_res -->
<g id="node53" class="node">
<title>il_res</title>
<ellipse fill="#161b22" stroke="#6e7681" cx="1117.52" cy="-914.47" rx="40.53" ry="18"/>
<text xml:space="preserve" text-anchor="middle" x="1117.52" y="-911.54" font-family="DejaVu Sans Mono" font-size="9.00" fill="#8b949e">resolution</text>
</g>
<!-- IsnadLink&#45;&gt;il_res -->
<g id="edge38" class="edge">
<title>IsnadLink&#45;&gt;il_res</title>
<path fill="none" stroke="#484f58" stroke-dasharray="1,5" d="M1041.49,-915.75C1052.94,-915.56 1065.28,-915.35 1076.61,-915.16"/>
</g>
<!-- Translation -->
<g id="node7" class="node">
<title>Translation</title>
<polygon fill="#1f2937" stroke="#79c0ff" stroke-width="1.8" points="253.76,-722.88 163.51,-722.88 163.51,-686.88 253.76,-686.88 253.76,-722.88"/>
<polygon fill="none" stroke="#79c0ff" stroke-width="1.8" points="257.76,-726.88 159.51,-726.88 159.51,-682.88 257.76,-682.88 257.76,-726.88"/>
<text xml:space="preserve" text-anchor="middle" x="208.63" y="-701.18" font-family="DejaVu Sans Mono" font-size="11.00" fill="#e6edf3">Translation</text>
</g>
<!-- Translation&#45;&gt;TranslatedAs -->
<g id="edge57" class="edge">
<title>Translation&#45;&gt;TranslatedAs</title>
<path fill="none" stroke="#8b949e" stroke-width="1.4" d="M258.47,-697.54C281.92,-694.57 310.18,-690.98 335.3,-687.8"/>
<path fill="none" stroke="#8b949e" stroke-width="1.4" d="M258.72,-699.53C282.17,-696.55 310.43,-692.97 335.55,-689.78"/>
</g>
<!-- tr_lang -->
<g id="node54" class="node">
<title>tr_lang</title>
<ellipse fill="#161b22" stroke="#6e7681" cx="27" cy="-720" rx="27" ry="18"/>
<text xml:space="preserve" text-anchor="start" x="16.5" y="-718.08" font-family="DejaVu Sans Mono" text-decoration="underline" font-size="9.00" fill="#8b949e">lang</text>
</g>
<!-- Translation&#45;&gt;tr_lang -->
<g id="edge39" class="edge">
<title>Translation&#45;&gt;tr_lang</title>
<path fill="none" stroke="#e3b341" stroke-width="1.4" stroke-dasharray="5,2" d="M159,-709.01C125.18,-711.83 81.69,-715.45 54.07,-717.75"/>
</g>
<!-- tr_text -->
<g id="node55" class="node">
<title>tr_text</title>
<ellipse fill="#161b22" stroke="#6e7681" cx="81.17" cy="-851.9" rx="37.42" ry="18"/>
<text xml:space="preserve" text-anchor="middle" x="81.17" y="-848.97" font-family="DejaVu Sans Mono" font-size="9.00" fill="#8b949e">text_full</text>
</g>
<!-- Translation&#45;&gt;tr_text -->
<g id="edge40" class="edge">
<title>Translation&#45;&gt;tr_text</title>
<path fill="none" stroke="#484f58" stroke-dasharray="1,5" d="M189,-727.53C163.3,-757.17 118.83,-808.45 95.86,-834.95"/>
</g>
<!-- tr_source -->
<g id="node56" class="node">
<title>tr_source</title>
<ellipse fill="#161b22" stroke="#6e7681" cx="64.01" cy="-575.52" rx="28.11" ry="18"/>
<text xml:space="preserve" text-anchor="middle" x="64.01" y="-572.59" font-family="DejaVu Sans Mono" font-size="9.00" fill="#8b949e">source</text>
</g>
<!-- Translation&#45;&gt;tr_source -->
<g id="edge41" class="edge">
<title>Translation&#45;&gt;tr_source</title>
<path fill="none" stroke="#484f58" stroke-dasharray="1,5" d="M183.11,-682.05C153.59,-655.65 105.85,-612.94 80.71,-590.46"/>
</g>
</g>
</svg>
