<?xml version="1.0" encoding="UTF-8" standalone="no"?>
<!DOCTYPE svg PUBLIC "-//W3C//DTD SVG 1.1//EN"
 "http://www.w3.org/Graphics/SVG/1.1/DTD/svg11.dtd">
<!-- Generated by graphviz version 15.1.0 (0)
 -->
<!-- Title: ilham_app_study Pages: 1 -->
<svg width="2069pt" height="1199pt"
 viewBox="0.00 0.00 2069.00 1199.00" xmlns="http://www.w3.org/2000/svg" xmlns:xlink="http://www.w3.org/1999/xlink">
<g id="graph0" class="graph" transform="scale(1 1) rotate(0) translate(4 1194.69)">
<title>ilham_app_study</title>
<polygon fill="#0d1117" stroke="none" points="-4,4 -4,-1194.69 2064.85,-1194.69 2064.85,4 -4,4"/>
<g id="clust1" class="cluster">
<title>cluster_proc</title>
<path fill="#122117" stroke="#3fb950" stroke-width="2" d="M20,-166.57C20,-166.57 414,-166.57 414,-166.57 420,-166.57 426,-172.57 426,-178.57 426,-178.57 426,-438.57 426,-438.57 426,-444.57 420,-450.57 414,-450.57 414,-450.57 20,-450.57 20,-450.57 14,-450.57 8,-444.57 8,-438.57 8,-438.57 8,-178.57 8,-178.57 8,-172.57 14,-166.57 20,-166.57"/>
<text xml:space="preserve" text-anchor="middle" x="217" y="-434.22" font-family="DejaVu Sans Mono Bold" font-size="13.00" fill="#3fb950">app.assign_study_set(circle, set, due) — PROCEDURE</text>
</g>
<!-- teachers -->
<g id="node1" class="node">
<title>teachers</title>
<polygon fill="#1c2a22" stroke="#7ee787" stroke-width="2" points="1573.52,-1174.57 1497.52,-1174.57 1497.52,-1138.57 1573.52,-1138.57 1573.52,-1174.57"/>
<text xml:space="preserve" text-anchor="middle" x="1535.52" y="-1152.47" font-family="DejaVu Sans Mono" font-size="13.00" fill="#e6edf3">teachers</text>
</g>
<!-- r_teaches -->
<g id="node12" class="node">
<title>r_teaches</title>
<polygon fill="#342612" stroke="#d29922" stroke-width="1.3" points="1784.94,-1162.57 1734.75,-1144.57 1784.94,-1126.57 1835.13,-1144.57 1784.94,-1162.57"/>
<polygon fill="none" stroke="#d29922" stroke-width="1.3" points="1784.94,-1166.82 1722.9,-1144.57 1784.94,-1122.32 1846.98,-1144.57 1784.94,-1166.82"/>
<text xml:space="preserve" text-anchor="middle" x="1784.94" y="-1141.44" font-family="DejaVu Sans Mono" font-size="10.00" fill="#e6edf3">teaches</text>
</g>
<!-- teachers&#45;&#45;r_teaches -->
<g id="edge6" class="edge">
<title>teachers&#45;&#45;r_teaches</title>
<path fill="none" stroke="#8b949e" stroke-width="1.4" d="M1574.37,-1154.73C1615.52,-1152.74 1681.69,-1149.53 1728.66,-1147.25"/>
<text xml:space="preserve" text-anchor="middle" x="1577.75" y="-1144.28" font-family="DejaVu Sans Mono" font-size="11.00" fill="#c9d1d9">1</text>
</g>
<!-- students -->
<g id="node2" class="node">
<title>students</title>
<polygon fill="#1c2a22" stroke="#7ee787" stroke-width="2" points="1573.52,-932.57 1497.52,-932.57 1497.52,-896.57 1573.52,-896.57 1573.52,-932.57"/>
<text xml:space="preserve" text-anchor="middle" x="1535.52" y="-910.47" font-family="DejaVu Sans Mono" font-size="13.00" fill="#e6edf3">students</text>
</g>
<!-- circles -->
<g id="node3" class="node">
<title>circles</title>
<polygon fill="#1c2a22" stroke="#3fb950" stroke-width="1.7" points="2049.6,-954.57 1981.1,-954.57 1981.1,-918.57 2049.6,-918.57 2049.6,-954.57"/>
<text xml:space="preserve" text-anchor="middle" x="2015.35" y="-932.29" font-family="DejaVu Sans Mono" font-size="12.00" fill="#e6edf3">circles</text>
</g>
<!-- study_sets -->
<g id="node4" class="node">
<title>study_sets</title>
<polygon fill="#1c2a22" stroke="#3fb950" stroke-width="1.7" points="2060.85,-301.57 1969.85,-301.57 1969.85,-265.57 2060.85,-265.57 2060.85,-301.57"/>
<text xml:space="preserve" text-anchor="middle" x="2015.35" y="-279.29" font-family="DejaVu Sans Mono" font-size="12.00" fill="#e6edf3">study_sets</text>
</g>
<!-- assignments -->
<g id="node5" class="node">
<title>assignments</title>
<polygon fill="#1c2a22" stroke="#3fb950" stroke-width="1.7" points="1584.77,-426.57 1486.27,-426.57 1486.27,-390.57 1584.77,-390.57 1584.77,-426.57"/>
<text xml:space="preserve" text-anchor="middle" x="1535.52" y="-404.29" font-family="DejaVu Sans Mono" font-size="12.00" fill="#e6edf3">assignments</text>
</g>
<!-- r_asg_circ -->
<g id="node16" class="node">
<title>r_asg_circ</title>
<polygon fill="#342612" stroke="#d29922" stroke-width="1.3" points="1784.94,-640.57 1719.18,-622.57 1784.94,-604.57 1850.7,-622.57 1784.94,-640.57"/>
<polygon fill="none" stroke="#d29922" stroke-width="1.3" points="1784.94,-644.71 1704.02,-622.57 1784.94,-600.42 1865.85,-622.57 1784.94,-644.71"/>
<text xml:space="preserve" text-anchor="middle" x="1784.94" y="-619.44" font-family="DejaVu Sans Mono" font-size="10.00" fill="#e6edf3">for_circle</text>
</g>
<!-- assignments&#45;&#45;r_asg_circ -->
<g id="edge14" class="edge">
<title>assignments&#45;&#45;r_asg_circ</title>
<path fill="none" stroke="#8b949e" stroke-width="1.4" d="M1558.05,-427.18C1605.55,-468.27 1718.73,-566.16 1764.37,-605.64"/>
<text xml:space="preserve" text-anchor="middle" x="1554.67" y="-430.23" font-family="DejaVu Sans Mono" font-size="11.00" fill="#c9d1d9">N</text>
</g>
<!-- r_asg_set -->
<g id="node17" class="node">
<title>r_asg_set</title>
<polygon fill="#342612" stroke="#d29922" stroke-width="1.3" points="1784.94,-342.57 1734.75,-324.57 1784.94,-306.57 1835.13,-324.57 1784.94,-342.57"/>
<polygon fill="none" stroke="#d29922" stroke-width="1.3" points="1784.94,-346.82 1722.9,-324.57 1784.94,-302.32 1846.98,-324.57 1784.94,-346.82"/>
<text xml:space="preserve" text-anchor="middle" x="1784.94" y="-321.44" font-family="DejaVu Sans Mono" font-size="10.00" fill="#e6edf3">assigns</text>
</g>
<!-- assignments&#45;&#45;r_asg_set -->
<g id="edge16" class="edge">
<title>assignments&#45;&#45;r_asg_set</title>
<path fill="none" stroke="#8b949e" stroke-width="1.4" d="M1585.41,-391.97C1634.7,-375.24 1709.37,-349.88 1751.69,-335.51"/>
<text xml:space="preserve" text-anchor="middle" x="1588.78" y="-381.52" font-family="DejaVu Sans Mono" font-size="11.00" fill="#c9d1d9">N</text>
</g>
<!-- a_a1 -->
<g id="node27" class="node">
<title>a_a1</title>
<ellipse fill="#161b22" stroke="#6e7681" cx="1784.94" cy="-408.57" rx="34.32" ry="18"/>
<ellipse fill="none" stroke="#6e7681" cx="1784.94" cy="-408.57" rx="38.32" ry="22"/>
<text xml:space="preserve" text-anchor="middle" x="1784.94" y="-405.64" font-family="DejaVu Sans Mono" font-size="9.00" fill="#8b949e">due_date</text>
</g>
<!-- assignments&#45;&#45;a_a1 -->
<g id="edge4" class="edge">
<title>assignments&#45;&#45;a_a1</title>
<path fill="none" stroke="#484f58" stroke-dasharray="1,5" d="M1585.41,-408.57C1632.72,-408.57 1703.44,-408.57 1746.46,-408.57"/>
</g>
<!-- review_sessions -->
<g id="node6" class="node">
<title>review_sessions</title>
<polygon fill="#1c2a22" stroke="#3fb950" stroke-width="1.7" points="1002.45,-1059.57 873.95,-1059.57 873.95,-1023.57 1002.45,-1023.57 1002.45,-1059.57"/>
<text xml:space="preserve" text-anchor="middle" x="938.2" y="-1037.29" font-family="DejaVu Sans Mono" font-size="12.00" fill="#e6edf3">review_sessions</text>
</g>
<!-- r_rs_stu -->
<g id="node20" class="node">
<title>r_rs_stu</title>
<polygon fill="#342612" stroke="#d29922" stroke-width="1.3" points="1279.8,-1017.57 1252.8,-999.57 1279.8,-981.57 1306.8,-999.57 1279.8,-1017.57"/>
<polygon fill="none" stroke="#d29922" stroke-width="1.3" points="1279.8,-1022.37 1245.59,-999.57 1279.8,-976.76 1314.01,-999.57 1279.8,-1022.37"/>
<text xml:space="preserve" text-anchor="middle" x="1279.8" y="-996.44" font-family="DejaVu Sans Mono" font-size="10.00" fill="#e6edf3">by</text>
</g>
<!-- review_sessions&#45;&#45;r_rs_stu -->
<g id="edge22" class="edge">
<title>review_sessions&#45;&#45;r_rs_stu</title>
<path fill="none" stroke="#8b949e" stroke-width="1.4" d="M1003.08,-1033.67C1077.05,-1024.52 1195.68,-1009.85 1249.98,-1003.13"/>
<text xml:space="preserve" text-anchor="middle" x="1006.46" y="-1023.22" font-family="DejaVu Sans Mono" font-size="11.00" fill="#c9d1d9">N</text>
</g>
<!-- r_rs_rev -->
<g id="node21" class="node">
<title>r_rs_rev</title>
<polygon fill="#342612" stroke="#d29922" stroke-width="1.3" points="1279.8,-1186.57 1208.85,-1168.57 1279.8,-1150.57 1350.76,-1168.57 1279.8,-1186.57"/>
<polygon fill="none" stroke="#d29922" stroke-width="1.3" points="1279.8,-1190.69 1192.58,-1168.57 1279.8,-1146.44 1367.02,-1168.57 1279.8,-1190.69"/>
<text xml:space="preserve" text-anchor="middle" x="1279.8" y="-1165.44" font-family="DejaVu Sans Mono" font-size="10.00" fill="#e6edf3">reviewed_by</text>
</g>
<!-- review_sessions&#45;&#45;r_rs_rev -->
<g id="edge24" class="edge">
<title>review_sessions&#45;&#45;r_rs_rev</title>
<path fill="none" stroke="#8b949e" stroke-width="1.4" d="M989.31,-1060.31C1058.69,-1086.25 1182.29,-1132.47 1243.06,-1155.2"/>
<text xml:space="preserve" text-anchor="middle" x="985.94" y="-1063.36" font-family="DejaVu Sans Mono" font-size="11.00" fill="#c9d1d9">N</text>
</g>
<!-- r_rs_circ -->
<g id="node22" class="node">
<title>r_rs_circ</title>
<polygon fill="#342612" stroke="#d29922" stroke-width="1.3" points="1279.8,-1102.57 1219.23,-1084.57 1279.8,-1066.57 1340.37,-1084.57 1279.8,-1102.57"/>
<polygon fill="none" stroke="#d29922" stroke-width="1.3" points="1279.8,-1106.74 1205.19,-1084.57 1279.8,-1062.39 1354.42,-1084.57 1279.8,-1106.74"/>
<text xml:space="preserve" text-anchor="middle" x="1279.8" y="-1081.44" font-family="DejaVu Sans Mono" font-size="10.00" fill="#e6edf3">in_circle</text>
</g>
<!-- review_sessions&#45;&#45;r_rs_circ -->
<g id="edge26" class="edge">
<title>review_sessions&#45;&#45;r_rs_circ</title>
<path fill="none" stroke="#8b949e" stroke-width="1.4" d="M1003.08,-1049.65C1067.45,-1057.8 1165.62,-1070.24 1225.81,-1077.86"/>
<text xml:space="preserve" text-anchor="middle" x="1006.46" y="-1039.2" font-family="DejaVu Sans Mono" font-size="11.00" fill="#c9d1d9">N</text>
</g>
<!-- enrollments -->
<g id="node7" class="node">
<title>enrollments</title>
<polygon fill="#18261e" stroke="#3fb950" stroke-width="1.5" points="1033.95,-889.57 842.45,-889.57 842.45,-853.57 1033.95,-853.57 1033.95,-889.57"/>
<polygon fill="none" stroke="#3fb950" stroke-width="1.5" points="1037.95,-893.57 838.45,-893.57 838.45,-849.57 1037.95,-849.57 1037.95,-893.57"/>
<text xml:space="preserve" text-anchor="middle" x="938.2" y="-874.62" font-family="DejaVu Sans Mono" font-size="11.00" fill="#c9d1d9">enrollments</text>
<text xml:space="preserve" text-anchor="middle" x="938.2" y="-861.12" font-family="DejaVu Sans Mono" font-size="11.00" fill="#c9d1d9">PK (circle_id, student_id)</text>
</g>
<!-- r_enr_circ -->
<g id="node13" class="node">
<title>r_enr_circ</title>
<polygon fill="#342612" stroke="#d29922" stroke-width="1.3" points="1279.8,-847.57 1245.19,-829.57 1279.8,-811.57 1314.41,-829.57 1279.8,-847.57"/>
<polygon fill="none" stroke="#d29922" stroke-width="1.3" points="1279.8,-852.08 1236.52,-829.57 1279.8,-807.06 1323.08,-829.57 1279.8,-852.08"/>
<text xml:space="preserve" text-anchor="middle" x="1279.8" y="-826.44" font-family="DejaVu Sans Mono" font-size="10.00" fill="#e6edf3">into</text>
</g>
<!-- enrollments&#45;&#45;r_enr_circ -->
<g id="edge8" class="edge">
<title>enrollments&#45;&#45;r_enr_circ</title>
<path fill="none" stroke="#8b949e" stroke-width="1.4" d="M1038.34,-859.31C1107.45,-850.76 1195.57,-839.86 1243.63,-833.92"/>
<text xml:space="preserve" text-anchor="middle" x="1041.72" y="-848.86" font-family="DejaVu Sans Mono" font-size="11.00" fill="#c9d1d9">N</text>
</g>
<!-- r_enr_stu -->
<g id="node14" class="node">
<title>r_enr_stu</title>
<polygon fill="#342612" stroke="#d29922" stroke-width="1.3" points="1279.8,-932.57 1229.61,-914.57 1279.8,-896.57 1329.99,-914.57 1279.8,-932.57"/>
<polygon fill="none" stroke="#d29922" stroke-width="1.3" points="1279.8,-936.82 1217.77,-914.57 1279.8,-892.32 1341.84,-914.57 1279.8,-936.82"/>
<text xml:space="preserve" text-anchor="middle" x="1279.8" y="-911.44" font-family="DejaVu Sans Mono" font-size="10.00" fill="#e6edf3">enrolls</text>
</g>
<!-- enrollments&#45;&#45;r_enr_stu -->
<g id="edge10" class="edge">
<title>enrollments&#45;&#45;r_enr_stu</title>
<path fill="none" stroke="#8b949e" stroke-width="1.4" d="M1038.34,-884.12C1102.36,-892.23 1182.69,-902.4 1232.38,-908.69"/>
<text xml:space="preserve" text-anchor="middle" x="1041.72" y="-873.67" font-family="DejaVu Sans Mono" font-size="11.00" fill="#c9d1d9">N</text>
</g>
<!-- set_items -->
<g id="node8" class="node">
<title>set_items</title>
<polygon fill="#18261e" stroke="#3fb950" stroke-width="1.5" points="1020.45,-214.57 855.95,-214.57 855.95,-178.57 1020.45,-178.57 1020.45,-214.57"/>
<polygon fill="none" stroke="#3fb950" stroke-width="1.5" points="1024.45,-218.57 851.95,-218.57 851.95,-174.57 1024.45,-174.57 1024.45,-218.57"/>
<text xml:space="preserve" text-anchor="middle" x="938.2" y="-199.62" font-family="DejaVu Sans Mono" font-size="11.00" fill="#c9d1d9">set_items</text>
<text xml:space="preserve" text-anchor="middle" x="938.2" y="-186.12" font-family="DejaVu Sans Mono" font-size="11.00" fill="#c9d1d9">PK (set_id, hadith_id)</text>
</g>
<!-- r_setitem_set -->
<g id="node15" class="node">
<title>r_setitem_set</title>
<polygon fill="#342612" stroke="#d29922" stroke-width="1.3" points="1279.8,-257.57 1234.81,-239.57 1279.8,-221.57 1324.8,-239.57 1279.8,-257.57"/>
<polygon fill="none" stroke="#d29922" stroke-width="1.3" points="1279.8,-261.87 1224.04,-239.57 1279.8,-217.26 1335.57,-239.57 1279.8,-261.87"/>
<text xml:space="preserve" text-anchor="middle" x="1279.8" y="-236.44" font-family="DejaVu Sans Mono" font-size="10.00" fill="#e6edf3">in_set</text>
</g>
<!-- set_items&#45;&#45;r_setitem_set -->
<g id="edge12" class="edge">
<title>set_items&#45;&#45;r_setitem_set</title>
<path fill="none" stroke="#8b949e" stroke-width="1.4" d="M1024.9,-207.42C1092.3,-215.95 1183.34,-227.48 1236.1,-234.16"/>
<text xml:space="preserve" text-anchor="middle" x="1028.27" y="-196.97" font-family="DejaVu Sans Mono" font-size="11.00" fill="#c9d1d9">N</text>
</g>
<!-- r_setitem_had -->
<g id="node29" class="node">
<title>r_setitem_had</title>
<polygon fill="#2d1617" stroke="#f85149" stroke-width="1.4" points="1279.8,-172.57 1240,-154.57 1279.8,-136.57 1319.61,-154.57 1279.8,-172.57"/>
<polygon fill="none" stroke="#f85149" stroke-width="1.4" points="1279.8,-176.96 1230.29,-154.57 1279.8,-132.18 1329.31,-154.57 1279.8,-176.96"/>
<text xml:space="preserve" text-anchor="middle" x="1279.8" y="-151.44" font-family="DejaVu Sans Mono" font-size="10.00" fill="#e6edf3">picks</text>
</g>
<!-- set_items&#45;&#45;r_setitem_had -->
<g id="edge30" class="edge">
<title>set_items&#45;&#45;r_setitem_had</title>
<path fill="none" stroke="#f85149" stroke-width="1.5" d="M1024.9,-185.97C1093.87,-177.44 1187.6,-165.85 1239.73,-159.4"/>
<text xml:space="preserve" text-anchor="middle" x="1028.27" y="-175.52" font-family="DejaVu Sans Mono" font-size="11.00" fill="#ff7b72">N</text>
</g>
<!-- progress -->
<g id="node9" class="node">
<title>progress</title>
<polygon fill="#18261e" stroke="#3fb950" stroke-width="1.5" points="1084.58,-558.82 791.83,-558.82 791.83,-510.32 1084.58,-510.32 1084.58,-558.82"/>
<polygon fill="none" stroke="#3fb950" stroke-width="1.5" points="1088.58,-562.82 787.83,-562.82 787.83,-506.32 1088.58,-506.32 1088.58,-562.82"/>
<text xml:space="preserve" text-anchor="middle" x="938.2" y="-544.37" font-family="DejaVu Sans Mono" font-size="11.00" fill="#c9d1d9">progress</text>
<text xml:space="preserve" text-anchor="middle" x="938.2" y="-530.87" font-family="DejaVu Sans Mono" font-size="11.00" fill="#c9d1d9">PK (progress_id)</text>
<text xml:space="preserve" text-anchor="middle" x="938.2" y="-517.37" font-family="DejaVu Sans Mono" font-size="11.00" fill="#c9d1d9">UQ (student_id, hadith_id, assignment_id)</text>
</g>
<!-- r_prog_stu -->
<g id="node18" class="node">
<title>r_prog_stu</title>
<polygon fill="#342612" stroke="#d29922" stroke-width="1.3" points="1279.8,-762.57 1234.81,-744.57 1279.8,-726.57 1324.8,-744.57 1279.8,-762.57"/>
<polygon fill="none" stroke="#d29922" stroke-width="1.3" points="1279.8,-766.87 1224.04,-744.57 1279.8,-722.26 1335.57,-744.57 1279.8,-766.87"/>
<text xml:space="preserve" text-anchor="middle" x="1279.8" y="-741.44" font-family="DejaVu Sans Mono" font-size="10.00" fill="#e6edf3">tracks</text>
</g>
<!-- progress&#45;&#45;r_prog_stu -->
<g id="edge20" class="edge">
<title>progress&#45;&#45;r_prog_stu</title>
<path fill="none" stroke="#8b949e" stroke-width="1.4" d="M978.97,-563.32C1028.01,-598.21 1114.46,-657.9 1192.58,-702.57 1212.09,-713.72 1235,-724.79 1252.3,-732.77"/>
<text xml:space="preserve" text-anchor="middle" x="975.6" y="-566.37" font-family="DejaVu Sans Mono" font-size="11.00" fill="#c9d1d9">N</text>
</g>
<!-- r_prog_asg -->
<g id="node19" class="node">
<title>r_prog_asg</title>
<polygon fill="#342612" stroke="#d29922" stroke-width="1.3" points="1279.8,-426.57 1240,-408.57 1279.8,-390.57 1319.61,-408.57 1279.8,-426.57"/>
<polygon fill="none" stroke="#d29922" stroke-width="1.3" points="1279.8,-430.96 1230.29,-408.57 1279.8,-386.18 1329.31,-408.57 1279.8,-430.96"/>
<text xml:space="preserve" text-anchor="middle" x="1279.8" y="-405.44" font-family="DejaVu Sans Mono" font-size="10.00" fill="#e6edf3">under</text>
</g>
<!-- progress&#45;&#45;r_prog_asg -->
<g id="edge18" class="edge">
<title>progress&#45;&#45;r_prog_asg</title>
<path fill="none" stroke="#8b949e" stroke-width="1.4" d="M1017.12,-505.66C1092.11,-477.83 1201.34,-437.31 1251.62,-418.65"/>
<text xml:space="preserve" text-anchor="middle" x="1013.74" y="-495.21" font-family="DejaVu Sans Mono" font-size="11.00" fill="#c9d1d9">N</text>
</g>
<!-- a_p1 -->
<g id="node24" class="node">
<title>a_p1</title>
<ellipse fill="#161b22" stroke="#6e7681" cx="1279.8" cy="-660.57" rx="46.74" ry="18"/>
<ellipse fill="none" stroke="#6e7681" cx="1279.8" cy="-660.57" rx="50.74" ry="22"/>
<text xml:space="preserve" text-anchor="middle" x="1279.8" y="-657.64" font-family="DejaVu Sans Mono" font-size="9.00" fill="#8b949e">mastery 0..4</text>
</g>
<!-- progress&#45;&#45;a_p1 -->
<g id="edge1" class="edge">
<title>progress&#45;&#45;a_p1</title>
<path fill="none" stroke="#484f58" stroke-dasharray="1,5" d="M1017.12,-563.47C1087.02,-589.41 1186.67,-626.38 1240.59,-646.39"/>
</g>
<!-- a_p2 -->
<g id="node25" class="node">
<title>a_p2</title>
<ellipse fill="#161b22" stroke="#6e7681" cx="1279.8" cy="-576.57" rx="52.96" ry="18"/>
<ellipse fill="none" stroke="#6e7681" cx="1279.8" cy="-576.57" rx="56.96" ry="22"/>
<text xml:space="preserve" text-anchor="middle" x="1279.8" y="-573.64" font-family="DejaVu Sans Mono" font-size="9.00" fill="#8b949e">times_reviewed</text>
</g>
<!-- progress&#45;&#45;a_p2 -->
<g id="edge2" class="edge">
<title>progress&#45;&#45;a_p2</title>
<path fill="none" stroke="#484f58" stroke-dasharray="1,5" d="M1089.15,-553.11C1137.65,-559.11 1188.35,-565.38 1225.11,-569.93"/>
</g>
<!-- a_p3 -->
<g id="node26" class="node">
<title>a_p3</title>
<ellipse fill="#161b22" stroke="#6e7681" cx="1279.8" cy="-492.57" rx="49.85" ry="18"/>
<ellipse fill="none" stroke="#6e7681" cx="1279.8" cy="-492.57" rx="53.85" ry="22"/>
<text xml:space="preserve" text-anchor="middle" x="1279.8" y="-489.64" font-family="DejaVu Sans Mono" font-size="9.00" fill="#8b949e">last_reviewed</text>
</g>
<!-- progress&#45;&#45;a_p3 -->
<g id="edge3" class="edge">
<title>progress&#45;&#45;a_p3</title>
<path fill="none" stroke="#484f58" stroke-dasharray="1,5" d="M1089.15,-516.02C1138.9,-509.87 1190.95,-503.43 1227.91,-498.86"/>
</g>
<!-- r_prog_had -->
<g id="node30" class="node">
<title>r_prog_had</title>
<polygon fill="#2d1617" stroke="#f85149" stroke-width="1.4" points="1279.8,-341.57 1219.23,-323.57 1279.8,-305.57 1340.37,-323.57 1279.8,-341.57"/>
<polygon fill="none" stroke="#f85149" stroke-width="1.4" points="1279.8,-345.74 1205.19,-323.57 1279.8,-301.39 1354.42,-323.57 1279.8,-345.74"/>
<text xml:space="preserve" text-anchor="middle" x="1279.8" y="-320.44" font-family="DejaVu Sans Mono" font-size="10.00" fill="#e6edf3">on_hadith</text>
</g>
<!-- progress&#45;&#45;r_prog_had -->
<g id="edge32" class="edge">
<title>progress&#45;&#45;r_prog_had</title>
<path fill="none" stroke="#f85149" stroke-width="1.5" d="M979.48,-505.63C1028.65,-470.82 1114.9,-411.46 1192.58,-366.57 1210.97,-355.94 1232.34,-345.27 1249.2,-337.22"/>
<text xml:space="preserve" text-anchor="middle" x="976.1" y="-495.18" font-family="DejaVu Sans Mono" font-size="11.00" fill="#ff7b72">N</text>
</g>
<!-- review_items -->
<g id="node10" class="node">
<title>review_items</title>
<polygon fill="#18261e" stroke="#3fb950" stroke-width="1.5" points="312.75,-130.57 121.25,-130.57 121.25,-94.57 312.75,-94.57 312.75,-130.57"/>
<polygon fill="none" stroke="#3fb950" stroke-width="1.5" points="316.75,-134.57 117.25,-134.57 117.25,-90.57 316.75,-90.57 316.75,-134.57"/>
<text xml:space="preserve" text-anchor="middle" x="217" y="-115.62" font-family="DejaVu Sans Mono" font-size="11.00" fill="#c9d1d9">review_items</text>
<text xml:space="preserve" text-anchor="middle" x="217" y="-102.12" font-family="DejaVu Sans Mono" font-size="11.00" fill="#c9d1d9">PK (session_id, hadith_id)</text>
</g>
<!-- r_ri_sess -->
<g id="node23" class="node">
<title>r_ri_sess</title>
<polygon fill="#342612" stroke="#d29922" stroke-width="1.3" points="602.91,-635.57 537.15,-617.57 602.91,-599.57 668.68,-617.57 602.91,-635.57"/>
<polygon fill="none" stroke="#d29922" stroke-width="1.3" points="602.91,-639.71 522,-617.57 602.91,-595.42 683.83,-617.57 602.91,-639.71"/>
<text xml:space="preserve" text-anchor="middle" x="602.91" y="-614.44" font-family="DejaVu Sans Mono" font-size="10.00" fill="#e6edf3">in_session</text>
</g>
<!-- review_items&#45;&#45;r_ri_sess -->
<g id="edge28" class="edge">
<title>review_items&#45;&#45;r_ri_sess</title>
<path fill="none" stroke="#8b949e" stroke-width="1.4" d="M317.39,-113.92C355.1,-119.12 396.12,-131.02 426,-156.57 566.31,-276.53 595.05,-521.2 600.63,-595.61"/>
<text xml:space="preserve" text-anchor="middle" x="320.76" y="-103.47" font-family="DejaVu Sans Mono" font-size="11.00" fill="#c9d1d9">N</text>
</g>
<!-- a_ri -->
<g id="node28" class="node">
<title>a_ri</title>
<ellipse fill="#161b22" stroke="#6e7681" cx="602.91" cy="-25.57" rx="74.42" ry="21.57"/>
<ellipse fill="none" stroke="#6e7681" cx="602.91" cy="-25.57" rx="78.42" ry="25.57"/>
<text xml:space="preserve" text-anchor="middle" x="602.91" y="-28.27" font-family="DejaVu Sans Mono" font-size="9.00" fill="#8b949e">result</text>
<text xml:space="preserve" text-anchor="middle" x="602.91" y="-17.02" font-family="DejaVu Sans Mono" font-size="9.00" fill="#8b949e">pass|partial|fail</text>
</g>
<!-- review_items&#45;&#45;a_ri -->
<g id="edge5" class="edge">
<title>review_items&#45;&#45;a_ri</title>
<path fill="none" stroke="#484f58" stroke-dasharray="1,5" d="M317.37,-90.05C386.8,-74.32 477.48,-53.77 537.6,-40.14"/>
</g>
<!-- r_ri_had -->
<g id="node31" class="node">
<title>r_ri_had</title>
<polygon fill="#2d1617" stroke="#f85149" stroke-width="1.4" points="1279.8,-87.57 1224.42,-69.57 1279.8,-51.57 1335.18,-69.57 1279.8,-87.57"/>
<polygon fill="none" stroke="#f85149" stroke-width="1.4" points="1279.8,-91.77 1211.48,-69.57 1279.8,-47.36 1348.12,-69.57 1279.8,-91.77"/>
<text xml:space="preserve" text-anchor="middle" x="1279.8" y="-66.44" font-family="DejaVu Sans Mono" font-size="10.00" fill="#e6edf3">reviewed</text>
</g>
<!-- review_items&#45;&#45;r_ri_had -->
<g id="edge34" class="edge">
<title>review_items&#45;&#45;r_ri_had</title>
<path fill="none" stroke="#f85149" stroke-width="1.5" d="M317.32,-108.54C533.39,-99.78 1040.84,-79.21 1217.15,-72.07"/>
<text xml:space="preserve" text-anchor="middle" x="320.7" y="-111.59" font-family="DejaVu Sans Mono" font-size="11.00" fill="#ff7b72">N</text>
</g>
<!-- hadiths -->
<g id="node11" class="node">
<title>hadiths</title>
<polygon fill="#21262d" stroke="#58a6ff" stroke-width="1.8" points="1596.02,-172.57 1475.02,-172.57 1475.02,-136.57 1596.02,-136.57 1596.02,-172.57"/>
<polygon fill="none" stroke="#58a6ff" stroke-width="1.8" points="1600.02,-176.57 1471.02,-176.57 1471.02,-132.57 1600.02,-132.57 1600.02,-176.57"/>
<text xml:space="preserve" text-anchor="middle" x="1535.52" y="-150.47" font-family="DejaVu Sans Mono" font-size="13.00" fill="#e6edf3">corpus.hadiths</text>
</g>
<!-- r_teaches&#45;&#45;circles -->
<g id="edge7" class="edge">
<title>r_teaches&#45;&#45;circles</title>
<path fill="none" stroke="#8b949e" stroke-width="1.4" d="M1803.48,-1128.59C1845.06,-1090.73 1949.42,-995.7 1993.83,-955.26"/>
<text xml:space="preserve" text-anchor="middle" x="1990.46" y="-958.31" font-family="DejaVu Sans Mono" font-size="11.00" fill="#c9d1d9">N</text>
</g>
<!-- r_enr_circ&#45;&#45;circles -->
<g id="edge9" class="edge">
<title>r_enr_circ&#45;&#45;circles</title>
<path fill="none" stroke="#8b949e" stroke-width="1.4" d="M1314.71,-834.51C1437.42,-852.41 1857.57,-913.7 1980.38,-931.61"/>
<text xml:space="preserve" text-anchor="middle" x="1977.01" y="-921.16" font-family="DejaVu Sans Mono" font-size="11.00" fill="#c9d1d9">1</text>
</g>
<!-- r_enr_stu&#45;&#45;students -->
<g id="edge11" class="edge">
<title>r_enr_stu&#45;&#45;students</title>
<path fill="none" stroke="#8b949e" stroke-width="1.4" d="M1343.52,-914.57C1391.51,-914.57 1456.11,-914.57 1496.53,-914.57"/>
<text xml:space="preserve" text-anchor="middle" x="1493.15" y="-904.12" font-family="DejaVu Sans Mono" font-size="11.00" fill="#c9d1d9">1</text>
</g>
<!-- r_setitem_set&#45;&#45;study_sets -->
<g id="edge13" class="edge">
<title>r_setitem_set&#45;&#45;study_sets</title>
<path fill="none" stroke="#8b949e" stroke-width="1.4" d="M1329.79,-242.5C1464.44,-250.58 1838.83,-273.04 1969.03,-280.85"/>
<text xml:space="preserve" text-anchor="middle" x="1965.66" y="-270.4" font-family="DejaVu Sans Mono" font-size="11.00" fill="#c9d1d9">1</text>
</g>
<!-- r_asg_circ&#45;&#45;circles -->
<g id="edge15" class="edge">
<title>r_asg_circ&#45;&#45;circles</title>
<path fill="none" stroke="#8b949e" stroke-width="1.4" d="M1799.54,-641.27C1840.17,-697.12 1960.29,-862.24 2000.82,-917.96"/>
<text xml:space="preserve" text-anchor="middle" x="1997.45" y="-907.51" font-family="DejaVu Sans Mono" font-size="11.00" fill="#c9d1d9">1</text>
</g>
<!-- r_asg_set&#45;&#45;study_sets -->
<g id="edge17" class="edge">
<title>r_asg_set&#45;&#45;study_sets</title>
<path fill="none" stroke="#8b949e" stroke-width="1.4" d="M1827.83,-317.05C1867.89,-309.86 1928.1,-299.05 1969.21,-291.67"/>
<text xml:space="preserve" text-anchor="middle" x="1965.83" y="-294.72" font-family="DejaVu Sans Mono" font-size="11.00" fill="#c9d1d9">1</text>
</g>
<!-- r_prog_stu&#45;&#45;students -->
<g id="edge21" class="edge">
<title>r_prog_stu&#45;&#45;students</title>
<path fill="none" stroke="#8b949e" stroke-width="1.4" d="M1307.95,-756.11C1325.3,-763.89 1348.04,-774.85 1367.02,-786.57 1422.46,-820.78 1481.79,-869.3 1512.79,-895.69"/>
<text xml:space="preserve" text-anchor="middle" x="1509.42" y="-885.24" font-family="DejaVu Sans Mono" font-size="11.00" fill="#c9d1d9">1</text>
</g>
<!-- r_prog_asg&#45;&#45;assignments -->
<g id="edge19" class="edge">
<title>r_prog_asg&#45;&#45;assignments</title>
<path fill="none" stroke="#8b949e" stroke-width="1.4" d="M1330.63,-408.57C1375.51,-408.57 1441.1,-408.57 1485.68,-408.57"/>
<text xml:space="preserve" text-anchor="middle" x="1472.18" y="-398.12" font-family="DejaVu Sans Mono" font-size="11.00" fill="#c9d1d9">0..1</text>
</g>
<!-- r_rs_stu&#45;&#45;students -->
<g id="edge23" class="edge">
<title>r_rs_stu&#45;&#45;students</title>
<path fill="none" stroke="#8b949e" stroke-width="1.4" d="M1303.32,-992.02C1346.86,-977.44 1443.01,-945.22 1496.59,-927.28"/>
<text xml:space="preserve" text-anchor="middle" x="1493.21" y="-930.33" font-family="DejaVu Sans Mono" font-size="11.00" fill="#c9d1d9">1</text>
</g>
<!-- r_rs_rev&#45;&#45;teachers -->
<g id="edge25" class="edge">
<title>r_rs_rev&#45;&#45;teachers</title>
<path fill="none" stroke="#8b949e" stroke-width="1.4" d="M1355.55,-1165.03C1401.89,-1162.84 1459.46,-1160.12 1496.58,-1158.36"/>
<text xml:space="preserve" text-anchor="middle" x="1483.08" y="-1147.91" font-family="DejaVu Sans Mono" font-size="11.00" fill="#c9d1d9">0..1</text>
</g>
<!-- r_rs_circ&#45;&#45;circles -->
<g id="edge27" class="edge">
<title>r_rs_circ&#45;&#45;circles</title>
<path fill="none" stroke="#8b949e" stroke-width="1.4" d="M1325.86,-1075.48C1460.99,-1048.21 1860.85,-967.54 1980.29,-943.44"/>
<text xml:space="preserve" text-anchor="middle" x="1966.79" y="-946.49" font-family="DejaVu Sans Mono" font-size="11.00" fill="#c9d1d9">0..1</text>
</g>
<!-- r_ri_sess&#45;&#45;review_sessions -->
<g id="edge29" class="edge">
<title>r_ri_sess&#45;&#45;review_sessions</title>
<path fill="none" stroke="#8b949e" stroke-width="1.4" d="M613.47,-637.28C638.05,-686.9 707.26,-819.67 787.83,-913.57 825.64,-957.63 879.1,-999.62 910.76,-1022.85"/>
<text xml:space="preserve" text-anchor="middle" x="907.38" y="-1012.4" font-family="DejaVu Sans Mono" font-size="11.00" fill="#c9d1d9">1</text>
</g>
<!-- r_setitem_had&#45;&#45;hadiths -->
<g id="edge31" class="edge">
<title>r_setitem_had&#45;&#45;hadiths</title>
<path fill="none" stroke="#f85149" stroke-width="1.5" d="M1330.93,-154.57C1370.93,-154.57 1427.24,-154.57 1470.51,-154.57"/>
<text xml:space="preserve" text-anchor="middle" x="1467.13" y="-144.12" font-family="DejaVu Sans Mono" font-size="11.00" fill="#ff7b72">1</text>
</g>
<!-- r_prog_had&#45;&#45;hadiths -->
<g id="edge33" class="edge">
<title>r_prog_had&#45;&#45;hadiths</title>
<path fill="none" stroke="#f85149" stroke-width="1.5" d="M1311.9,-310.2C1328.65,-302.57 1349.43,-292.38 1367.02,-281.57 1419.57,-249.28 1475.74,-204.27 1507.84,-177.41"/>
<text xml:space="preserve" text-anchor="middle" x="1504.47" y="-180.46" font-family="DejaVu Sans Mono" font-size="11.00" fill="#ff7b72">1</text>
</g>
<!-- r_ri_had&#45;&#45;hadiths -->
<g id="edge35" class="edge">
<title>r_ri_had&#45;&#45;hadiths</title>
<path fill="none" stroke="#f85149" stroke-width="1.5" d="M1315.02,-81.03C1354.65,-94.31 1420.81,-116.47 1470.15,-133"/>
<text xml:space="preserve" text-anchor="middle" x="1466.78" y="-122.55" font-family="DejaVu Sans Mono" font-size="11.00" fill="#ff7b72">1</text>
</g>
<!-- p -->
<g id="node32" class="node">
<title>p</title>
<polygon fill="none" stroke="#f85149" stroke-width="1.4" points="414,-414.19 20,-414.19 20,-178.94 414,-178.94 414,-414.19"/>
<polygon fill="none" stroke="#f85149" stroke-width="1.4" points="418,-418.19 16,-418.19 16,-174.94 418,-174.94 418,-418.19"/>
<text xml:space="preserve" text-anchor="start" x="28" y="-400.69" font-family="DejaVu Sans Mono" font-size="10.00" fill="#7ee787">Multi&#45;table fan&#45;out, owns its transaction:</text>
<text xml:space="preserve" text-anchor="start" x="28" y="-387.94" font-family="DejaVu Sans Mono" font-size="10.00" fill="#7ee787"> &#160;1. INSERT assignments &#160;→ assignment_id</text>
<text xml:space="preserve" text-anchor="start" x="28" y="-375.19" font-family="DejaVu Sans Mono" font-size="10.00" fill="#7ee787"> &#160;2. INSERT progress &#160;&#160;&#160;&#160;← students × set_items (CROSS JOIN)</text>
<text xml:space="preserve" text-anchor="start" x="28" y="-362.44" font-family="DejaVu Sans Mono" font-size="10.00" fill="#7ee787"> &#160;&#160;&#160;&#160;&#160;&#160;&#160;&#160;&#160;&#160;&#160;&#160;&#160;&#160;&#160;&#160;&#160;&#160;&#160;&#160;&#160;&#160;&#160;&#160;&#160;&#160;ON CONFLICT (student_id, hadith_id,</text>
<text xml:space="preserve" text-anchor="start" x="28" y="-349.69" font-family="DejaVu Sans Mono" font-size="10.00" fill="#7ee787"> &#160;&#160;&#160;&#160;&#160;&#160;&#160;&#160;&#160;&#160;&#160;&#160;&#160;&#160;&#160;&#160;&#160;&#160;&#160;&#160;&#160;&#160;&#160;&#160;&#160;&#160;&#160;&#160;assignment_id) WHERE assignment_id</text>
<text xml:space="preserve" text-anchor="start" x="28" y="-336.94" font-family="DejaVu Sans Mono" font-size="10.00" fill="#7ee787"> &#160;&#160;&#160;&#160;&#160;&#160;&#160;&#160;&#160;&#160;&#160;&#160;&#160;&#160;&#160;&#160;&#160;&#160;&#160;&#160;&#160;&#160;&#160;&#160;&#160;&#160;&#160;&#160;IS NOT NULL DO NOTHING</text>
<text xml:space="preserve" text-anchor="start" x="28" y="-324.19" font-family="DejaVu Sans Mono" font-size="10.00" fill="#7ee787"> &#160;COMMIT</text>
<text xml:space="preserve" text-anchor="start" x="28" y="-299.44" font-family="DejaVu Sans Mono" font-size="10.00" fill="#7ee787">PROCEDURE not FUNCTION precisely because functions</text>
<text xml:space="preserve" text-anchor="start" x="28" y="-286.69" font-family="DejaVu Sans Mono" font-size="10.00" fill="#7ee787">cannot COMMIT in Postgres.</text>
<text xml:space="preserve" text-anchor="start" x="28" y="-261.94" font-family="DejaVu Sans Mono" font-size="10.00" fill="#7ee787">NO exception handler: BEGIN..EXCEPTION opens a</text>
<text xml:space="preserve" text-anchor="start" x="28" y="-249.19" font-family="DejaVu Sans Mono" font-size="10.00" fill="#7ee787">subtransaction, and COMMIT inside one raises</text>
<text xml:space="preserve" text-anchor="start" x="28" y="-236.44" font-family="DejaVu Sans Mono" font-size="10.00" fill="#7ee787">&quot;cannot commit while a subtransaction is active&quot;.</text>
<text xml:space="preserve" text-anchor="start" x="28" y="-223.69" font-family="DejaVu Sans Mono" font-size="10.00" fill="#7ee787">An unhandled error already rolls the call back.</text>
<text xml:space="preserve" text-anchor="start" x="28" y="-198.94" font-family="DejaVu Sans Mono" font-size="10.00" fill="#7ee787">Each CALL mints a NEW assignment — calling twice</text>
<text xml:space="preserve" text-anchor="start" x="28" y="-186.19" font-family="DejaVu Sans Mono" font-size="10.00" fill="#7ee787">creates two obligations, it does not deduplicate.</text>
</g>
</g>
</svg>
