<?xml version="1.0" encoding="UTF-8" standalone="no"?>
<!DOCTYPE svg PUBLIC "-//W3C//DTD SVG 1.1//EN"
 "http://www.w3.org/Graphics/SVG/1.1/DTD/svg11.dtd">
<!-- Generated by graphviz version 15.1.0 (0)
 -->
<!-- Title: corpus_biblio_plain Pages: 1 -->
<svg width="1013pt" height="210pt"
 viewBox="0.00 0.00 1013.00 210.00" xmlns="http://www.w3.org/2000/svg" xmlns:xlink="http://www.w3.org/1999/xlink">
<g id="graph0" class="graph" transform="scale(1 1) rotate(0) translate(4 206)">
<title>corpus_biblio_plain</title>
<polygon fill="#0d1117" stroke="none" points="-4,4 -4,-206 1008.64,-206 1008.64,4 -4,4"/>
<!-- collections -->
<g id="node1" class="node">
<title>collections</title>
<polygon fill="#21262d" stroke="#58a6ff" stroke-width="1.8" points="98.5,-162 0,-162 0,-126 98.5,-126 98.5,-162"/>
<text xml:space="preserve" text-anchor="middle" x="49.25" y="-139.72" font-family="DejaVu Sans Mono" font-size="12.00" fill="#e6edf3">collections</text>
</g>
<!-- r_coll_chap -->
<g id="node5" class="node">
<title>r_coll_chap</title>
<polygon fill="#342612" stroke="#d29922" stroke-width="1.4" points="245.46,-201 213.5,-183 245.46,-165 277.42,-183 245.46,-201"/>
<text xml:space="preserve" text-anchor="middle" x="245.46" y="-179.3" font-family="DejaVu Sans Mono" font-size="11.00" fill="#e6edf3">has</text>
</g>
<!-- collections&#45;&#45;r_coll_chap -->
<g id="edge1" class="edge">
<title>collections&#45;&#45;r_coll_chap</title>
<path fill="none" stroke="#8b949e" stroke-width="1.4" d="M99.26,-153.84C138.14,-161.65 190.78,-172.22 220.83,-178.25"/>
<text xml:space="preserve" text-anchor="middle" x="102.63" y="-143.39" font-family="DejaVu Sans Mono" font-size="11.00" fill="#c9d1d9">1</text>
</g>
<!-- r_coll_had -->
<g id="node6" class="node">
<title>r_coll_had</title>
<polygon fill="#342612" stroke="#d29922" stroke-width="1.4" points="245.46,-124 218.46,-106 245.46,-88 272.46,-106 245.46,-124"/>
<text xml:space="preserve" text-anchor="middle" x="245.46" y="-102.3" font-family="DejaVu Sans Mono" font-size="11.00" fill="#e6edf3">in</text>
</g>
<!-- collections&#45;&#45;r_coll_had -->
<g id="edge3" class="edge">
<title>collections&#45;&#45;r_coll_had</title>
<path fill="none" stroke="#8b949e" stroke-width="1.4" d="M99.26,-134.41C139.48,-126.54 194.45,-115.79 223.87,-110.03"/>
<text xml:space="preserve" text-anchor="middle" x="102.63" y="-123.96" font-family="DejaVu Sans Mono" font-size="11.00" fill="#c9d1d9">1</text>
</g>
<!-- chapters -->
<g id="node2" class="node">
<title>chapters</title>
<polygon fill="#21262d" stroke="#58a6ff" stroke-width="1.8" points="513.67,-202 437.67,-202 437.67,-166 513.67,-166 513.67,-202"/>
<text xml:space="preserve" text-anchor="middle" x="475.67" y="-179.72" font-family="DejaVu Sans Mono" font-size="12.00" fill="#e6edf3">chapters</text>
</g>
<!-- r_chap_had -->
<g id="node7" class="node">
<title>r_chap_had</title>
<polygon fill="#342612" stroke="#d29922" stroke-width="1.4" points="747.53,-202 703.67,-184 747.53,-166 791.39,-184 747.53,-202"/>
<text xml:space="preserve" text-anchor="middle" x="747.53" y="-180.3" font-family="DejaVu Sans Mono" font-size="11.00" fill="#e6edf3">under</text>
</g>
<!-- chapters&#45;&#45;r_chap_had -->
<g id="edge5" class="edge">
<title>chapters&#45;&#45;r_chap_had</title>
<path fill="none" stroke="#8b949e" stroke-width="1.4" d="M514.47,-184C563.79,-184 649.94,-184 702.26,-184"/>
<text xml:space="preserve" text-anchor="middle" x="517.85" y="-173.55" font-family="DejaVu Sans Mono" font-size="11.00" fill="#c9d1d9">1</text>
</g>
<!-- hadiths -->
<g id="node3" class="node">
<title>hadiths</title>
<polygon fill="#21262d" stroke="#58a6ff" stroke-width="1.8" points="1004.64,-123 936.14,-123 936.14,-87 1004.64,-87 1004.64,-123"/>
<text xml:space="preserve" text-anchor="middle" x="970.39" y="-100.72" font-family="DejaVu Sans Mono" font-size="12.00" fill="#e6edf3">hadiths</text>
</g>
<!-- hadith_translations -->
<g id="node4" class="node">
<title>hadith_translations</title>
<polygon fill="#1f2937" stroke="#79c0ff" stroke-width="1.6" points="554.92,-40 396.42,-40 396.42,-4 554.92,-4 554.92,-40"/>
<polygon fill="none" stroke="#79c0ff" stroke-width="1.6" points="558.92,-44 392.42,-44 392.42,0 558.92,0 558.92,-44"/>
<text xml:space="preserve" text-anchor="middle" x="475.67" y="-17.73" font-family="DejaVu Sans Mono" font-size="12.00" fill="#e6edf3">hadith_translations</text>
</g>
<!-- r_trans -->
<g id="node8" class="node">
<title>r_trans</title>
<polygon fill="#342612" stroke="#d29922" stroke-width="1.4" points="747.53,-42 673.92,-24 747.53,-6 821.14,-24 747.53,-42"/>
<text xml:space="preserve" text-anchor="middle" x="747.53" y="-20.3" font-family="DejaVu Sans Mono" font-size="11.00" fill="#e6edf3">translates</text>
</g>
<!-- hadith_translations&#45;&#45;r_trans -->
<g id="edge7" class="edge">
<title>hadith_translations&#45;&#45;r_trans</title>
<path fill="none" stroke="#8b949e" stroke-width="1.4" d="M559.47,-22.61C595.88,-22.88 638.27,-23.2 673.49,-23.46"/>
<text xml:space="preserve" text-anchor="middle" x="562.84" y="-12.16" font-family="DejaVu Sans Mono" font-size="11.00" fill="#c9d1d9">N</text>
</g>
<!-- r_coll_chap&#45;&#45;chapters -->
<g id="edge2" class="edge">
<title>r_coll_chap&#45;&#45;chapters</title>
<path fill="none" stroke="#8b949e" stroke-width="1.4" d="M278.19,-183.14C319.83,-183.32 392.81,-183.64 437.14,-183.84"/>
<text xml:space="preserve" text-anchor="middle" x="433.77" y="-173.39" font-family="DejaVu Sans Mono" font-size="11.00" fill="#c9d1d9">N</text>
</g>
<!-- r_coll_had&#45;&#45;hadiths -->
<g id="edge4" class="edge">
<title>r_coll_had&#45;&#45;hadiths</title>
<path fill="none" stroke="#8b949e" stroke-width="1.4" d="M273.48,-105.96C385.24,-105.81 811.31,-105.22 935.33,-105.05"/>
<text xml:space="preserve" text-anchor="middle" x="931.96" y="-94.6" font-family="DejaVu Sans Mono" font-size="11.00" fill="#c9d1d9">N</text>
</g>
<!-- r_chap_had&#45;&#45;hadiths -->
<g id="edge6" class="edge">
<title>r_chap_had&#45;&#45;hadiths</title>
<path fill="none" stroke="#8b949e" stroke-width="1.4" d="M772.17,-175.55C811.45,-161.49 890.31,-133.29 935.51,-117.12"/>
<text xml:space="preserve" text-anchor="middle" x="922.01" y="-120.17" font-family="DejaVu Sans Mono" font-size="11.00" fill="#c9d1d9">0..N</text>
</g>
<!-- r_trans&#45;&#45;hadiths -->
<g id="edge8" class="edge">
<title>r_trans&#45;&#45;hadiths</title>
<path fill="none" stroke="#8b949e" stroke-width="1.4" d="M778.32,-34.92C819.17,-49.91 892.42,-76.77 935.38,-92.53"/>
<text xml:space="preserve" text-anchor="middle" x="932" y="-82.08" font-family="DejaVu Sans Mono" font-size="11.00" fill="#c9d1d9">1</text>
</g>
</g>
</svg>
