<?xml version="1.0" encoding="UTF-8" standalone="no"?>
<!DOCTYPE svg PUBLIC "-//W3C//DTD SVG 1.1//EN"
 "http://www.w3.org/Graphics/SVG/1.1/DTD/svg11.dtd">
<!-- Generated by graphviz version 2.43.0 (0)
 -->
<!-- Title: app_study_plain Pages: 1 -->
<svg width="1478pt" height="838pt"
 viewBox="0.00 0.00 1477.60 838.00" xmlns="http://www.w3.org/2000/svg" xmlns:xlink="http://www.w3.org/1999/xlink">
<g id="graph0" class="graph" transform="scale(1 1) rotate(0) translate(4 834)">
<title>app_study_plain</title>
<polygon fill="#0d1117" stroke="transparent" points="-4,4 -4,-834 1473.6,-834 1473.6,4 -4,4"/>
<!-- teachers -->
<g id="node1" class="node">
<title>teachers</title>
<polygon fill="#1c2a22" stroke="#7ee787" stroke-width="2" points="1031.4,-739 960.4,-739 960.4,-703 1031.4,-703 1031.4,-739"/>
<text text-anchor="middle" x="995.9" y="-718.2" font-family="DejaVu Sans Mono" font-size="11.00" fill="#e6edf3">teachers</text>
</g>
<!-- r_teaches -->
<g id="node13" class="node">
<title>r_teaches</title>
<polygon fill="#342612" stroke="#d29922" stroke-width="1.3" points="1213.5,-729 1164.27,-711 1213.5,-693 1262.74,-711 1213.5,-729"/>
<text text-anchor="middle" x="1213.5" y="-708.5" font-family="DejaVu Sans Mono" font-size="10.00" fill="#e6edf3">teaches</text>
</g>
<!-- teachers&#45;&#45;r_teaches -->
<g id="edge1" class="edge">
<title>teachers&#45;&#45;r_teaches</title>
<path fill="none" stroke="#8b949e" stroke-width="1.4" d="M1031.54,-719.39C1069.03,-717.65 1128.89,-714.88 1169.4,-713"/>
<text text-anchor="middle" x="1035.04" y="-711.39" font-family="DejaVu Sans Mono" font-size="10.00" fill="#c9d1d9">1</text>
</g>
<!-- students -->
<g id="node2" class="node">
<title>students</title>
<polygon fill="#1c2a22" stroke="#7ee787" stroke-width="2" points="1031.4,-511 960.4,-511 960.4,-475 1031.4,-475 1031.4,-511"/>
<text text-anchor="middle" x="995.9" y="-490.2" font-family="DejaVu Sans Mono" font-size="11.00" fill="#e6edf3">students</text>
</g>
<!-- circles -->
<g id="node3" class="node">
<title>circles</title>
<polygon fill="#1c2a22" stroke="#3fb950" stroke-width="1.6" points="1459.6,-686 1395.6,-686 1395.6,-650 1459.6,-650 1459.6,-686"/>
<text text-anchor="middle" x="1427.6" y="-665.2" font-family="DejaVu Sans Mono" font-size="11.00" fill="#c9d1d9">circles</text>
</g>
<!-- study_sets -->
<g id="node4" class="node">
<title>study_sets</title>
<polygon fill="#1c2a22" stroke="#3fb950" stroke-width="1.6" points="1469.6,-256 1385.6,-256 1385.6,-220 1469.6,-220 1469.6,-256"/>
<text text-anchor="middle" x="1427.6" y="-235.2" font-family="DejaVu Sans Mono" font-size="11.00" fill="#c9d1d9">study_sets</text>
</g>
<!-- assignments -->
<g id="node5" class="node">
<title>assignments</title>
<polygon fill="#1c2a22" stroke="#3fb950" stroke-width="1.6" points="1041.4,-625 950.4,-625 950.4,-589 1041.4,-589 1041.4,-625"/>
<text text-anchor="middle" x="995.9" y="-604.2" font-family="DejaVu Sans Mono" font-size="11.00" fill="#c9d1d9">assignments</text>
</g>
<!-- r_asg_circ -->
<g id="node17" class="node">
<title>r_asg_circ</title>
<polygon fill="#342612" stroke="#d29922" stroke-width="1.3" points="1213.5,-644 1149.3,-626 1213.5,-608 1277.7,-626 1213.5,-644"/>
<text text-anchor="middle" x="1213.5" y="-623.5" font-family="DejaVu Sans Mono" font-size="10.00" fill="#e6edf3">for_circle</text>
</g>
<!-- assignments&#45;&#45;r_asg_circ -->
<g id="edge9" class="edge">
<title>assignments&#45;&#45;r_asg_circ</title>
<path fill="none" stroke="#8b949e" stroke-width="1.4" d="M1041.57,-610.94C1077.34,-614.09 1127.43,-618.5 1164.14,-621.74"/>
<text text-anchor="middle" x="1045.07" y="-602.94" font-family="DejaVu Sans Mono" font-size="10.00" fill="#c9d1d9">N</text>
</g>
<!-- r_asg_set -->
<g id="node18" class="node">
<title>r_asg_set</title>
<polygon fill="#342612" stroke="#d29922" stroke-width="1.3" points="1213.5,-548 1164.27,-530 1213.5,-512 1262.74,-530 1213.5,-548"/>
<text text-anchor="middle" x="1213.5" y="-527.5" font-family="DejaVu Sans Mono" font-size="10.00" fill="#e6edf3">assigns</text>
</g>
<!-- assignments&#45;&#45;r_asg_set -->
<g id="edge11" class="edge">
<title>assignments&#45;&#45;r_asg_set</title>
<path fill="none" stroke="#8b949e" stroke-width="1.4" d="M1041.57,-591.05C1085.97,-575.19 1152.44,-551.45 1187.99,-538.75"/>
<text text-anchor="middle" x="1045.07" y="-583.05" font-family="DejaVu Sans Mono" font-size="10.00" fill="#c9d1d9">N</text>
</g>
<!-- review_sessions -->
<g id="node6" class="node">
<title>review_sessions</title>
<polygon fill="#1c2a22" stroke="#3fb950" stroke-width="1.6" points="582.2,-721 464.2,-721 464.2,-685 582.2,-685 582.2,-721"/>
<text text-anchor="middle" x="523.2" y="-700.2" font-family="DejaVu Sans Mono" font-size="11.00" fill="#c9d1d9">review_sessions</text>
</g>
<!-- r_rs_stu -->
<g id="node22" class="node">
<title>r_rs_stu</title>
<polygon fill="#342612" stroke="#d29922" stroke-width="1.3" points="773.3,-701 746.3,-683 773.3,-665 800.3,-683 773.3,-701"/>
<text text-anchor="middle" x="773.3" y="-680.5" font-family="DejaVu Sans Mono" font-size="10.00" fill="#e6edf3">by</text>
</g>
<!-- review_sessions&#45;&#45;r_rs_stu -->
<g id="edge19" class="edge">
<title>review_sessions&#45;&#45;r_rs_stu</title>
<path fill="none" stroke="#8b949e" stroke-width="1.4" d="M582.37,-698.31C635.36,-694.04 710.95,-687.95 748.81,-684.89"/>
<text text-anchor="middle" x="585.87" y="-690.31" font-family="DejaVu Sans Mono" font-size="10.00" fill="#c9d1d9">N</text>
</g>
<!-- r_rs_rev -->
<g id="node23" class="node">
<title>r_rs_rev</title>
<polygon fill="#342612" stroke="#d29922" stroke-width="1.3" points="773.3,-777 704.11,-759 773.3,-741 842.5,-759 773.3,-777"/>
<text text-anchor="middle" x="773.3" y="-756.5" font-family="DejaVu Sans Mono" font-size="10.00" fill="#e6edf3">reviewed_by</text>
</g>
<!-- review_sessions&#45;&#45;r_rs_rev -->
<g id="edge21" class="edge">
<title>review_sessions&#45;&#45;r_rs_rev</title>
<path fill="none" stroke="#8b949e" stroke-width="1.4" d="M582.37,-716.13C629.78,-726.83 695.27,-741.61 735.65,-750.73"/>
<text text-anchor="middle" x="585.87" y="-708.13" font-family="DejaVu Sans Mono" font-size="10.00" fill="#c9d1d9">N</text>
</g>
<!-- r_rs_circ -->
<g id="node24" class="node">
<title>r_rs_circ</title>
<polygon fill="#342612" stroke="#d29922" stroke-width="1.3" points="1213.5,-830 1154.29,-812 1213.5,-794 1272.72,-812 1213.5,-830"/>
<text text-anchor="middle" x="1213.5" y="-809.5" font-family="DejaVu Sans Mono" font-size="10.00" fill="#e6edf3">in_circle</text>
</g>
<!-- review_sessions&#45;&#45;r_rs_circ -->
<g id="edge23" class="edge">
<title>review_sessions&#45;&#45;r_rs_circ</title>
<path fill="none" stroke="#8b949e" stroke-width="1.4" d="M549.8,-721.18C583.38,-743.86 645.02,-781.55 704.2,-797 872.27,-840.88 1082.24,-826.17 1170.43,-817.01"/>
<text text-anchor="middle" x="546.3" y="-724.18" font-family="DejaVu Sans Mono" font-size="10.00" fill="#c9d1d9">N</text>
</g>
<!-- enrollments -->
<g id="node7" class="node">
<title>enrollments</title>
<polygon fill="#18261e" stroke="#3fb950" stroke-width="1.5" points="568.7,-434 477.7,-434 477.7,-398 568.7,-398 568.7,-434"/>
<polygon fill="none" stroke="#3fb950" stroke-width="1.5" points="572.7,-438 473.7,-438 473.7,-394 572.7,-394 572.7,-438"/>
<text text-anchor="middle" x="523.2" y="-413.2" font-family="DejaVu Sans Mono" font-size="11.00" fill="#c9d1d9">enrollments</text>
</g>
<!-- r_enr_circ -->
<g id="node14" class="node">
<title>r_enr_circ</title>
<polygon fill="#342612" stroke="#d29922" stroke-width="1.3" points="1213.5,-433 1179.24,-415 1213.5,-397 1247.77,-415 1213.5,-433"/>
<text text-anchor="middle" x="1213.5" y="-412.5" font-family="DejaVu Sans Mono" font-size="10.00" fill="#e6edf3">into</text>
</g>
<!-- enrollments&#45;&#45;r_enr_circ -->
<g id="edge3" class="edge">
<title>enrollments&#45;&#45;r_enr_circ</title>
<path fill="none" stroke="#8b949e" stroke-width="1.4" d="M572.88,-415.93C704.85,-415.74 1067.09,-415.21 1179.07,-415.05"/>
<text text-anchor="middle" x="576.38" y="-407.93" font-family="DejaVu Sans Mono" font-size="10.00" fill="#c9d1d9">N</text>
</g>
<!-- r_enr_stu -->
<g id="node15" class="node">
<title>r_enr_stu</title>
<polygon fill="#342612" stroke="#d29922" stroke-width="1.3" points="773.3,-473 724.07,-455 773.3,-437 822.54,-455 773.3,-473"/>
<text text-anchor="middle" x="773.3" y="-452.5" font-family="DejaVu Sans Mono" font-size="10.00" fill="#e6edf3">enrolls</text>
</g>
<!-- enrollments&#45;&#45;r_enr_stu -->
<g id="edge5" class="edge">
<title>enrollments&#45;&#45;r_enr_stu</title>
<path fill="none" stroke="#8b949e" stroke-width="1.4" d="M572.92,-423.66C621.75,-431.33 695.64,-442.95 738.41,-449.67"/>
<text text-anchor="middle" x="576.42" y="-426.66" font-family="DejaVu Sans Mono" font-size="10.00" fill="#c9d1d9">N</text>
</g>
<!-- set_items -->
<g id="node8" class="node">
<title>set_items</title>
<polygon fill="#18261e" stroke="#3fb950" stroke-width="1.5" points="561.7,-40 484.7,-40 484.7,-4 561.7,-4 561.7,-40"/>
<polygon fill="none" stroke="#3fb950" stroke-width="1.5" points="565.7,-44 480.7,-44 480.7,0 565.7,0 565.7,-44"/>
<text text-anchor="middle" x="523.2" y="-19.2" font-family="DejaVu Sans Mono" font-size="11.00" fill="#c9d1d9">set_items</text>
</g>
<!-- r_setitem_set -->
<g id="node16" class="node">
<title>r_setitem_set</title>
<polygon fill="#342612" stroke="#d29922" stroke-width="1.3" points="995.9,-43 951.65,-25 995.9,-7 1040.14,-25 995.9,-43"/>
<text text-anchor="middle" x="995.9" y="-22.5" font-family="DejaVu Sans Mono" font-size="10.00" fill="#e6edf3">in_set</text>
</g>
<!-- set_items&#45;&#45;r_setitem_set -->
<g id="edge7" class="edge">
<title>set_items&#45;&#45;r_setitem_set</title>
<path fill="none" stroke="#8b949e" stroke-width="1.4" d="M565.98,-22.27C654.96,-22.83 862.41,-24.16 952.2,-24.73"/>
<text text-anchor="middle" x="569.48" y="-14.27" font-family="DejaVu Sans Mono" font-size="10.00" fill="#c9d1d9">N</text>
</g>
<!-- r_setitem_had -->
<g id="node26" class="node">
<title>r_setitem_had</title>
<polygon fill="#2d1617" stroke="#f85149" stroke-width="1.4" points="773.3,-81 734.05,-63 773.3,-45 812.56,-63 773.3,-81"/>
<text text-anchor="middle" x="773.3" y="-60.5" font-family="DejaVu Sans Mono" font-size="10.00" fill="#e6edf3">picks</text>
</g>
<!-- set_items&#45;&#45;r_setitem_had -->
<g id="edge27" class="edge">
<title>set_items&#45;&#45;r_setitem_had</title>
<path fill="none" stroke="#f85149" stroke-width="1.5" d="M565.73,-28.86C616.36,-37.23 700.54,-51.14 744.16,-58.35"/>
<text text-anchor="middle" x="569.23" y="-31.86" font-family="DejaVu Sans Mono" font-size="10.00" fill="#ff7b72">N</text>
</g>
<!-- assignment_targets -->
<g id="node9" class="node">
<title>assignment_targets</title>
<polygon fill="#18261e" stroke="#3fb950" stroke-width="1.5" points="592.2,-605 454.2,-605 454.2,-569 592.2,-569 592.2,-605"/>
<polygon fill="none" stroke="#3fb950" stroke-width="1.5" points="596.2,-609 450.2,-609 450.2,-565 596.2,-565 596.2,-609"/>
<text text-anchor="middle" x="523.2" y="-584.2" font-family="DejaVu Sans Mono" font-size="11.00" fill="#c9d1d9">assignment_targets</text>
</g>
<!-- r_tgt_asg -->
<g id="node19" class="node">
<title>r_tgt_asg</title>
<polygon fill="#342612" stroke="#d29922" stroke-width="1.3" points="773.3,-625 724.07,-607 773.3,-589 822.54,-607 773.3,-625"/>
<text text-anchor="middle" x="773.3" y="-604.5" font-family="DejaVu Sans Mono" font-size="10.00" fill="#e6edf3">targets</text>
</g>
<!-- assignment_targets&#45;&#45;r_tgt_asg -->
<g id="edge13" class="edge">
<title>assignment_targets&#45;&#45;r_tgt_asg</title>
<path fill="none" stroke="#8b949e" stroke-width="1.4" d="M596.3,-592.81C640.65,-596.39 695.82,-600.83 732.44,-603.79"/>
<text text-anchor="middle" x="599.8" y="-584.81" font-family="DejaVu Sans Mono" font-size="10.00" fill="#c9d1d9">N</text>
</g>
<!-- r_tgt_stu -->
<g id="node20" class="node">
<title>r_tgt_stu</title>
<polygon fill="#342612" stroke="#d29922" stroke-width="1.3" points="773.3,-549 709.1,-531 773.3,-513 837.51,-531 773.3,-549"/>
<text text-anchor="middle" x="773.3" y="-528.5" font-family="DejaVu Sans Mono" font-size="10.00" fill="#e6edf3">to_student</text>
</g>
<!-- assignment_targets&#45;&#45;r_tgt_stu -->
<g id="edge15" class="edge">
<title>assignment_targets&#45;&#45;r_tgt_stu</title>
<path fill="none" stroke="#8b949e" stroke-width="1.4" d="M596.3,-570.73C642.51,-560.3 700.46,-547.22 736.95,-538.98"/>
<text text-anchor="middle" x="599.8" y="-562.73" font-family="DejaVu Sans Mono" font-size="10.00" fill="#c9d1d9">N</text>
</g>
<!-- progress -->
<g id="node10" class="node">
<title>progress</title>
<polygon fill="#18261e" stroke="#3fb950" stroke-width="1.5" points="558.7,-279 487.7,-279 487.7,-243 558.7,-243 558.7,-279"/>
<polygon fill="none" stroke="#3fb950" stroke-width="1.5" points="562.7,-283 483.7,-283 483.7,-239 562.7,-239 562.7,-283"/>
<text text-anchor="middle" x="523.2" y="-258.2" font-family="DejaVu Sans Mono" font-size="11.00" fill="#c9d1d9">progress</text>
</g>
<!-- r_prog_stu -->
<g id="node21" class="node">
<title>r_prog_stu</title>
<polygon fill="#342612" stroke="#d29922" stroke-width="1.3" points="773.3,-315 729.06,-297 773.3,-279 817.55,-297 773.3,-315"/>
<text text-anchor="middle" x="773.3" y="-294.5" font-family="DejaVu Sans Mono" font-size="10.00" fill="#e6edf3">tracks</text>
</g>
<!-- progress&#45;&#45;r_prog_stu -->
<g id="edge17" class="edge">
<title>progress&#45;&#45;r_prog_stu</title>
<path fill="none" stroke="#8b949e" stroke-width="1.4" d="M562.97,-266.62C611.76,-273.7 694.66,-285.73 740.12,-292.33"/>
<text text-anchor="middle" x="566.47" y="-258.62" font-family="DejaVu Sans Mono" font-size="10.00" fill="#c9d1d9">N</text>
</g>
<!-- r_prog_had -->
<g id="node27" class="node">
<title>r_prog_had</title>
<polygon fill="#2d1617" stroke="#f85149" stroke-width="1.4" points="773.3,-239 714.09,-221 773.3,-203 832.52,-221 773.3,-239"/>
<text text-anchor="middle" x="773.3" y="-218.5" font-family="DejaVu Sans Mono" font-size="10.00" fill="#e6edf3">on_hadith</text>
</g>
<!-- progress&#45;&#45;r_prog_had -->
<g id="edge29" class="edge">
<title>progress&#45;&#45;r_prog_had</title>
<path fill="none" stroke="#f85149" stroke-width="1.5" d="M562.97,-254.75C609.71,-247.21 687.78,-234.63 734.22,-227.14"/>
<text text-anchor="middle" x="566.47" y="-246.75" font-family="DejaVu Sans Mono" font-size="10.00" fill="#ff7b72">N</text>
</g>
<!-- review_items -->
<g id="node11" class="node">
<title>review_items</title>
<polygon fill="#18261e" stroke="#3fb950" stroke-width="1.5" points="102,-440 4,-440 4,-404 102,-404 102,-440"/>
<polygon fill="none" stroke="#3fb950" stroke-width="1.5" points="106,-444 0,-444 0,-400 106,-400 106,-444"/>
<text text-anchor="middle" x="53" y="-419.2" font-family="DejaVu Sans Mono" font-size="11.00" fill="#c9d1d9">review_items</text>
</g>
<!-- r_ri_sess -->
<g id="node25" class="node">
<title>r_ri_sess</title>
<polygon fill="#342612" stroke="#d29922" stroke-width="1.3" points="278.1,-599 213.9,-581 278.1,-563 342.31,-581 278.1,-599"/>
<text text-anchor="middle" x="278.1" y="-578.5" font-family="DejaVu Sans Mono" font-size="10.00" fill="#e6edf3">in_session</text>
</g>
<!-- review_items&#45;&#45;r_ri_sess -->
<g id="edge25" class="edge">
<title>review_items&#45;&#45;r_ri_sess</title>
<path fill="none" stroke="#8b949e" stroke-width="1.4" d="M85.02,-444.11C132.32,-477.81 220.96,-540.99 259,-568.1"/>
<text text-anchor="middle" x="81.52" y="-447.11" font-family="DejaVu Sans Mono" font-size="10.00" fill="#c9d1d9">N</text>
</g>
<!-- r_ri_had -->
<g id="node28" class="node">
<title>r_ri_had</title>
<polygon fill="#2d1617" stroke="#f85149" stroke-width="1.4" points="278.1,-281 223.88,-263 278.1,-245 332.33,-263 278.1,-281"/>
<text text-anchor="middle" x="278.1" y="-260.5" font-family="DejaVu Sans Mono" font-size="10.00" fill="#e6edf3">reviewed</text>
</g>
<!-- review_items&#45;&#45;r_ri_had -->
<g id="edge31" class="edge">
<title>review_items&#45;&#45;r_ri_had</title>
<path fill="none" stroke="#f85149" stroke-width="1.5" d="M85.02,-399.89C132.79,-365.85 222.76,-301.73 260.14,-275.09"/>
<text text-anchor="middle" x="81.52" y="-391.89" font-family="DejaVu Sans Mono" font-size="10.00" fill="#ff7b72">N</text>
</g>
<!-- hadiths -->
<g id="node12" class="node">
<title>hadiths</title>
<polygon fill="#21262d" stroke="#58a6ff" stroke-width="1.8" points="1027.9,-160 963.9,-160 963.9,-124 1027.9,-124 1027.9,-160"/>
<text text-anchor="middle" x="995.9" y="-139.2" font-family="DejaVu Sans Mono" font-size="11.00" fill="#e6edf3">hadiths</text>
</g>
<!-- r_teaches&#45;&#45;circles -->
<g id="edge2" class="edge">
<title>r_teaches&#45;&#45;circles</title>
<path fill="none" stroke="#8b949e" stroke-width="1.4" d="M1245.8,-704.66C1286.01,-696.5 1355.41,-682.43 1395.52,-674.3"/>
<text text-anchor="middle" x="1392.02" y="-666.3" font-family="DejaVu Sans Mono" font-size="10.00" fill="#c9d1d9">N</text>
</g>
<!-- r_enr_circ&#45;&#45;circles -->
<g id="edge4" class="edge">
<title>r_enr_circ&#45;&#45;circles</title>
<path fill="none" stroke="#8b949e" stroke-width="1.4" d="M1224.73,-427.2C1259.07,-468.17 1370.37,-600.92 1411.31,-649.76"/>
<text text-anchor="middle" x="1407.81" y="-641.76" font-family="DejaVu Sans Mono" font-size="10.00" fill="#c9d1d9">1</text>
</g>
<!-- r_enr_stu&#45;&#45;students -->
<g id="edge6" class="edge">
<title>r_enr_stu&#45;&#45;students</title>
<path fill="none" stroke="#8b949e" stroke-width="1.4" d="M807.33,-460.69C848.43,-467.77 918.32,-479.81 960.19,-487.02"/>
<text text-anchor="middle" x="956.69" y="-479.02" font-family="DejaVu Sans Mono" font-size="10.00" fill="#c9d1d9">1</text>
</g>
<!-- r_setitem_set&#45;&#45;study_sets -->
<g id="edge8" class="edge">
<title>r_setitem_set&#45;&#45;study_sets</title>
<path fill="none" stroke="#8b949e" stroke-width="1.4" d="M1016.48,-34.71C1083.22,-67.79 1302.5,-176.49 1390.04,-219.88"/>
<text text-anchor="middle" x="1386.54" y="-211.88" font-family="DejaVu Sans Mono" font-size="10.00" fill="#c9d1d9">1</text>
</g>
<!-- r_asg_circ&#45;&#45;circles -->
<g id="edge10" class="edge">
<title>r_asg_circ&#45;&#45;circles</title>
<path fill="none" stroke="#8b949e" stroke-width="1.4" d="M1251.93,-633.41C1292.72,-641.49 1357.25,-654.27 1395.41,-661.82"/>
<text text-anchor="middle" x="1391.91" y="-653.82" font-family="DejaVu Sans Mono" font-size="10.00" fill="#c9d1d9">1</text>
</g>
<!-- r_asg_set&#45;&#45;study_sets -->
<g id="edge12" class="edge">
<title>r_asg_set&#45;&#45;study_sets</title>
<path fill="none" stroke="#8b949e" stroke-width="1.4" d="M1226.24,-516.36C1239.18,-501.17 1260.43,-475.77 1277.6,-453 1331.21,-381.94 1390.07,-293.66 1414.72,-256.18"/>
<text text-anchor="middle" x="1411.22" y="-259.18" font-family="DejaVu Sans Mono" font-size="10.00" fill="#c9d1d9">1</text>
</g>
<!-- r_tgt_asg&#45;&#45;assignments -->
<g id="edge14" class="edge">
<title>r_tgt_asg&#45;&#45;assignments</title>
<path fill="none" stroke="#8b949e" stroke-width="1.4" d="M822.44,-607C860.47,-607 913.14,-607 950.24,-607"/>
<text text-anchor="middle" x="946.74" y="-599" font-family="DejaVu Sans Mono" font-size="10.00" fill="#c9d1d9">1</text>
</g>
<!-- r_tgt_stu&#45;&#45;students -->
<g id="edge16" class="edge">
<title>r_tgt_stu&#45;&#45;students</title>
<path fill="none" stroke="#8b949e" stroke-width="1.4" d="M813.49,-524.25C855.09,-517.08 920.21,-505.87 960.07,-499"/>
<text text-anchor="middle" x="956.57" y="-491" font-family="DejaVu Sans Mono" font-size="10.00" fill="#c9d1d9">1</text>
</g>
<!-- r_prog_stu&#45;&#45;students -->
<g id="edge18" class="edge">
<title>r_prog_stu&#45;&#45;students</title>
<path fill="none" stroke="#8b949e" stroke-width="1.4" d="M788.1,-309.26C825.74,-342.7 930.3,-435.61 974.63,-474.99"/>
<text text-anchor="middle" x="971.13" y="-466.99" font-family="DejaVu Sans Mono" font-size="10.00" fill="#c9d1d9">1</text>
</g>
<!-- r_rs_stu&#45;&#45;students -->
<g id="edge20" class="edge">
<title>r_rs_stu&#45;&#45;students</title>
<path fill="none" stroke="#8b949e" stroke-width="1.4" d="M789.91,-675.82C804.22,-668.9 825.65,-657.64 842.4,-645 897.9,-603.12 953.26,-541.86 979.38,-511.49"/>
<text text-anchor="middle" x="975.88" y="-514.49" font-family="DejaVu Sans Mono" font-size="10.00" fill="#c9d1d9">1</text>
</g>
<!-- r_rs_rev&#45;&#45;teachers -->
<g id="edge22" class="edge">
<title>r_rs_rev&#45;&#45;teachers</title>
<path fill="none" stroke="#8b949e" stroke-width="1.4" d="M815.54,-751.9C857.31,-744.7 921.21,-733.69 960.39,-726.94"/>
<text text-anchor="middle" x="947.89" y="-718.94" font-family="DejaVu Sans Mono" font-size="10.00" fill="#c9d1d9">0..1</text>
</g>
<!-- r_rs_circ&#45;&#45;circles -->
<g id="edge24" class="edge">
<title>r_rs_circ&#45;&#45;circles</title>
<path fill="none" stroke="#8b949e" stroke-width="1.4" d="M1232.58,-799.72C1270.05,-774.29 1356.31,-715.73 1400.08,-686.01"/>
<text text-anchor="middle" x="1387.58" y="-689.01" font-family="DejaVu Sans Mono" font-size="10.00" fill="#c9d1d9">0..1</text>
</g>
<!-- r_ri_sess&#45;&#45;review_sessions -->
<g id="edge26" class="edge">
<title>r_ri_sess&#45;&#45;review_sessions</title>
<path fill="none" stroke="#8b949e" stroke-width="1.4" d="M301.97,-592.48C344.41,-613.77 435.61,-659.54 486.33,-684.99"/>
<text text-anchor="middle" x="482.83" y="-676.99" font-family="DejaVu Sans Mono" font-size="10.00" fill="#c9d1d9">1</text>
</g>
<!-- r_setitem_had&#45;&#45;hadiths -->
<g id="edge28" class="edge">
<title>r_setitem_had&#45;&#45;hadiths</title>
<path fill="none" stroke="#f85149" stroke-width="1.5" d="M795.85,-70.72C835.1,-84.77 918.35,-114.59 963.76,-130.85"/>
<text text-anchor="middle" x="960.26" y="-122.85" font-family="DejaVu Sans Mono" font-size="10.00" fill="#ff7b72">1</text>
</g>
<!-- r_prog_had&#45;&#45;hadiths -->
<g id="edge30" class="edge">
<title>r_prog_had&#45;&#45;hadiths</title>
<path fill="none" stroke="#f85149" stroke-width="1.5" d="M801.35,-211.31C842.42,-196.6 920.32,-168.71 963.72,-153.17"/>
<text text-anchor="middle" x="960.22" y="-156.17" font-family="DejaVu Sans Mono" font-size="10.00" fill="#ff7b72">1</text>
</g>
<!-- r_ri_had&#45;&#45;hadiths -->
<g id="edge32" class="edge">
<title>r_ri_had&#45;&#45;hadiths</title>
<path fill="none" stroke="#f85149" stroke-width="1.5" d="M307.64,-254.62C341.43,-244.95 399.51,-229.08 450.2,-219 643.87,-180.5 879.99,-153.96 963.68,-145.18"/>
<text text-anchor="middle" x="960.18" y="-137.18" font-family="DejaVu Sans Mono" font-size="10.00" fill="#ff7b72">1</text>
</g>
</g>
</svg>
