<?xml version="1.0" encoding="UTF-8" standalone="no"?>
<!DOCTYPE svg PUBLIC "-//W3C//DTD SVG 1.1//EN"
 "http://www.w3.org/Graphics/SVG/1.1/DTD/svg11.dtd">
<!-- Generated by graphviz version 15.1.1 (0)
 -->
<!-- Title: ilham_corpus Pages: 1 -->
<svg width="1521pt" height="826pt"
 viewBox="0.00 0.00 1521.00 826.00" xmlns="http://www.w3.org/2000/svg" xmlns:xlink="http://www.w3.org/1999/xlink">
<g id="graph0" class="graph" transform="scale(1 1) rotate(0) translate(4 822)">
<title>ilham_corpus</title>
<polygon fill="#0d1117" stroke="none" points="-4,4 -4,-822 1517.25,-822 1517.25,4 -4,4"/>
<g id="clust1" class="cluster">
<title>cluster_corpus</title>
<path fill="#0f1620" stroke="#58a6ff" stroke-width="2" d="M23,-8C23,-8 1493.25,-8 1493.25,-8 1499.25,-8 1505.25,-14 1505.25,-20 1505.25,-20 1505.25,-631 1505.25,-631 1505.25,-637 1499.25,-643 1493.25,-643 1493.25,-643 23,-643 23,-643 17,-643 11,-637 11,-631 11,-631 11,-20 11,-20 11,-14 17,-8 23,-8"/>
<text xml:space="preserve" text-anchor="middle" x="758.12" y="-627.6" font-family="DejaVu Sans Mono" font-size="12.00" fill="#58a6ff">corpus &#160;— &#160;read&#45;only reference data (no runtime writes, ever)</text>
</g>
<g id="clust2" class="cluster">
<title>cluster_legend</title>
<path fill="#0d1117" stroke="#8b949e" d="M20,-651C20,-651 340,-651 340,-651 346,-651 352,-657 352,-663 352,-663 352,-798 352,-798 352,-804 346,-810 340,-810 340,-810 20,-810 20,-810 14,-810 8,-804 8,-798 8,-798 8,-663 8,-663 8,-657 14,-651 20,-651"/>
<text xml:space="preserve" text-anchor="middle" x="180" y="-794.6" font-family="DejaVu Sans Mono" font-size="12.00" fill="#c9d1d9">legend</text>
</g>
<!-- collections -->
<g id="node1" class="node">
<title>collections</title>
<polygon fill="#161b22" stroke="none" points="1279.25,-463.12 1279.25,-556.88 1489.25,-556.88 1489.25,-463.12 1279.25,-463.12"/>
<polygon fill="#1f6feb" stroke="none" points="1279.25,-538.12 1279.25,-556.88 1489.25,-556.88 1489.25,-538.12 1279.25,-538.12"/>
<text xml:space="preserve" text-anchor="start" x="1330.25" y="-545.38" font-family="DejaVu Sans Mono" font-weight="bold" font-size="10.00" fill="#ffffff">corpus.collections</text>
<text xml:space="preserve" text-anchor="start" x="1282.25" y="-525.38" font-family="DejaVu Sans Mono" font-size="10.00" fill="#e3b341">PK</text>
<text xml:space="preserve" text-anchor="start" x="1300.25" y="-525.38" font-family="DejaVu Sans Mono" font-size="10.00" fill="#e6edf3">collection_id</text>
<text xml:space="preserve" text-anchor="start" x="1384.25" y="-525.38" font-family="DejaVu Sans Mono" font-size="10.00" fill="#8b949e">smallint identity</text>
<text xml:space="preserve" text-anchor="start" x="1282.25" y="-506.62" font-family="DejaVu Sans Mono" font-size="10.00" fill="#d29922">UQ</text>
<text xml:space="preserve" text-anchor="start" x="1300.25" y="-506.62" font-family="DejaVu Sans Mono" font-size="10.00" fill="#e6edf3">slug</text>
<text xml:space="preserve" text-anchor="start" x="1384.25" y="-506.62" font-family="DejaVu Sans Mono" font-size="10.00" fill="#8b949e">text</text>
<text xml:space="preserve" text-anchor="start" x="1300.25" y="-487.88" font-family="DejaVu Sans Mono" font-size="10.00" fill="#e6edf3">title_ar</text>
<text xml:space="preserve" text-anchor="start" x="1384.25" y="-487.88" font-family="DejaVu Sans Mono" font-size="10.00" fill="#8b949e">text</text>
<text xml:space="preserve" text-anchor="start" x="1300.25" y="-469.12" font-family="DejaVu Sans Mono" font-size="10.00" fill="#8b949e">title_en</text>
<text xml:space="preserve" text-anchor="start" x="1384.25" y="-469.12" font-family="DejaVu Sans Mono" font-size="10.00" fill="#6e7681">text NULL</text>
</g>
<!-- chapters -->
<g id="node2" class="node">
<title>chapters</title>
<polygon fill="#161b22" stroke="none" points="938.25,-457.5 938.25,-532.5 1160.25,-532.5 1160.25,-457.5 938.25,-457.5"/>
<polygon fill="#1f6feb" stroke="none" points="938.25,-513.75 938.25,-532.5 1160.25,-532.5 1160.25,-513.75 938.25,-513.75"/>
<text xml:space="preserve" text-anchor="start" x="1004.25" y="-521" font-family="DejaVu Sans Mono" font-weight="bold" font-size="10.00" fill="#ffffff">corpus.chapters</text>
<text xml:space="preserve" text-anchor="start" x="941.25" y="-501" font-family="DejaVu Sans Mono" font-size="10.00" fill="#e3b341">PK</text>
<text xml:space="preserve" text-anchor="start" x="977.25" y="-501" font-family="DejaVu Sans Mono" font-size="10.00" fill="#e6edf3">chapter_id</text>
<text xml:space="preserve" text-anchor="start" x="1061.25" y="-501" font-family="DejaVu Sans Mono" font-size="10.00" fill="#8b949e">integer identity</text>
<text xml:space="preserve" text-anchor="start" x="941.25" y="-483.5" font-family="DejaVu Sans Mono" font-size="10.00" fill="#79c0ff">FK</text>
<text xml:space="preserve" text-anchor="start" x="953.25" y="-483.5" font-family="DejaVu Sans Mono" font-size="10.00"> </text>
<text xml:space="preserve" text-anchor="start" x="959.25" y="-483.5" font-family="DejaVu Sans Mono" font-size="10.00" fill="#d29922">UQ</text>
<text xml:space="preserve" text-anchor="start" x="977.25" y="-482.25" font-family="DejaVu Sans Mono" font-size="10.00" fill="#e6edf3">collection_id</text>
<text xml:space="preserve" text-anchor="start" x="1061.25" y="-482.25" font-family="DejaVu Sans Mono" font-size="10.00" fill="#8b949e">smallint</text>
<text xml:space="preserve" text-anchor="start" x="941.25" y="-463.5" font-family="DejaVu Sans Mono" font-size="10.00" fill="#d29922">UQ</text>
<text xml:space="preserve" text-anchor="start" x="977.25" y="-463.5" font-family="DejaVu Sans Mono" font-size="10.00" fill="#e6edf3">title_ar</text>
<text xml:space="preserve" text-anchor="start" x="1061.25" y="-463.5" font-family="DejaVu Sans Mono" font-size="10.00" fill="#8b949e">text</text>
</g>
<!-- chapters&#45;&gt;collections -->
<g id="edge1" class="edge">
<title>chapters:collection_id&#45;&gt;collections:collection_id</title>
<path fill="none" stroke="#8b949e" stroke-width="1.3" d="M928.86,-479.42C926.93,-472.1 931.44,-460.1 938.25,-453.5 1011.65,-382.35 1070.59,-423.29 1168.25,-453.5 1223.29,-470.53 1219.29,-525.62 1273.53,-528.62"/>
<polygon fill="#8b949e" stroke="#8b949e" stroke-width="1.3" points="928.86,-479.42 934.22,-488.98 933.23,-482.65 936.55,-485.11 936.55,-485.11 936.55,-485.11 933.23,-482.65 939.58,-481.75 928.86,-479.42"/>
<polygon fill="#8b949e" stroke="#8b949e" stroke-width="1.3" points="1277.39,-523.72 1277.12,-533.72 1275.12,-533.67 1275.39,-523.67 1277.39,-523.72"/>
<polyline fill="none" stroke="#8b949e" stroke-width="1.3" points="1278.25,-528.75 1273.25,-528.61"/>
</g>
<!-- hadiths -->
<g id="node3" class="node">
<title>hadiths</title>
<polygon fill="#161b22" stroke="none" points="552.25,-421.25 552.25,-608.75 768.25,-608.75 768.25,-421.25 552.25,-421.25"/>
<polygon fill="#1f6feb" stroke="none" points="552.25,-590 552.25,-608.75 768.25,-608.75 768.25,-590 552.25,-590"/>
<text xml:space="preserve" text-anchor="start" x="618.25" y="-597.25" font-family="DejaVu Sans Mono" font-weight="bold" font-size="10.00" fill="#ffffff">corpus.hadiths</text>
<text xml:space="preserve" text-anchor="start" x="555.25" y="-577.25" font-family="DejaVu Sans Mono" font-size="10.00" fill="#e3b341">PK</text>
<text xml:space="preserve" text-anchor="start" x="573.25" y="-577.25" font-family="DejaVu Sans Mono" font-size="10.00" fill="#e6edf3">hadith_id</text>
<text xml:space="preserve" text-anchor="start" x="657.25" y="-577.25" font-family="DejaVu Sans Mono" font-size="10.00" fill="#8b949e">integer &#160;(natural)</text>
<text xml:space="preserve" text-anchor="start" x="555.25" y="-558.5" font-family="DejaVu Sans Mono" font-size="10.00" fill="#79c0ff">FK</text>
<text xml:space="preserve" text-anchor="start" x="573.25" y="-558.5" font-family="DejaVu Sans Mono" font-size="10.00" fill="#e6edf3">collection_id</text>
<text xml:space="preserve" text-anchor="start" x="657.25" y="-558.5" font-family="DejaVu Sans Mono" font-size="10.00" fill="#8b949e">smallint</text>
<text xml:space="preserve" text-anchor="start" x="555.25" y="-539.75" font-family="DejaVu Sans Mono" font-size="10.00" fill="#79c0ff">FK</text>
<text xml:space="preserve" text-anchor="start" x="573.25" y="-539.75" font-family="DejaVu Sans Mono" font-size="10.00" fill="#8b949e">chapter_id</text>
<text xml:space="preserve" text-anchor="start" x="657.25" y="-539.75" font-family="DejaVu Sans Mono" font-size="10.00" fill="#6e7681">integer NULL</text>
<text xml:space="preserve" text-anchor="start" x="573.25" y="-521" font-family="DejaVu Sans Mono" font-size="10.00" fill="#e6edf3">hadith_num</text>
<text xml:space="preserve" text-anchor="start" x="657.25" y="-521" font-family="DejaVu Sans Mono" font-size="10.00" fill="#8b949e">text</text>
<text xml:space="preserve" text-anchor="start" x="573.25" y="-502.25" font-family="DejaVu Sans Mono" font-size="10.00" fill="#e6edf3">text_plain</text>
<text xml:space="preserve" text-anchor="start" x="657.25" y="-502.25" font-family="DejaVu Sans Mono" font-size="10.00" fill="#8b949e">text</text>
<text xml:space="preserve" text-anchor="start" x="573.25" y="-483.5" font-family="DejaVu Sans Mono" font-size="10.00" fill="#e6edf3">text_diac</text>
<text xml:space="preserve" text-anchor="start" x="657.25" y="-483.5" font-family="DejaVu Sans Mono" font-size="10.00" fill="#8b949e">text</text>
<text xml:space="preserve" text-anchor="start" x="573.25" y="-464.75" font-family="DejaVu Sans Mono" font-size="10.00" fill="#8b949e">matn_plain</text>
<text xml:space="preserve" text-anchor="start" x="657.25" y="-464.75" font-family="DejaVu Sans Mono" font-size="10.00" fill="#6e7681">text NULL</text>
<text xml:space="preserve" text-anchor="start" x="573.25" y="-446" font-family="DejaVu Sans Mono" font-size="10.00" fill="#8b949e">matn_diac</text>
<text xml:space="preserve" text-anchor="start" x="657.25" y="-446" font-family="DejaVu Sans Mono" font-size="10.00" fill="#6e7681">text NULL</text>
<text xml:space="preserve" text-anchor="start" x="573.25" y="-427.25" font-family="DejaVu Sans Mono" font-size="10.00" fill="#e6edf3">sanad_count</text>
<text xml:space="preserve" text-anchor="start" x="657.25" y="-427.25" font-family="DejaVu Sans Mono" font-size="10.00" fill="#8b949e">smallint</text>
</g>
<!-- hadiths&#45;&gt;collections -->
<g id="edge2" class="edge">
<title>hadiths:collection_id&#45;&gt;collections:collection_id</title>
<path fill="none" stroke="#8b949e" stroke-width="1.3" d="M541.56,-565.21C531.74,-574.34 539.13,-599.89 552.25,-612.75 623.33,-682.45 676.98,-620.27 776.25,-612.75 951.98,-599.43 994.99,-585.27 1168.25,-553 1215.83,-544.14 1227.43,-529.75 1273.39,-528.8"/>
<polygon fill="#8b949e" stroke="#8b949e" stroke-width="1.3" points="541.38,-565.27 552.3,-566.27 546.52,-563.5 550.43,-562.16 550.43,-562.16 550.43,-562.16 546.52,-563.5 549.37,-557.76 541.38,-565.27"/>
<polygon fill="#8b949e" stroke="#8b949e" stroke-width="1.3" points="1277.2,-523.76 1277.3,-533.76 1275.3,-533.78 1275.2,-523.78 1277.2,-523.76"/>
<polyline fill="none" stroke="#8b949e" stroke-width="1.3" points="1278.25,-528.75 1273.25,-528.8"/>
</g>
<!-- hadiths&#45;&gt;chapters -->
<g id="edge3" class="edge">
<title>hadiths:chapter_id&#45;&gt;chapters:chapter_id</title>
<path fill="none" stroke="#8b949e" stroke-width="1.3" d="M534.08,-553.09C526.94,-568.31 536.49,-597.22 552.25,-612.75 623.15,-682.64 681.03,-641.81 776.25,-612.75 857.14,-588.06 851.26,-507.6 932.3,-504.47"/>
<polygon fill="#8b949e" stroke="#8b949e" stroke-width="1.3" points="542.22,-548.36 553.13,-547.24 546.93,-545.63 550.5,-543.56 550.5,-543.56 550.5,-543.56 546.93,-545.63 548.62,-539.45 542.22,-548.36"/>
<ellipse fill="none" stroke="#8b949e" stroke-width="1.3" cx="536.83" cy="-551.49" rx="4" ry="4"/>
<polygon fill="#8b949e" stroke="#8b949e" stroke-width="1.3" points="936.15,-499.39 936.35,-509.39 934.35,-509.43 934.16,-499.43 936.15,-499.39"/>
<polyline fill="none" stroke="#8b949e" stroke-width="1.3" points="937.25,-504.38 932.25,-504.47"/>
</g>
<!-- rank_levels -->
<g id="node4" class="node">
<title>rank_levels</title>
<polygon fill="#161b22" stroke="none" points="971.25,-130.12 971.25,-223.88 1127.25,-223.88 1127.25,-130.12 971.25,-130.12"/>
<polygon fill="#1f6feb" stroke="none" points="971.25,-205.12 971.25,-223.88 1127.25,-223.88 1127.25,-205.12 971.25,-205.12"/>
<text xml:space="preserve" text-anchor="start" x="995.25" y="-212.38" font-family="DejaVu Sans Mono" font-weight="bold" font-size="10.00" fill="#ffffff">corpus.rank_levels</text>
<text xml:space="preserve" text-anchor="start" x="974.25" y="-192.38" font-family="DejaVu Sans Mono" font-size="10.00" fill="#e3b341">PK</text>
<text xml:space="preserve" text-anchor="start" x="992.25" y="-192.38" font-family="DejaVu Sans Mono" font-size="10.00" fill="#e6edf3">rank_code</text>
<text xml:space="preserve" text-anchor="start" x="1052.25" y="-192.38" font-family="DejaVu Sans Mono" font-size="10.00" fill="#8b949e">text</text>
<text xml:space="preserve" text-anchor="start" x="992.25" y="-173.62" font-family="DejaVu Sans Mono" font-size="10.00" fill="#e6edf3">label_ar</text>
<text xml:space="preserve" text-anchor="start" x="1052.25" y="-173.62" font-family="DejaVu Sans Mono" font-size="10.00" fill="#8b949e">text</text>
<text xml:space="preserve" text-anchor="start" x="992.25" y="-154.88" font-family="DejaVu Sans Mono" font-size="10.00" fill="#e6edf3">ordinal</text>
<text xml:space="preserve" text-anchor="start" x="1052.25" y="-154.88" font-family="DejaVu Sans Mono" font-size="10.00" fill="#8b949e">smallint</text>
<text xml:space="preserve" text-anchor="start" x="992.25" y="-136.12" font-family="DejaVu Sans Mono" font-size="10.00" fill="#e6edf3">weight</text>
<text xml:space="preserve" text-anchor="start" x="1052.25" y="-136.12" font-family="DejaVu Sans Mono" font-size="10.00" fill="#8b949e">numeric(3,2)</text>
</g>
<!-- narrators -->
<g id="node5" class="node">
<title>narrators</title>
<polygon fill="#161b22" stroke="none" points="501.25,-137.12 501.25,-380.88 819.25,-380.88 819.25,-137.12 501.25,-137.12"/>
<polygon fill="#1f6feb" stroke="none" points="501.25,-362.12 501.25,-380.88 819.25,-380.88 819.25,-362.12 501.25,-362.12"/>
<text xml:space="preserve" text-anchor="start" x="612.25" y="-369.38" font-family="DejaVu Sans Mono" font-weight="bold" font-size="10.00" fill="#ffffff">corpus.narrators</text>
<text xml:space="preserve" text-anchor="start" x="504.25" y="-349.38" font-family="DejaVu Sans Mono" font-size="10.00" fill="#e3b341">PK</text>
<text xml:space="preserve" text-anchor="start" x="522.25" y="-349.38" font-family="DejaVu Sans Mono" font-size="10.00" fill="#e6edf3">narrator_id</text>
<text xml:space="preserve" text-anchor="start" x="696.25" y="-349.38" font-family="DejaVu Sans Mono" font-size="10.00" fill="#8b949e">integer</text>
<text xml:space="preserve" text-anchor="start" x="522.25" y="-330.62" font-family="DejaVu Sans Mono" font-size="10.00" fill="#e6edf3">display_name</text>
<text xml:space="preserve" text-anchor="start" x="696.25" y="-330.62" font-family="DejaVu Sans Mono" font-size="10.00" fill="#8b949e">text</text>
<text xml:space="preserve" text-anchor="start" x="522.25" y="-311.88" font-family="DejaVu Sans Mono" font-size="10.00" fill="#e6edf3">name</text>
<text xml:space="preserve" text-anchor="start" x="696.25" y="-311.88" font-family="DejaVu Sans Mono" font-size="10.00" fill="#8b949e">text</text>
<text xml:space="preserve" text-anchor="start" x="522.25" y="-293.12" font-family="DejaVu Sans Mono" font-size="10.00" fill="#e6edf3">name_norm</text>
<text xml:space="preserve" text-anchor="start" x="696.25" y="-293.12" font-family="DejaVu Sans Mono" font-size="10.00" fill="#d29922">generated stored</text>
<text xml:space="preserve" text-anchor="start" x="522.25" y="-274.38" font-family="DejaVu Sans Mono" font-size="10.00" fill="#8b949e">name_en, kunya, lineage</text>
<text xml:space="preserve" text-anchor="start" x="696.25" y="-274.38" font-family="DejaVu Sans Mono" font-size="10.00" fill="#6e7681">text NULL</text>
<text xml:space="preserve" text-anchor="start" x="522.25" y="-255.62" font-family="DejaVu Sans Mono" font-size="10.00" fill="#8b949e">relation, tabaqa_raw, school</text>
<text xml:space="preserve" text-anchor="start" x="696.25" y="-255.62" font-family="DejaVu Sans Mono" font-size="10.00" fill="#6e7681">text NULL</text>
<text xml:space="preserve" text-anchor="start" x="522.25" y="-236.88" font-family="DejaVu Sans Mono" font-size="10.00" fill="#8b949e">rank_ibn_hajar_raw</text>
<text xml:space="preserve" text-anchor="start" x="696.25" y="-236.88" font-family="DejaVu Sans Mono" font-size="10.00" fill="#6e7681">text NULL &#160;(display)</text>
<text xml:space="preserve" text-anchor="start" x="522.25" y="-218.12" font-family="DejaVu Sans Mono" font-size="10.00" fill="#8b949e">rank_dhahabi_raw</text>
<text xml:space="preserve" text-anchor="start" x="696.25" y="-218.12" font-family="DejaVu Sans Mono" font-size="10.00" fill="#6e7681">text NULL &#160;(display)</text>
<text xml:space="preserve" text-anchor="start" x="504.25" y="-199.38" font-family="DejaVu Sans Mono" font-size="10.00" fill="#79c0ff">FK</text>
<text xml:space="preserve" text-anchor="start" x="522.25" y="-199.38" font-family="DejaVu Sans Mono" font-size="10.00" fill="#8b949e">rank_ibn_hajar</text>
<text xml:space="preserve" text-anchor="start" x="696.25" y="-199.38" font-family="DejaVu Sans Mono" font-size="10.00" fill="#6e7681">text NULL &#160;(math)</text>
<text xml:space="preserve" text-anchor="start" x="504.25" y="-180.62" font-family="DejaVu Sans Mono" font-size="10.00" fill="#79c0ff">FK</text>
<text xml:space="preserve" text-anchor="start" x="522.25" y="-180.62" font-family="DejaVu Sans Mono" font-size="10.00" fill="#8b949e">rank_dhahabi</text>
<text xml:space="preserve" text-anchor="start" x="696.25" y="-180.62" font-family="DejaVu Sans Mono" font-size="10.00" fill="#6e7681">text NULL &#160;(math)</text>
<text xml:space="preserve" text-anchor="start" x="522.25" y="-161.88" font-family="DejaVu Sans Mono" font-size="10.00" fill="#8b949e">date_of_death</text>
<text xml:space="preserve" text-anchor="start" x="696.25" y="-161.88" font-family="DejaVu Sans Mono" font-size="10.00" fill="#6e7681">text NULL</text>
<text xml:space="preserve" text-anchor="start" x="522.25" y="-143.12" font-family="DejaVu Sans Mono" font-size="10.00" fill="#e6edf3">is_placeholder</text>
<text xml:space="preserve" text-anchor="start" x="696.25" y="-143.12" font-family="DejaVu Sans Mono" font-size="10.00" fill="#8b949e">boolean</text>
</g>
<!-- narrators&#45;&gt;rank_levels -->
<g id="edge6" class="edge">
<title>narrators:rank_ibn_hajar&#45;&gt;rank_levels:rank_code</title>
<path fill="none" stroke="#8b949e" stroke-width="1.3" d="M483.08,-192.78C475.94,-177.56 485.49,-148.66 501.25,-133.12 527.05,-107.7 794.37,-117.94 827.25,-133.12 858.99,-147.78 846.74,-177.87 878.25,-193 913.69,-210.01 928.2,-196.87 965.58,-195.82"/>
<polygon fill="#8b949e" stroke="#8b949e" stroke-width="1.3" points="491.22,-197.51 497.62,-206.42 495.93,-200.24 499.5,-202.31 499.5,-202.31 499.5,-202.31 495.93,-200.24 502.13,-198.64 491.22,-197.51"/>
<ellipse fill="none" stroke="#8b949e" stroke-width="1.3" cx="485.83" cy="-194.38" rx="4" ry="4"/>
<polygon fill="#8b949e" stroke="#8b949e" stroke-width="1.3" points="969.18,-190.76 969.32,-200.76 967.32,-200.79 967.18,-190.79 969.18,-190.76"/>
<polyline fill="none" stroke="#8b949e" stroke-width="1.3" points="970.25,-195.75 965.25,-195.82"/>
</g>
<!-- narrators&#45;&gt;rank_levels -->
<g id="edge7" class="edge">
<title>narrators:rank_dhahabi&#45;&gt;rank_levels:rank_code</title>
<path fill="none" stroke="#8b949e" stroke-width="1.3" d="M486.15,-170.29C485.13,-158.7 491.66,-142.53 501.25,-133.12 527.11,-107.76 791.8,-125.7 827.25,-133.12 893.57,-147.01 900.57,-193.5 965.47,-195.67"/>
<polygon fill="#8b949e" stroke="#8b949e" stroke-width="1.3" points="492.77,-176.73 496.8,-186.92 496.67,-180.51 499.63,-183.39 499.63,-183.39 499.63,-183.39 496.67,-180.51 503.08,-180.47 492.77,-176.73"/>
<ellipse fill="none" stroke="#8b949e" stroke-width="1.3" cx="488.3" cy="-172.38" rx="4" ry="4"/>
<polygon fill="#8b949e" stroke="#8b949e" stroke-width="1.3" points="969.33,-190.73 969.17,-200.73 967.17,-200.7 967.33,-190.7 969.33,-190.73"/>
<polyline fill="none" stroke="#8b949e" stroke-width="1.3" points="970.25,-195.75 965.25,-195.67"/>
</g>
<!-- isnad_links -->
<g id="node6" class="node">
<title>isnad_links</title>
<polygon fill="#161b22" stroke="none" points="27,-267.62 27,-436.38 333,-436.38 333,-267.62 27,-267.62"/>
<polygon fill="#1f6feb" stroke="none" points="27,-417.62 27,-436.38 333,-436.38 333,-417.62 27,-417.62"/>
<text xml:space="preserve" text-anchor="start" x="126" y="-424.88" font-family="DejaVu Sans Mono" font-weight="bold" font-size="10.00" fill="#ffffff">corpus.isnad_links</text>
<text xml:space="preserve" text-anchor="start" x="30" y="-406.12" font-family="DejaVu Sans Mono" font-size="10.00" fill="#e3b341">PK</text>
<text xml:space="preserve" text-anchor="start" x="42" y="-406.12" font-family="DejaVu Sans Mono" font-size="10.00"> </text>
<text xml:space="preserve" text-anchor="start" x="48" y="-406.12" font-family="DejaVu Sans Mono" font-size="10.00" fill="#79c0ff">FK</text>
<text xml:space="preserve" text-anchor="start" x="66" y="-404.88" font-family="DejaVu Sans Mono" font-size="10.00" fill="#e6edf3">hadith_id</text>
<text xml:space="preserve" text-anchor="start" x="174" y="-404.88" font-family="DejaVu Sans Mono" font-size="10.00" fill="#8b949e">integer</text>
<text xml:space="preserve" text-anchor="start" x="30" y="-386.12" font-family="DejaVu Sans Mono" font-size="10.00" fill="#e3b341">PK</text>
<text xml:space="preserve" text-anchor="start" x="66" y="-386.12" font-family="DejaVu Sans Mono" font-size="10.00" fill="#e6edf3">sanad_no</text>
<text xml:space="preserve" text-anchor="start" x="174" y="-386.12" font-family="DejaVu Sans Mono" font-size="10.00" fill="#8b949e">smallint</text>
<text xml:space="preserve" text-anchor="start" x="30" y="-367.38" font-family="DejaVu Sans Mono" font-size="10.00" fill="#e3b341">PK</text>
<text xml:space="preserve" text-anchor="start" x="66" y="-367.38" font-family="DejaVu Sans Mono" font-size="10.00" fill="#e6edf3">position</text>
<text xml:space="preserve" text-anchor="start" x="174" y="-367.38" font-family="DejaVu Sans Mono" font-size="10.00" fill="#8b949e">smallint &#160;(Companion = 1)</text>
<text xml:space="preserve" text-anchor="start" x="30" y="-348.62" font-family="DejaVu Sans Mono" font-size="10.00" fill="#79c0ff">FK</text>
<text xml:space="preserve" text-anchor="start" x="66" y="-348.62" font-family="DejaVu Sans Mono" font-size="10.00" fill="#8b949e">narrator_id</text>
<text xml:space="preserve" text-anchor="start" x="174" y="-348.62" font-family="DejaVu Sans Mono" font-size="10.00" fill="#6e7681">integer NULL &#160;(unresolved)</text>
<text xml:space="preserve" text-anchor="start" x="66" y="-329.88" font-family="DejaVu Sans Mono" font-size="10.00" fill="#e6edf3">raw_name</text>
<text xml:space="preserve" text-anchor="start" x="174" y="-329.88" font-family="DejaVu Sans Mono" font-size="10.00" fill="#8b949e">text</text>
<text xml:space="preserve" text-anchor="start" x="66" y="-311.12" font-family="DejaVu Sans Mono" font-size="10.00" fill="#8b949e">transmission_word</text>
<text xml:space="preserve" text-anchor="start" x="174" y="-311.12" font-family="DejaVu Sans Mono" font-size="10.00" fill="#6e7681">text NULL</text>
<text xml:space="preserve" text-anchor="start" x="66" y="-292.38" font-family="DejaVu Sans Mono" font-size="10.00" fill="#e6edf3">is_compiler</text>
<text xml:space="preserve" text-anchor="start" x="174" y="-292.38" font-family="DejaVu Sans Mono" font-size="10.00" fill="#8b949e">boolean</text>
<text xml:space="preserve" text-anchor="start" x="66" y="-273.62" font-family="DejaVu Sans Mono" font-size="10.00" fill="#8b949e">resolution</text>
<text xml:space="preserve" text-anchor="start" x="174" y="-273.62" font-family="DejaVu Sans Mono" font-size="10.00" fill="#6e7681">char(1) NULL &#160;A|B|X</text>
</g>
<!-- isnad_links&#45;&gt;hadiths -->
<g id="edge4" class="edge">
<title>isnad_links:hadith_id&#45;&gt;hadiths:hadith_id</title>
<path fill="none" stroke="#8b949e" stroke-width="1.3" d="M17.67,-414.59C16.04,-421.81 20.64,-433.49 27,-440.38 76.33,-493.72 282.51,-454.78 352,-476 446.07,-504.72 451.08,-578.13 546.35,-580.56"/>
<polygon fill="#8b949e" stroke="#8b949e" stroke-width="1.3" points="17.7,-414.57 28.38,-412.09 22.02,-411.28 25.31,-408.78 25.31,-408.78 25.31,-408.78 22.02,-411.28 22.93,-404.93 17.7,-414.57"/>
<polygon fill="#8b949e" stroke="#8b949e" stroke-width="1.3" points="550.31,-575.61 550.19,-585.61 548.19,-585.59 548.31,-575.59 550.31,-575.61"/>
<polyline fill="none" stroke="#8b949e" stroke-width="1.3" points="551.25,-580.62 546.25,-580.56"/>
</g>
<!-- isnad_links&#45;&gt;narrators -->
<g id="edge5" class="edge">
<title>isnad_links:narrator_id&#45;&gt;narrators:narrator_id</title>
<path fill="none" stroke="#8b949e" stroke-width="1.3" d="M7.7,-359.23C-7.38,-376.16 4.96,-418.58 27,-440.38 76.62,-489.44 273.42,-457.74 341,-440.38 417.71,-420.66 419.43,-355.37 495.61,-352.83"/>
<polygon fill="#8b949e" stroke="#8b949e" stroke-width="1.3" points="16.29,-355.83 27.25,-356.35 21.35,-353.84 25.19,-352.32 25.19,-352.32 25.19,-352.32 21.35,-353.84 23.94,-347.97 16.29,-355.83"/>
<ellipse fill="none" stroke="#8b949e" stroke-width="1.3" cx="10.5" cy="-358.12" rx="4" ry="4"/>
<polygon fill="#8b949e" stroke="#8b949e" stroke-width="1.3" points="499.17,-347.77 499.33,-357.77 497.33,-357.8 497.17,-347.8 499.17,-347.77"/>
<polyline fill="none" stroke="#8b949e" stroke-width="1.3" points="500.25,-352.75 495.25,-352.83"/>
</g>
<!-- isnad_edges -->
<g id="node8" class="node">
<title>isnad_edges</title>
<polygon fill="#12161c" stroke="none" points="569.25,-20.5 569.25,-97.5 751.25,-97.5 751.25,-20.5 569.25,-20.5"/>
<polygon fill="none" stroke="#79c0ff" points="569.25,-20.5 569.25,-97.5 751.25,-97.5 751.25,-20.5 569.25,-20.5"/>
<text xml:space="preserve" text-anchor="start" x="582.25" y="-85" font-family="DejaVu Sans Mono" font-weight="bold" font-size="10.00" fill="#79c0ff">corpus.isnad_edges</text>
<text xml:space="preserve" text-anchor="start" x="690.25" y="-85" font-family="DejaVu Sans Mono" font-size="10.00" fill="#79c0ff"> &#160;(VIEW)</text>
<text xml:space="preserve" text-anchor="start" x="573.25" y="-65" font-family="DejaVu Sans Mono" font-size="10.00" fill="#8b949e">self&#45;join of isnad_links on</text>
<text xml:space="preserve" text-anchor="start" x="573.25" y="-46.25" font-family="DejaVu Sans Mono" font-size="10.00" fill="#8b949e">position = position + 1</text>
<text xml:space="preserve" text-anchor="start" x="573.25" y="-27.5" font-family="DejaVu Sans Mono" font-size="10.00" fill="#6e7681">from_narrator &#45;&gt; to_narrator</text>
</g>
<!-- isnad_links&#45;&gt;isnad_edges -->
<g id="edge9" class="edge">
<title>isnad_links&#45;&gt;isnad_edges</title>
<path fill="none" stroke="#79c0ff" stroke-width="1.3" stroke-dasharray="5,2" d="M281.41,-263.77C340.11,-215.53 417.4,-157.52 493.25,-117 511.12,-107.46 530.87,-98.96 550.34,-91.62"/>
<polygon fill="none" stroke="#79c0ff" stroke-width="1.3" points="551.4,-94.96 559.58,-88.22 548.98,-88.39 551.4,-94.96"/>
<text xml:space="preserve" text-anchor="middle" x="418.62" y="-175.57" font-family="DejaVu Sans Mono" font-size="9.00" fill="#79c0ff">self&#45;join</text>
</g>
<!-- hadith_translations -->
<g id="node7" class="node">
<title>hadith_translations</title>
<polygon fill="#161b22" stroke="none" points="60,-495.75 60,-608.25 300,-608.25 300,-495.75 60,-495.75"/>
<polygon fill="#1f6feb" stroke="none" points="60,-589.5 60,-608.25 300,-608.25 300,-589.5 60,-589.5"/>
<text xml:space="preserve" text-anchor="start" x="102" y="-596.75" font-family="DejaVu Sans Mono" font-weight="bold" font-size="10.00" fill="#ffffff">corpus.hadith_translations</text>
<text xml:space="preserve" text-anchor="start" x="63" y="-578" font-family="DejaVu Sans Mono" font-size="10.00" fill="#e3b341">PK</text>
<text xml:space="preserve" text-anchor="start" x="75" y="-578" font-family="DejaVu Sans Mono" font-size="10.00"> </text>
<text xml:space="preserve" text-anchor="start" x="81" y="-578" font-family="DejaVu Sans Mono" font-size="10.00" fill="#79c0ff">FK</text>
<text xml:space="preserve" text-anchor="start" x="99" y="-576.75" font-family="DejaVu Sans Mono" font-size="10.00" fill="#e6edf3">hadith_id</text>
<text xml:space="preserve" text-anchor="start" x="159" y="-576.75" font-family="DejaVu Sans Mono" font-size="10.00" fill="#8b949e">integer</text>
<text xml:space="preserve" text-anchor="start" x="63" y="-558" font-family="DejaVu Sans Mono" font-size="10.00" fill="#e3b341">PK</text>
<text xml:space="preserve" text-anchor="start" x="99" y="-558" font-family="DejaVu Sans Mono" font-size="10.00" fill="#e6edf3">lang</text>
<text xml:space="preserve" text-anchor="start" x="159" y="-558" font-family="DejaVu Sans Mono" font-size="10.00" fill="#8b949e">char(2) &#160;ISO 639&#45;1</text>
<text xml:space="preserve" text-anchor="start" x="99" y="-539.25" font-family="DejaVu Sans Mono" font-size="10.00" fill="#e6edf3">text_full</text>
<text xml:space="preserve" text-anchor="start" x="159" y="-539.25" font-family="DejaVu Sans Mono" font-size="10.00" fill="#8b949e">text</text>
<text xml:space="preserve" text-anchor="start" x="99" y="-520.5" font-family="DejaVu Sans Mono" font-size="10.00" fill="#e6edf3">source</text>
<text xml:space="preserve" text-anchor="start" x="159" y="-520.5" font-family="DejaVu Sans Mono" font-size="10.00" fill="#8b949e">text &#160;provenance</text>
<text xml:space="preserve" text-anchor="start" x="99" y="-501.75" font-family="DejaVu Sans Mono" font-size="10.00" fill="#e6edf3">match_via</text>
<text xml:space="preserve" text-anchor="start" x="159" y="-501.75" font-family="DejaVu Sans Mono" font-size="10.00" fill="#8b949e">char(1) NULL &#160;E/P/6/4/M</text>
</g>
<!-- hadith_translations&#45;&gt;hadiths -->
<g id="edge8" class="edge">
<title>hadith_translations:hadith_id&#45;&gt;hadiths:hadith_id</title>
<path fill="none" stroke="#8b949e" stroke-width="1.3" d="M50.61,-586.33C48.68,-593.65 53.19,-605.65 60,-612.25 99.57,-650.61 253,-615.81 308,-612.25 415.2,-605.31 441.47,-581.34 546.51,-580.64"/>
<polygon fill="#8b949e" stroke="#8b949e" stroke-width="1.3" points="50.61,-586.33 61.33,-584 54.98,-583.1 58.3,-580.64 58.3,-580.64 58.3,-580.64 54.98,-583.1 55.97,-576.77 50.61,-586.33"/>
<polygon fill="#8b949e" stroke="#8b949e" stroke-width="1.3" points="550.23,-575.63 550.27,-585.63 548.27,-585.63 548.23,-575.64 550.23,-575.63"/>
<polyline fill="none" stroke="#8b949e" stroke-width="1.3" points="551.25,-580.62 546.25,-580.64"/>
</g>
<!-- legend -->
<g id="node9" class="node">
<title>legend</title>
<polygon fill="#0d1117" stroke="none" points="24,-662.75 24,-775.25 336,-775.25 336,-662.75 24,-662.75"/>
<text xml:space="preserve" text-anchor="start" x="27" y="-762.5" font-family="DejaVu Sans Mono" font-size="10.00" fill="#e3b341">PK</text>
<text xml:space="preserve" text-anchor="start" x="57" y="-762.5" font-family="DejaVu Sans Mono" font-size="10.00" fill="#8b949e">primary key column</text>
<text xml:space="preserve" text-anchor="start" x="27" y="-743.75" font-family="DejaVu Sans Mono" font-size="10.00" fill="#79c0ff">FK</text>
<text xml:space="preserve" text-anchor="start" x="57" y="-743.75" font-family="DejaVu Sans Mono" font-size="10.00" fill="#8b949e">foreign key column</text>
<text xml:space="preserve" text-anchor="start" x="27" y="-725" font-family="DejaVu Sans Mono" font-size="10.00" fill="#d29922">UQ</text>
<text xml:space="preserve" text-anchor="start" x="57" y="-725" font-family="DejaVu Sans Mono" font-size="10.00" fill="#8b949e">unique constraint / index</text>
<text xml:space="preserve" text-anchor="start" x="27" y="-706.25" font-family="DejaVu Sans Mono" font-size="10.00" fill="#6e7681">NULL</text>
<text xml:space="preserve" text-anchor="start" x="57" y="-706.25" font-family="DejaVu Sans Mono" font-size="10.00" fill="#8b949e">nullable; unmarked columns are NOT NULL</text>
<text xml:space="preserve" text-anchor="start" x="27" y="-687.5" font-family="DejaVu Sans Mono" font-size="10.00" fill="#8b949e">&#45;&lt;</text>
<text xml:space="preserve" text-anchor="start" x="57" y="-687.5" font-family="DejaVu Sans Mono" font-size="10.00" fill="#8b949e">crow foot = many &#160;&#160;&#160;&#160;&#160;&#160;&#160;tee = exactly one</text>
<text xml:space="preserve" text-anchor="start" x="27" y="-668.75" font-family="DejaVu Sans Mono" font-size="10.00" fill="#8b949e">&#45;o&lt;</text>
<text xml:space="preserve" text-anchor="start" x="57" y="-668.75" font-family="DejaVu Sans Mono" font-size="10.00" fill="#8b949e">circle + crow = zero or one on the parent side</text>
</g>
</g>
</svg>
