<?xml version="1.0" encoding="UTF-8" standalone="no"?>
<!DOCTYPE svg PUBLIC "-//W3C//DTD SVG 1.1//EN"
 "http://www.w3.org/Graphics/SVG/1.1/DTD/svg11.dtd">
<!-- Generated by graphviz version 15.1.0 (0)
 -->
<!-- Title: ilham_staging Pages: 1 -->
<svg width="1096pt" height="1107pt"
 viewBox="0.00 0.00 1096.00 1107.00" xmlns="http://www.w3.org/2000/svg" xmlns:xlink="http://www.w3.org/1999/xlink">
<g id="graph0" class="graph" transform="scale(1 1) rotate(0) translate(4 1103)">
<title>ilham_staging</title>
<polygon fill="#0d1117" stroke="none" points="-4,4 -4,-1103 1092,-1103 1092,4 -4,4"/>
<g id="clust1" class="cluster">
<title>cluster_staging</title>
<path fill="#12161c" stroke="#6e7681" stroke-width="1.6" stroke-dasharray="5,2" d="M296,-8C296,-8 730.5,-8 730.5,-8 736.5,-8 742.5,-14 742.5,-20 742.5,-20 742.5,-878 742.5,-878 742.5,-884 736.5,-890 730.5,-890 730.5,-890 296,-890 296,-890 290,-890 284,-884 284,-878 284,-878 284,-20 284,-20 284,-14 290,-8 296,-8"/>
<text xml:space="preserve" text-anchor="middle" x="513.25" y="-874.6" font-family="DejaVu Sans Mono" font-size="12.00" fill="#8b949e">staging &#160;— &#160;transient ELT scratch space, DROPped after load</text>
</g>
<g id="clust2" class="cluster">
<title>cluster_legend</title>
<path fill="#0d1117" stroke="#8b949e" d="M367.75,-969C367.75,-969 657.75,-969 657.75,-969 663.75,-969 669.75,-975 669.75,-981 669.75,-981 669.75,-1079 669.75,-1079 669.75,-1085 663.75,-1091 657.75,-1091 657.75,-1091 367.75,-1091 367.75,-1091 361.75,-1091 355.75,-1085 355.75,-1079 355.75,-1079 355.75,-981 355.75,-981 355.75,-975 361.75,-969 367.75,-969"/>
<text xml:space="preserve" text-anchor="middle" x="512.75" y="-1075.6" font-family="DejaVu Sans Mono" font-size="12.00" fill="#c9d1d9">legend</text>
</g>
<!-- st_hadiths -->
<g id="node1" class="node">
<title>st_hadiths</title>
<polygon fill="#161b22" stroke="none" points="437.75,-649.88 437.75,-856.12 587.75,-856.12 587.75,-649.88 437.75,-649.88"/>
<polygon fill="#30363d" stroke="none" points="437.75,-837.38 437.75,-856.12 587.75,-856.12 587.75,-837.38 437.75,-837.38"/>
<text xml:space="preserve" text-anchor="start" x="467.75" y="-844.62" font-family="DejaVu Sans Mono" font-weight="bold" font-size="10.00" fill="#c9d1d9">staging.hadiths</text>
<text xml:space="preserve" text-anchor="start" x="440.75" y="-824.62" font-family="DejaVu Sans Mono" font-size="10.00" fill="#e3b341">PK</text>
<text xml:space="preserve" text-anchor="start" x="458.75" y="-824.62" font-family="DejaVu Sans Mono" font-size="10.00" fill="#e6edf3">hadith_id</text>
<text xml:space="preserve" text-anchor="start" x="530.75" y="-824.62" font-family="DejaVu Sans Mono" font-size="10.00" fill="#8b949e">integer</text>
<text xml:space="preserve" text-anchor="start" x="458.75" y="-805.88" font-family="DejaVu Sans Mono" font-size="10.00" fill="#e6edf3">book_slug</text>
<text xml:space="preserve" text-anchor="start" x="530.75" y="-805.88" font-family="DejaVu Sans Mono" font-size="10.00" fill="#8b949e">text</text>
<text xml:space="preserve" text-anchor="start" x="458.75" y="-787.12" font-family="DejaVu Sans Mono" font-size="10.00" fill="#e6edf3">chapter_ar</text>
<text xml:space="preserve" text-anchor="start" x="530.75" y="-787.12" font-family="DejaVu Sans Mono" font-size="10.00" fill="#8b949e">text</text>
<text xml:space="preserve" text-anchor="start" x="458.75" y="-768.38" font-family="DejaVu Sans Mono" font-size="10.00" fill="#e6edf3">hadith_num</text>
<text xml:space="preserve" text-anchor="start" x="530.75" y="-768.38" font-family="DejaVu Sans Mono" font-size="10.00" fill="#8b949e">text</text>
<text xml:space="preserve" text-anchor="start" x="458.75" y="-749.62" font-family="DejaVu Sans Mono" font-size="10.00" fill="#e6edf3">text_plain</text>
<text xml:space="preserve" text-anchor="start" x="530.75" y="-749.62" font-family="DejaVu Sans Mono" font-size="10.00" fill="#8b949e">text</text>
<text xml:space="preserve" text-anchor="start" x="458.75" y="-730.88" font-family="DejaVu Sans Mono" font-size="10.00" fill="#e6edf3">text_diac</text>
<text xml:space="preserve" text-anchor="start" x="530.75" y="-730.88" font-family="DejaVu Sans Mono" font-size="10.00" fill="#8b949e">text</text>
<text xml:space="preserve" text-anchor="start" x="458.75" y="-712.12" font-family="DejaVu Sans Mono" font-size="10.00" fill="#8b949e">matn_plain</text>
<text xml:space="preserve" text-anchor="start" x="530.75" y="-712.12" font-family="DejaVu Sans Mono" font-size="10.00" fill="#6e7681">text NULL</text>
<text xml:space="preserve" text-anchor="start" x="458.75" y="-693.38" font-family="DejaVu Sans Mono" font-size="10.00" fill="#8b949e">matn_diac</text>
<text xml:space="preserve" text-anchor="start" x="530.75" y="-693.38" font-family="DejaVu Sans Mono" font-size="10.00" fill="#6e7681">text NULL</text>
<text xml:space="preserve" text-anchor="start" x="458.75" y="-674.62" font-family="DejaVu Sans Mono" font-size="10.00" fill="#e6edf3">sanad_count</text>
<text xml:space="preserve" text-anchor="start" x="530.75" y="-674.62" font-family="DejaVu Sans Mono" font-size="10.00" fill="#8b949e">smallint</text>
<text xml:space="preserve" text-anchor="start" x="458.75" y="-655.88" font-family="DejaVu Sans Mono" font-size="10.00" fill="#8b949e">raw_doc</text>
<text xml:space="preserve" text-anchor="start" x="530.75" y="-655.88" font-family="DejaVu Sans Mono" font-size="10.00" fill="#6e7681">text NULL</text>
</g>
<!-- corpus_hadiths -->
<g id="node6" class="node">
<title>corpus_hadiths</title>
<polygon fill="#12161c" stroke="none" points="946,-733.25 946,-772.75 1080,-772.75 1080,-733.25 946,-733.25"/>
<text xml:space="preserve" text-anchor="start" x="971" y="-760.25" font-family="DejaVu Sans Mono" font-weight="bold" font-size="10.00" fill="#58a6ff">corpus.hadiths</text>
<text xml:space="preserve" text-anchor="start" x="950" y="-740.25" font-family="DejaVu Sans Mono" font-size="10.00" fill="#6e7681">columns in corpus.dot</text>
<polygon fill="none" stroke="#58a6ff" points="946,-733.25 946,-772.75 1080,-772.75 1080,-733.25 946,-733.25"/>
</g>
<!-- st_hadiths&#45;&gt;corpus_hadiths -->
<g id="edge1" class="edge">
<title>st_hadiths&#45;&gt;corpus_hadiths</title>
<path fill="none" stroke="#6e7681" stroke-width="1.2" stroke-dasharray="1,5" d="M595.75,-753C687.1,-753 834.1,-753 926.75,-753"/>
<polygon fill="#6e7681" stroke="#6e7681" stroke-width="1.2" points="936.59,-753 926.59,-757.5 933.05,-753.1 926.59,-753.1 926.59,-753 926.59,-752.9 933.05,-752.9 926.59,-748.5 936.59,-753"/>
<text xml:space="preserve" text-anchor="middle" x="818.75" y="-755.7" font-family="DejaVu Sans Mono" font-size="9.00" fill="#6e7681">ETL</text>
</g>
<!-- st_chain_rows -->
<g id="node2" class="node">
<title>st_chain_rows</title>
<polygon fill="#161b22" stroke="none" points="419.75,-478.38 419.75,-609.62 605.75,-609.62 605.75,-478.38 419.75,-478.38"/>
<polygon fill="#30363d" stroke="none" points="419.75,-590.88 419.75,-609.62 605.75,-609.62 605.75,-590.88 419.75,-590.88"/>
<text xml:space="preserve" text-anchor="start" x="458.75" y="-598.12" font-family="DejaVu Sans Mono" font-weight="bold" font-size="10.00" fill="#c9d1d9">staging.chain_rows</text>
<text xml:space="preserve" text-anchor="start" x="422.75" y="-578.12" font-family="DejaVu Sans Mono" font-size="10.00" fill="#e3b341">PK</text>
<text xml:space="preserve" text-anchor="start" x="440.75" y="-578.12" font-family="DejaVu Sans Mono" font-size="10.00" fill="#e6edf3">hadith_id</text>
<text xml:space="preserve" text-anchor="start" x="548.75" y="-578.12" font-family="DejaVu Sans Mono" font-size="10.00" fill="#8b949e">integer</text>
<text xml:space="preserve" text-anchor="start" x="422.75" y="-559.38" font-family="DejaVu Sans Mono" font-size="10.00" fill="#e3b341">PK</text>
<text xml:space="preserve" text-anchor="start" x="440.75" y="-559.38" font-family="DejaVu Sans Mono" font-size="10.00" fill="#e6edf3">sanad_no</text>
<text xml:space="preserve" text-anchor="start" x="548.75" y="-559.38" font-family="DejaVu Sans Mono" font-size="10.00" fill="#8b949e">smallint</text>
<text xml:space="preserve" text-anchor="start" x="422.75" y="-540.62" font-family="DejaVu Sans Mono" font-size="10.00" fill="#e3b341">PK</text>
<text xml:space="preserve" text-anchor="start" x="440.75" y="-540.62" font-family="DejaVu Sans Mono" font-size="10.00" fill="#e6edf3">position</text>
<text xml:space="preserve" text-anchor="start" x="548.75" y="-540.62" font-family="DejaVu Sans Mono" font-size="10.00" fill="#8b949e">smallint</text>
<text xml:space="preserve" text-anchor="start" x="440.75" y="-521.88" font-family="DejaVu Sans Mono" font-size="10.00" fill="#e6edf3">raw_name</text>
<text xml:space="preserve" text-anchor="start" x="548.75" y="-521.88" font-family="DejaVu Sans Mono" font-size="10.00" fill="#8b949e">text</text>
<text xml:space="preserve" text-anchor="start" x="440.75" y="-503.12" font-family="DejaVu Sans Mono" font-size="10.00" fill="#8b949e">transmission_word</text>
<text xml:space="preserve" text-anchor="start" x="548.75" y="-503.12" font-family="DejaVu Sans Mono" font-size="10.00" fill="#6e7681">text NULL</text>
<text xml:space="preserve" text-anchor="start" x="440.75" y="-484.38" font-family="DejaVu Sans Mono" font-size="10.00" fill="#e6edf3">is_compiler</text>
<text xml:space="preserve" text-anchor="start" x="548.75" y="-484.38" font-family="DejaVu Sans Mono" font-size="10.00" fill="#8b949e">boolean</text>
</g>
<!-- corpus_isnad_links -->
<g id="node7" class="node">
<title>corpus_isnad_links</title>
<polygon fill="#12161c" stroke="none" points="946,-428.25 946,-467.75 1080,-467.75 1080,-428.25 946,-428.25"/>
<text xml:space="preserve" text-anchor="start" x="959" y="-455.25" font-family="DejaVu Sans Mono" font-weight="bold" font-size="10.00" fill="#58a6ff">corpus.isnad_links</text>
<text xml:space="preserve" text-anchor="start" x="950" y="-435.25" font-family="DejaVu Sans Mono" font-size="10.00" fill="#6e7681">columns in corpus.dot</text>
<polygon fill="none" stroke="#58a6ff" points="946,-428.25 946,-467.75 1080,-467.75 1080,-428.25 946,-428.25"/>
</g>
<!-- st_chain_rows&#45;&gt;corpus_isnad_links -->
<g id="edge2" class="edge">
<title>st_chain_rows&#45;&gt;corpus_isnad_links</title>
<path fill="none" stroke="#6e7681" stroke-width="1.2" stroke-dasharray="1,5" d="M613.68,-524.75C705.53,-507.05 840.22,-481.1 927.01,-464.37"/>
<polygon fill="#6e7681" stroke="#6e7681" stroke-width="1.2" points="936.71,-462.51 927.74,-468.82 933.25,-463.27 926.91,-464.5 926.89,-464.4 926.87,-464.3 933.22,-463.08 926.04,-459.98 936.71,-462.51"/>
<text xml:space="preserve" text-anchor="middle" x="818.75" y="-498.7" font-family="DejaVu Sans Mono" font-size="9.00" fill="#6e7681">ETL</text>
</g>
<!-- st_mentions -->
<g id="node3" class="node">
<title>st_mentions</title>
<polygon fill="#161b22" stroke="none" points="434.75,-325.75 434.75,-438.25 590.75,-438.25 590.75,-325.75 434.75,-325.75"/>
<polygon fill="#30363d" stroke="none" points="434.75,-419.5 434.75,-438.25 590.75,-438.25 590.75,-419.5 434.75,-419.5"/>
<text xml:space="preserve" text-anchor="start" x="464.75" y="-426.75" font-family="DejaVu Sans Mono" font-weight="bold" font-size="10.00" fill="#c9d1d9">staging.mentions</text>
<text xml:space="preserve" text-anchor="start" x="437.75" y="-406.75" font-family="DejaVu Sans Mono" font-size="10.00" fill="#e3b341">PK</text>
<text xml:space="preserve" text-anchor="start" x="455.75" y="-406.75" font-family="DejaVu Sans Mono" font-size="10.00" fill="#e6edf3">hadith_id</text>
<text xml:space="preserve" text-anchor="start" x="539.75" y="-406.75" font-family="DejaVu Sans Mono" font-size="10.00" fill="#8b949e">integer</text>
<text xml:space="preserve" text-anchor="start" x="437.75" y="-388" font-family="DejaVu Sans Mono" font-size="10.00" fill="#e3b341">PK</text>
<text xml:space="preserve" text-anchor="start" x="455.75" y="-388" font-family="DejaVu Sans Mono" font-size="10.00" fill="#e6edf3">mention_order</text>
<text xml:space="preserve" text-anchor="start" x="539.75" y="-388" font-family="DejaVu Sans Mono" font-size="10.00" fill="#8b949e">smallint</text>
<text xml:space="preserve" text-anchor="start" x="455.75" y="-369.25" font-family="DejaVu Sans Mono" font-size="10.00" fill="#e6edf3">surface_plain</text>
<text xml:space="preserve" text-anchor="start" x="539.75" y="-369.25" font-family="DejaVu Sans Mono" font-size="10.00" fill="#8b949e">text</text>
<text xml:space="preserve" text-anchor="start" x="455.75" y="-350.5" font-family="DejaVu Sans Mono" font-size="10.00" fill="#e6edf3">surface_diac</text>
<text xml:space="preserve" text-anchor="start" x="539.75" y="-350.5" font-family="DejaVu Sans Mono" font-size="10.00" fill="#8b949e">text</text>
<text xml:space="preserve" text-anchor="start" x="455.75" y="-331.75" font-family="DejaVu Sans Mono" font-size="10.00" fill="#e6edf3">narrator_id</text>
<text xml:space="preserve" text-anchor="start" x="539.75" y="-331.75" font-family="DejaVu Sans Mono" font-size="10.00" fill="#8b949e">integer</text>
</g>
<!-- st_mentions&#45;&gt;corpus_isnad_links -->
<g id="edge4" class="edge">
<title>st_mentions&#45;&gt;corpus_isnad_links</title>
<path fill="none" stroke="#6e7681" stroke-width="1.2" stroke-dasharray="1,5" d="M598.55,-393.23C690.15,-405.37 835.26,-424.59 926.95,-436.73"/>
<polygon fill="#6e7681" stroke="#6e7681" stroke-width="1.2" points="936.69,-438.02 926.19,-441.17 933.17,-437.66 926.76,-436.81 926.78,-436.71 926.79,-436.61 933.2,-437.46 927.37,-432.25 936.69,-438.02"/>
<text xml:space="preserve" text-anchor="middle" x="818.75" y="-433" font-family="DejaVu Sans Mono" font-size="9.00" fill="#6e7681">ETL pass B</text>
</g>
<!-- st_narrators -->
<g id="node4" class="node">
<title>st_narrators</title>
<polygon fill="#161b22" stroke="none" points="386.75,-116.62 386.75,-285.38 638.75,-285.38 638.75,-116.62 386.75,-116.62"/>
<polygon fill="#30363d" stroke="none" points="386.75,-266.62 386.75,-285.38 638.75,-285.38 638.75,-266.62 386.75,-266.62"/>
<text xml:space="preserve" text-anchor="start" x="461.75" y="-273.88" font-family="DejaVu Sans Mono" font-weight="bold" font-size="10.00" fill="#c9d1d9">staging.narrators</text>
<text xml:space="preserve" text-anchor="start" x="389.75" y="-253.88" font-family="DejaVu Sans Mono" font-size="10.00" fill="#e3b341">PK</text>
<text xml:space="preserve" text-anchor="start" x="407.75" y="-253.88" font-family="DejaVu Sans Mono" font-size="10.00" fill="#e6edf3">narrator_id</text>
<text xml:space="preserve" text-anchor="start" x="581.75" y="-253.88" font-family="DejaVu Sans Mono" font-size="10.00" fill="#8b949e">integer</text>
<text xml:space="preserve" text-anchor="start" x="407.75" y="-235.12" font-family="DejaVu Sans Mono" font-size="10.00" fill="#e6edf3">display_name</text>
<text xml:space="preserve" text-anchor="start" x="581.75" y="-235.12" font-family="DejaVu Sans Mono" font-size="10.00" fill="#8b949e">text</text>
<text xml:space="preserve" text-anchor="start" x="407.75" y="-216.38" font-family="DejaVu Sans Mono" font-size="10.00" fill="#e6edf3">name</text>
<text xml:space="preserve" text-anchor="start" x="581.75" y="-216.38" font-family="DejaVu Sans Mono" font-size="10.00" fill="#8b949e">text</text>
<text xml:space="preserve" text-anchor="start" x="407.75" y="-197.62" font-family="DejaVu Sans Mono" font-size="10.00" fill="#8b949e">kunya, nickname, lineage</text>
<text xml:space="preserve" text-anchor="start" x="581.75" y="-197.62" font-family="DejaVu Sans Mono" font-size="10.00" fill="#6e7681">text NULL</text>
<text xml:space="preserve" text-anchor="start" x="407.75" y="-178.88" font-family="DejaVu Sans Mono" font-size="10.00" fill="#8b949e">relation, tabaqa_raw, school</text>
<text xml:space="preserve" text-anchor="start" x="581.75" y="-178.88" font-family="DejaVu Sans Mono" font-size="10.00" fill="#6e7681">text NULL</text>
<text xml:space="preserve" text-anchor="start" x="407.75" y="-160.12" font-family="DejaVu Sans Mono" font-size="10.00" fill="#8b949e">rank_ibn_hajar_raw</text>
<text xml:space="preserve" text-anchor="start" x="581.75" y="-160.12" font-family="DejaVu Sans Mono" font-size="10.00" fill="#6e7681">text NULL</text>
<text xml:space="preserve" text-anchor="start" x="407.75" y="-141.38" font-family="DejaVu Sans Mono" font-size="10.00" fill="#8b949e">rank_dhahabi_raw</text>
<text xml:space="preserve" text-anchor="start" x="581.75" y="-141.38" font-family="DejaVu Sans Mono" font-size="10.00" fill="#6e7681">text NULL</text>
<text xml:space="preserve" text-anchor="start" x="407.75" y="-122.62" font-family="DejaVu Sans Mono" font-size="10.00" fill="#8b949e">date_of_death</text>
<text xml:space="preserve" text-anchor="start" x="581.75" y="-122.62" font-family="DejaVu Sans Mono" font-size="10.00" fill="#6e7681">text NULL</text>
</g>
<!-- corpus_narrators -->
<g id="node8" class="node">
<title>corpus_narrators</title>
<polygon fill="#12161c" stroke="none" points="946,-92.25 946,-131.75 1080,-131.75 1080,-92.25 946,-92.25"/>
<text xml:space="preserve" text-anchor="start" x="965" y="-119.25" font-family="DejaVu Sans Mono" font-weight="bold" font-size="10.00" fill="#58a6ff">corpus.narrators</text>
<text xml:space="preserve" text-anchor="start" x="950" y="-99.25" font-family="DejaVu Sans Mono" font-size="10.00" fill="#6e7681">columns in corpus.dot</text>
<polygon fill="none" stroke="#58a6ff" points="946,-92.25 946,-131.75 1080,-131.75 1080,-92.25 946,-92.25"/>
</g>
<!-- st_narrators&#45;&gt;corpus_narrators -->
<g id="edge3" class="edge">
<title>st_narrators&#45;&gt;corpus_narrators</title>
<path fill="none" stroke="#6e7681" stroke-width="1.2" stroke-dasharray="1,5" d="M646.62,-177.27C735.64,-161.36 850.2,-140.9 927.1,-127.16"/>
<polygon fill="#6e7681" stroke="#6e7681" stroke-width="1.2" points="936.73,-125.45 927.68,-131.63 933.26,-126.17 926.9,-127.3 926.88,-127.2 926.87,-127.11 933.23,-125.97 926.09,-122.77 936.73,-125.45"/>
<text xml:space="preserve" text-anchor="middle" x="818.75" y="-159.2" font-family="DejaVu Sans Mono" font-size="9.00" fill="#6e7681">ETL</text>
</g>
<!-- st_rank_map -->
<g id="node5" class="node">
<title>st_rank_map</title>
<polygon fill="#161b22" stroke="none" points="455.75,-19.88 455.75,-76.12 569.75,-76.12 569.75,-19.88 455.75,-19.88"/>
<polygon fill="#30363d" stroke="none" points="455.75,-57.38 455.75,-76.12 569.75,-76.12 569.75,-57.38 455.75,-57.38"/>
<text xml:space="preserve" text-anchor="start" x="464.75" y="-64.62" font-family="DejaVu Sans Mono" font-weight="bold" font-size="10.00" fill="#c9d1d9">staging.rank_map</text>
<text xml:space="preserve" text-anchor="start" x="458.75" y="-44.62" font-family="DejaVu Sans Mono" font-size="10.00" fill="#e3b341">PK</text>
<text xml:space="preserve" text-anchor="start" x="476.75" y="-44.62" font-family="DejaVu Sans Mono" font-size="10.00" fill="#e6edf3">raw_string</text>
<text xml:space="preserve" text-anchor="start" x="542.75" y="-44.62" font-family="DejaVu Sans Mono" font-size="10.00" fill="#8b949e">text</text>
<text xml:space="preserve" text-anchor="start" x="458.75" y="-25.88" font-family="DejaVu Sans Mono" font-size="10.00" fill="#79c0ff">FK</text>
<text xml:space="preserve" text-anchor="start" x="476.75" y="-25.88" font-family="DejaVu Sans Mono" font-size="10.00" fill="#e6edf3">rank_code</text>
<text xml:space="preserve" text-anchor="start" x="542.75" y="-25.88" font-family="DejaVu Sans Mono" font-size="10.00" fill="#8b949e">text</text>
</g>
<!-- st_rank_map&#45;&gt;corpus_narrators -->
<g id="edge5" class="edge">
<title>st_rank_map&#45;&gt;corpus_narrators</title>
<path fill="none" stroke="#6e7681" stroke-width="1.2" stroke-dasharray="1,5" d="M577.61,-56.2C666.61,-67.64 828.14,-88.38 927.17,-101.1"/>
<polygon fill="#6e7681" stroke="#6e7681" stroke-width="1.2" points="936.88,-102.35 926.39,-105.54 933.36,-102 926.95,-101.18 926.96,-101.08 926.97,-100.98 933.38,-101.8 927.54,-96.61 936.88,-102.35"/>
<text xml:space="preserve" text-anchor="middle" x="818.75" y="-97.54" font-family="DejaVu Sans Mono" font-size="9.00" fill="#6e7681">applied once, then dropped</text>
</g>
<!-- corpus_rank_levels -->
<g id="node9" class="node">
<title>corpus_rank_levels</title>
<polygon fill="#12161c" stroke="none" points="445.75,-902.25 445.75,-941.75 579.75,-941.75 579.75,-902.25 445.75,-902.25"/>
<text xml:space="preserve" text-anchor="start" x="458.75" y="-929.25" font-family="DejaVu Sans Mono" font-weight="bold" font-size="10.00" fill="#58a6ff">corpus.rank_levels</text>
<text xml:space="preserve" text-anchor="start" x="449.75" y="-909.25" font-family="DejaVu Sans Mono" font-size="10.00" fill="#6e7681">columns in corpus.dot</text>
<polygon fill="none" stroke="#58a6ff" points="445.75,-902.25 445.75,-941.75 579.75,-941.75 579.75,-902.25 445.75,-902.25"/>
</g>
<!-- st_rank_map&#45;&gt;corpus_rank_levels -->
<g id="edge6" class="edge">
<title>st_rank_map:rank_code&#45;&gt;corpus_rank_levels</title>
<path fill="none" stroke="#d29922" stroke-width="1.3" stroke-dasharray="5,2" d="M444.46,-29.27C369.77,-29.67 332.38,-35.64 284,-97 174.34,-236.08 157.77,-769.76 284,-894 322.4,-931.79 383.69,-937.57 433.17,-934.56"/>
<polygon fill="#d29922" stroke="#d29922" stroke-width="1.3" points="444.32,-29.28 454.33,-33.75 449.75,-29.26 453.88,-29.25 453.88,-29.25 453.88,-29.25 449.75,-29.26 454.3,-24.75 444.32,-29.28"/>
<polygon fill="#d29922" stroke="#d29922" stroke-width="1.3" points="436.59,-929.32 437.26,-939.3 435.26,-939.44 434.59,-929.46 436.59,-929.32"/>
<polyline fill="none" stroke="#d29922" stroke-width="1.3" points="437.92,-934.25 432.93,-934.58"/>
<text xml:space="preserve" text-anchor="middle" x="228.75" y="-486.07" font-family="DejaVu Sans Mono" font-size="9.00" fill="#d29922">FK added post&#45;seed</text>
</g>
<!-- legend -->
<g id="node10" class="node">
<title>legend</title>
<polygon fill="#0d1117" stroke="none" points="371.75,-981.5 371.75,-1056.5 653.75,-1056.5 653.75,-981.5 371.75,-981.5"/>
<text xml:space="preserve" text-anchor="start" x="374.75" y="-1043.75" font-family="DejaVu Sans Mono" font-size="10.00" fill="#e3b341">PK</text>
<text xml:space="preserve" text-anchor="start" x="404.75" y="-1043.75" font-family="DejaVu Sans Mono" font-size="10.00" fill="#8b949e">primary key column</text>
<text xml:space="preserve" text-anchor="start" x="374.75" y="-1025" font-family="DejaVu Sans Mono" font-size="10.00" fill="#79c0ff">FK</text>
<text xml:space="preserve" text-anchor="start" x="404.75" y="-1025" font-family="DejaVu Sans Mono" font-size="10.00" fill="#8b949e">foreign key column</text>
<text xml:space="preserve" text-anchor="start" x="374.75" y="-1006.25" font-family="DejaVu Sans Mono" font-size="10.00" fill="#6e7681">NULL</text>
<text xml:space="preserve" text-anchor="start" x="404.75" y="-1006.25" font-family="DejaVu Sans Mono" font-size="10.00" fill="#8b949e">nullable; unmarked columns are NOT NULL</text>
<text xml:space="preserve" text-anchor="start" x="374.75" y="-987.5" font-family="DejaVu Sans Mono" font-size="10.00" fill="#8b949e">&#45;&lt;</text>
<text xml:space="preserve" text-anchor="start" x="404.75" y="-987.5" font-family="DejaVu Sans Mono" font-size="10.00" fill="#8b949e">crow foot = many &#160;&#160;&#160;&#160;&#160;&#160;&#160;tee = exactly one</text>
</g>
</g>
</svg>
